{
.appVersion = "1213";
DisplayStrings = (
"1234567890123456782345678901234567893456789012345678904567890123456789015678901234567890126789012345678901237890123456789012348901234567890123459012345678901234560123456789012345671 2 3 4 5 6 7 8 9 0 1 2 3 4 5 6 7 8 9 0 1 2 3 4 5 6 7 8 9 0 1 2 34 5 6 7 8 9 0 1 2 3 4 5 6 7 8 9 0 1 2 3 4 5 6 7 8 9 0 1 2 3 4 5 67 8 9 0 1 2 3 4 5 6 7 8 9 0 1 2 3 4 5 6 7 8 9 0 1 2 3 4 5 6 7 8 90 1 2 3 4 5 6 7 8 9 012345678901234567890123456789012345678901234567890123456789012345678912345678901234567890123456789012345678010203040506070809000 111213141516171819101 212223242526272829202 313233343536373839303414243444546474849404 515253545556575859505 616263646566676869606 717273747576777879707818283848586878889808 91929394959697989990900 01 02 03 04 05 06 07 08 09 10    11 12 13 14 15 16 17 18 19 20 21 22 23 24 25 26 27 28 29   30 31 32 33 34 35 36 37 38 39 40 41 42 43 4 45 46 47 48 49  50 51 52 53 54 55 56 57 58 59 60 61 62 63 64 65 66 67 68 69  70 71 72 73 74 75 76 77 78 79 80 81 82 83 84 85 86 87 88 8990 91 92 93 94 95 96 97 98 99",

glyphs = (
{
color = 4;
glyphname = A;
lastChange = "2019-02-16 05:39:16 +0000";
layers = (
{
anchors = (
{
name = bottom;
position = "{340, 0}";
},
{
name = btm;
position = "{330, -83}";
},
{
name = ogonek;
position = "{612, 10}";
},
{
name = top;
position = "{341, 830}";
}
);
layerId = "8BC678DE-46B6-4C98-A96E-C0ED61786D32";
paths = (
{
closed = 1;
nodes = (
"326 605 LINE",
"344 664 LINE",
"363 605 LINE",
"575 0 LINE",
"665 0 LINE",
"384 751 LINE",
"303 751 LINE",
"16 0 LINE",
"104 0 LINE"
);
},
{
closed = 1;
nodes = (
"528 204 LINE",
"512 266 LINE",
"160 266 LINE",
"145 204 LINE"
);
}
);
width = 680;
},
{
anchors = (
{
name = bottom;
position = "{344, 0}";
},
{
name = btm;
position = "{332, -83}";
},
{
name = ogonek;
position = "{618, 10}";
},
{
name = top;
position = "{343, 830}";
}
);
layerId = "DB9867C4-88B4-4207-8D32-C8AFE6754240";
paths = (
{
closed = 1;
nodes = (
"326 566 LINE",
"348 636 LINE",
"369 566 LINE",
"559 0 LINE",
"677 0 LINE",
"399 751 LINE",
"294 751 LINE",
"10 0 LINE",
"125 0 LINE"
);
},
{
closed = 1;
nodes = (
"529 188 LINE",
"508 269 LINE",
"167 269 LINE",
"147 188 LINE"
);
}
);
width = 687;
},
{
anchors = (
{
name = bottom;
position = "{347, 0}";
},
{
name = btm;
position = "{332, -83}";
},
{
name = ogonek;
position = "{625, 10}";
},
{
name = top;
position = "{347, 830}";
}
);
layerId = "ADDB461F-7E69-4B45-B56F-E3E322F9570B";
paths = (
{
closed = 1;
nodes = (
"323 524 LINE",
"345 601 LINE",
"366 524 LINE",
"532 0 LINE",
"701 0 LINE",
"424 751 LINE",
"267 751 LINE",
"-7 0 LINE",
"160 0 LINE"
);
},
{
closed = 1;
nodes = (
"528 157 LINE",
"508 269 LINE",
"167 269 LINE",
"146 157 LINE"
);
}
);
width = 694;
},
{
anchors = (
{
name = bottom;
position = "{357, 0}";
},
{
name = btm;
position = "{338, -83}";
},
{
name = ogonek;
position = "{642, 10}";
},
{
name = top;
position = "{357, 830}";
}
);
layerId = "23A20576-2241-481A-AD5B-28E85381F753";
paths = (
{
closed = 1;
nodes = (
"327 501 LINE",
"352 598 LINE",
"376 501 LINE",
"525 0 LINE",
"722 0 LINE",
"461 748 LINE",
"250 748 LINE",
"-9 0 LINE",
"186 0 LINE"
);
},
{
closed = 1;
nodes = (
"535 139 LINE",
"515 269 LINE",
"174 269 LINE",
"153 139 LINE"
);
}
);
width = 713;
}
);
leftKerningGroup = A;
rightKerningGroup = A;
unicode = 0041;
},
{
glyphname = Aogonek;
lastChange = "2019-01-21 06:08:13 +0000";
layers = (
{
components = (
{
name = A;
}
);
layerId = "8BC678DE-46B6-4C98-A96E-C0ED61786D32";
paths = (
{
closed = 1;
nodes = (
"441 -219 OFFCURVE",
"493 -250 OFFCURVE",
"558 -250 CURVE SMOOTH",
"599 -250 OFFCURVE",
"646 -240 OFFCURVE",
"672 -220 CURVE",
"672 -175 LINE",
"646 -188 OFFCURVE",
"619 -194 OFFCURVE",
"594 -195 CURVE SMOOTH",
"553 -195 OFFCURVE",
"521 -182 OFFCURVE",
"521 -137 CURVE",
"520 -77 OFFCURVE",
"604 -22 OFFCURVE",
"654 4 CURVE",
"642 11 LINE",
"587 3 LINE",
"529 -25 OFFCURVE",
"439 -82 OFFCURVE",
"440 -152 CURVE"
);
}
);
width = 680;
},
{
components = (
{
name = A;
}
);
layerId = "DB9867C4-88B4-4207-8D32-C8AFE6754240";
paths = (
{
closed = 1;
nodes = (
"446 -214 OFFCURVE",
"497 -250 OFFCURVE",
"565 -250 CURVE SMOOTH",
"606 -250 OFFCURVE",
"653 -242 OFFCURVE",
"681 -221 CURVE",
"681 -164 LINE",
"659 -172 OFFCURVE",
"635 -178 OFFCURVE",
"613 -178 CURVE SMOOTH",
"579 -178 OFFCURVE",
"551 -168 OFFCURVE",
"550 -126 CURVE",
"549 -79 OFFCURVE",
"606 -27 OFFCURVE",
"668 5 CURVE",
"653 14 LINE",
"580 2 LINE",
"520 -27 OFFCURVE",
"444 -83 OFFCURVE",
"445 -147 CURVE"
);
}
);
width = 687;
},
{
components = (
{
name = A;
}
);
layerId = "ADDB461F-7E69-4B45-B56F-E3E322F9570B";
paths = (
{
closed = 1;
nodes = (
"463 -216 OFFCURVE",
"526 -252 OFFCURVE",
"587 -252 CURVE SMOOTH",
"628 -252 OFFCURVE",
"671 -240 OFFCURVE",
"700 -219 CURVE",
"700 -142 LINE",
"679 -148 OFFCURVE",
"658 -152 OFFCURVE",
"639 -152 CURVE SMOOTH",
"606 -152 OFFCURVE",
"581 -141 OFFCURVE",
"580 -109 CURVE",
"576 -60 OFFCURVE",
"623 -28 OFFCURVE",
"677 6 CURVE",
"625 26 LINE",
"566 0 LINE",
"515 -28 OFFCURVE",
"456 -81 OFFCURVE",
"460 -154 CURVE"
);
}
);
width = 694;
},
{
components = (
{
name = A;
}
);
layerId = "23A20576-2241-481A-AD5B-28E85381F753";
paths = (
{
closed = 1;
nodes = (
"459 -214 OFFCURVE",
"523 -252 OFFCURVE",
"594 -252 CURVE SMOOTH",
"649 -252 OFFCURVE",
"688 -240 OFFCURVE",
"720 -219 CURVE",
"720 -136 LINE",
"702 -142 OFFCURVE",
"684 -146 OFFCURVE",
"667 -146 CURVE SMOOTH",
"632 -146 OFFCURVE",
"608 -135 OFFCURVE",
"606 -103 CURVE",
"603 -57 OFFCURVE",
"647 -22 OFFCURVE",
"697 4 CURVE",
"651 29 LINE",
"573 0 LINE",
"516 -28 OFFCURVE",
"455 -79 OFFCURVE",
"457 -150 CURVE"
);
}
);
width = 713;
}
);
leftKerningGroup = A;
rightKerningGroup = A;
unicode = 0104;
},
{
color = 4;
glyphname = AE;
lastChange = "2019-02-16 05:39:16 +0000";
layers = (
{
anchors = (
{
name = bottom;
position = "{452, 0}";
},
{
name = btm;
position = "{676, -83}";
},
{
name = top;
position = "{498, 830}";
}
);
layerId = "8BC678DE-46B6-4C98-A96E-C0ED61786D32";
paths = (
{
closed = 1;
nodes = (
"65 0 LINE",
"401 702 LINE",
"330 743 LINE",
"-27 0 LINE"
);
},
{
closed = 1;
nodes = (
"330 743 LINE",
"341 688 LINE",
"442 688 LINE",
"410 743 LINE"
);
},
{
closed = 1;
nodes = (
"474 204 LINE",
"459 266 LINE",
"132 266 LINE",
"116 204 LINE"
);
},
{
closed = 1;
nodes = (
"871 0 LINE",
"871 65 LINE",
"492 65 LINE",
"492 351 LINE",
"749 351 LINE",
"749 415 LINE",
"492 415 LINE",
"492 679 LINE",
"835 679 LINE",
"835 743 LINE",
"410 743 LINE",
"410 0 LINE"
);
}
);
width = 903;
},
{
anchors = (
{
name = bottom;
position = "{454, 0}";
},
{
name = btm;
position = "{675, -83}";
},
{
name = top;
position = "{498, 830}";
}
);
layerId = "DB9867C4-88B4-4207-8D32-C8AFE6754240";
paths = (
{
closed = 1;
nodes = (
"84 0 LINE",
"412 689 LINE",
"318 743 LINE",
"-36 0 LINE"
);
},
{
closed = 1;
nodes = (
"318 743 LINE",
"333 672 LINE",
"451 672 LINE",
"409 743 LINE"
);
},
{
closed = 1;
nodes = (
"495 188 LINE",
"474 269 LINE",
"133 269 LINE",
"113 188 LINE"
);
},
{
closed = 1;
nodes = (
"872 0 LINE",
"872 85 LINE",
"518 85 LINE",
"518 341 LINE",
"751 341 LINE",
"751 425 LINE",
"518 425 LINE",
"518 659 LINE",
"836 659 LINE",
"836 743 LINE",
"409 743 LINE",
"409 0 LINE"
);
}
);
width = 908;
},
{
anchors = (
{
name = bottom;
position = "{474, 0}";
},
{
name = btm;
position = "{686, -83}";
},
{
name = top;
position = "{511, 830}";
}
);
layerId = "ADDB461F-7E69-4B45-B56F-E3E322F9570B";
paths = (
{
closed = 1;
nodes = (
"114 0 LINE",
"440 689 LINE",
"320 743 LINE",
"-54 0 LINE"
);
},
{
closed = 1;
nodes = (
"320 743 LINE",
"335 672 LINE",
"448 672 LINE",
"420 743 LINE"
);
},
{
closed = 1;
nodes = (
"485 184 LINE",
"485 292 LINE",
"149 292 LINE",
"124 184 LINE"
);
},
{
closed = 1;
nodes = (
"905 0 LINE",
"905 123 LINE",
"575 123 LINE",
"575 324 LINE",
"804 324 LINE",
"804 441 LINE",
"575 441 LINE",
"575 624 LINE",
"873 624 LINE",
"873 743 LINE",
"420 743 LINE",
"420 0 LINE"
);
}
);
width = 947;
},
{
anchors = (
{
name = bottom;
position = "{481, 0}";
},
{
name = btm;
position = "{689, -83}";
},
{
name = top;
position = "{516, 830}";
}
);
layerId = "23A20576-2241-481A-AD5B-28E85381F753";
paths = (
{
closed = 1;
nodes = (
"142 0 LINE",
"437 683 LINE",
"294 743 LINE",
"-58 0 LINE"
);
},
{
closed = 1;
nodes = (
"294 743 LINE",
"318 672 LINE",
"448 672 LINE",
"423 743 LINE"
);
},
{
closed = 1;
nodes = (
"509 155 LINE",
"501 283 LINE",
"163 283 LINE",
"140 155 LINE"
);
},
{
closed = 1;
nodes = (
"919 0 LINE",
"919 142 LINE",
"607 142 LINE",
"607 313 LINE",
"824 313 LINE",
"824 449 LINE",
"607 449 LINE",
"607 604 LINE",
"890 604 LINE",
"890 743 LINE",
"423 743 LINE",
"423 0 LINE"
);
}
);
width = 962;
}
);
leftKerningGroup = A;
rightKerningGroup = E;
unicode = 00C6;
},
{
color = 4;
glyphname = B;
lastChange = "2019-02-16 05:39:16 +0000";
layers = (
{
anchors = (
{
name = bottom;
position = "{330, 0}";
},
{
name = btm;
position = "{348, -83}";
},
{
name = top;
position = "{316, 830}";
}
);
layerId = "8BC678DE-46B6-4C98-A96E-C0ED61786D32";
paths = (
{
closed = 1;
nodes = (
"144 0 LINE",
"193 -2 OFFCURVE",
"259 -7 OFFCURVE",
"313 -7 CURVE SMOOTH",
"531 -7 OFFCURVE",
"606 80 OFFCURVE",
"606 221 CURVE SMOOTH",
"606 318 OFFCURVE",
"526 393 OFFCURVE",
"436 397 CURVE",
"523 419 OFFCURVE",
"555 505 OFFCURVE",
"555 576 CURVE SMOOTH",
"555 685 OFFCURVE",
"475 750 OFFCURVE",
"312 750 CURVE SMOOTH",
"244 750 OFFCURVE",
"208 743 OFFCURVE",
"146 743 CURVE",
"101 744 LINE",
"101 0 LINE"
);
},
{
closed = 1;
nodes = (
"183 685 LINE",
"209 689 OFFCURVE",
"269 691 OFFCURVE",
"296 691 CURVE SMOOTH",
"402 691 OFFCURVE",
"475 657 OFFCURVE",
"475 564 CURVE SMOOTH",
"475 475 OFFCURVE",
"429 418 OFFCURVE",
"352 412 CURVE SMOOTH",
"315 412 OFFCURVE",
"214 410 OFFCURVE",
"183 414 CURVE"
);
},
{
closed = 1;
nodes = (
"183 351 LINE",
"208 354 OFFCURVE",
"306 353 OFFCURVE",
"343 353 CURVE SMOOTH",
"455 351 OFFCURVE",
"522 310 OFFCURVE",
"522 211 CURVE SMOOTH",
"522 94 OFFCURVE",
"450 54 OFFCURVE",
"322 54 CURVE SMOOTH",
"277 54 OFFCURVE",
"224 56 OFFCURVE",
"183 63 CURVE"
);
}
);
width = 659;
},
{
anchors = (
{
name = bottom;
position = "{327, 0}";
},
{
name = btm;
position = "{347, -83}";
},
{
name = top;
position = "{322, 830}";
}
);
layerId = "DB9867C4-88B4-4207-8D32-C8AFE6754240";
paths = (
{
closed = 1;
nodes = (
"149 0 LINE",
"184 -2 OFFCURVE",
"252 -7 OFFCURVE",
"309 -7 CURVE SMOOTH",
"540 -7 OFFCURVE",
"609 88 OFFCURVE",
"609 223 CURVE SMOOTH",
"609 314 OFFCURVE",
"537 398 OFFCURVE",
"446 402 CURVE",
"527 423 OFFCURVE",
"559 507 OFFCURVE",
"559 575 CURVE SMOOTH",
"559 681 OFFCURVE",
"483 750 OFFCURVE",
"316 750 CURVE SMOOTH",
"243 750 OFFCURVE",
"194 743 OFFCURVE",
"146 743 CURVE",
"95 744 LINE",
"95 0 LINE"
);
},
{
closed = 1;
nodes = (
"203 667 LINE",
"217 672 OFFCURVE",
"277 674 OFFCURVE",
"296 674 CURVE SMOOTH",
"397 674 OFFCURVE",
"453 637 OFFCURVE",
"453 559 CURVE SMOOTH",
"453 467 OFFCURVE",
"401 421 OFFCURVE",
"338 421 CURVE SMOOTH",
"299 421 OFFCURVE",
"242 417 OFFCURVE",
"203 423 CURVE"
);
},
{
closed = 1;
nodes = (
"203 341 LINE",
"233 345 OFFCURVE",
"287 343 OFFCURVE",
"326 343 CURVE SMOOTH",
"444 343 OFFCURVE",
"499 303 OFFCURVE",
"499 210 CURVE SMOOTH",
"499 106 OFFCURVE",
"432 72 OFFCURVE",
"321 72 CURVE SMOOTH",
"285 72 OFFCURVE",
"220 73 OFFCURVE",
"203 83 CURVE"
);
}
);
width = 654;
},
{
anchors = (
{
name = bottom;
position = "{347, 0}";
},
{
name = btm;
position = "{392, -83}";
},
{
name = top;
position = "{345, 831}";
}
);
layerId = "ADDB461F-7E69-4B45-B56F-E3E322F9570B";
paths = (
{
closed = 1;
nodes = (
"170 0 LINE",
"209 -2 OFFCURVE",
"285 -7 OFFCURVE",
"349 -7 CURVE SMOOTH",
"583 -7 OFFCURVE",
"653 91 OFFCURVE",
"653 225 CURVE SMOOTH",
"653 321 OFFCURVE",
"590 385 OFFCURVE",
"502 395 CURVE",
"573 414 OFFCURVE",
"614 482 OFFCURVE",
"614 563 CURVE SMOOTH",
"614 673 OFFCURVE",
"530 750 OFFCURVE",
"342 750 CURVE SMOOTH",
"267 750 OFFCURVE",
"217 743 OFFCURVE",
"167 743 CURVE",
"92 744 LINE",
"92 0 LINE"
);
},
{
closed = 1;
nodes = (
"246 630 LINE",
"257 635 OFFCURVE",
"308 637 OFFCURVE",
"325 637 CURVE SMOOTH",
"415 637 OFFCURVE",
"466 611 OFFCURVE",
"466 549 CURVE SMOOTH",
"466 465 OFFCURVE",
"429 432 OFFCURVE",
"339 432 CURVE SMOOTH",
"319 432 OFFCURVE",
"266 433 OFFCURVE",
"246 436 CURVE"
);
},
{
closed = 1;
nodes = (
"246 324 LINE",
"260 327 OFFCURVE",
"321 328 OFFCURVE",
"353 328 CURVE SMOOTH",
"452 328 OFFCURVE",
"496 294 OFFCURVE",
"496 218 CURVE SMOOTH",
"496 130 OFFCURVE",
"447 101 OFFCURVE",
"354 101 CURVE SMOOTH",
"322 101 OFFCURVE",
"260 102 OFFCURVE",
"246 113 CURVE"
);
}
);
width = 694;
},
{
anchors = (
{
name = bottom;
position = "{357, 0}";
},
{
name = btm;
position = "{414, -83}";
},
{
name = top;
position = "{354, 831}";
}
);
layerId = "23A20576-2241-481A-AD5B-28E85381F753";
paths = (
{
closed = 1;
nodes = (
"178 0 LINE",
"219 -2 OFFCURVE",
"300 -7 OFFCURVE",
"369 -7 CURVE SMOOTH",
"607 -7 OFFCURVE",
"677 89 OFFCURVE",
"677 225 CURVE SMOOTH",
"677 319 OFFCURVE",
"612 382 OFFCURVE",
"526 393 CURVE",
"601 414 OFFCURVE",
"638 480 OFFCURVE",
"638 559 CURVE SMOOTH",
"638 677 OFFCURVE",
"559 750 OFFCURVE",
"352 750 CURVE SMOOTH",
"276 750 OFFCURVE",
"226 743 OFFCURVE",
"175 743 CURVE",
"84 744 LINE",
"84 0 LINE"
);
},
{
closed = 1;
nodes = (
"269 619 LINE",
"278 624 OFFCURVE",
"319 625 OFFCURVE",
"333 625 CURVE SMOOTH",
"415 625 OFFCURVE",
"460 604 OFFCURVE",
"460 542 CURVE SMOOTH",
"460 464 OFFCURVE",
"420 437 OFFCURVE",
"341 437 CURVE SMOOTH",
"324 437 OFFCURVE",
"285 438 OFFCURVE",
"269 441 CURVE"
);
},
{
closed = 1;
nodes = (
"269 318 LINE",
"281 321 OFFCURVE",
"330 322 OFFCURVE",
"354 322 CURVE SMOOTH",
"448 322 OFFCURVE",
"487 288 OFFCURVE",
"487 224 CURVE SMOOTH",
"487 146 OFFCURVE",
"445 115 OFFCURVE",
"360 115 CURVE SMOOTH",
"330 115 OFFCURVE",
"282 118 OFFCURVE",
"269 126 CURVE"
);
}
);
width = 714;
}
);
leftKerningGroup = H;
rightKerningGroup = B;
unicode = 0042;
},
{
color = 4;
glyphname = C;
lastChange = "2019-02-16 05:39:16 +0000";
layers = (
{
anchors = (
{
name = bottom;
position = "{324, 0}";
},
{
name = btm;
position = "{386, -83}";
},
{
name = top;
position = "{392, 830}";
}
);
layerId = "8BC678DE-46B6-4C98-A96E-C0ED61786D32";
paths = (
{
closed = 1;
nodes = (
"52 143 OFFCURVE",
"184 -8 OFFCURVE",
"388 -8 CURVE SMOOTH",
"494 -8 OFFCURVE",
"541 17 OFFCURVE",
"585 31 CURVE",
"584 102 LINE",
"558 84 OFFCURVE",
"484 58 OFFCURVE",
"392 58 CURVE SMOOTH",
"229 58 OFFCURVE",
"134 193 OFFCURVE",
"134 374 CURVE SMOOTH",
"134 572 OFFCURVE",
"242 684 OFFCURVE",
"396 684 CURVE SMOOTH",
"508 684 OFFCURVE",
"552 657 OFFCURVE",
"574 649 CURVE",
"586 723 LINE",
"556 729 OFFCURVE",
"505 751 OFFCURVE",
"392 751 CURVE SMOOTH",
"206 751 OFFCURVE",
"52 614 OFFCURVE",
"52 368 CURVE SMOOTH"
);
}
);
width = 648;
},
{
anchors = (
{
name = bottom;
position = "{321, 0}";
},
{
name = btm;
position = "{382, -83}";
},
{
name = top;
position = "{388, 830}";
}
);
layerId = "DB9867C4-88B4-4207-8D32-C8AFE6754240";
paths = (
{
closed = 1;
nodes = (
"46 143 OFFCURVE",
"183 -8 OFFCURVE",
"393 -8 CURVE SMOOTH",
"485 -8 OFFCURVE",
"537 14 OFFCURVE",
"580 31 CURVE",
"580 124 LINE",
"554 101 OFFCURVE",
"473 78 OFFCURVE",
"397 78 CURVE SMOOTH",
"246 78 OFFCURVE",
"154 201 OFFCURVE",
"154 375 CURVE SMOOTH",
"154 551 OFFCURVE",
"247 663 OFFCURVE",
"397 663 CURVE SMOOTH",
"509 663 OFFCURVE",
"555 634 OFFCURVE",
"569 626 CURVE",
"585 723 LINE",
"559 729 OFFCURVE",
"503 751 OFFCURVE",
"390 751 CURVE SMOOTH",
"208 751 OFFCURVE",
"46 614 OFFCURVE",
"46 368 CURVE SMOOTH"
);
}
);
width = 641;
},
{
anchors = (
{
name = bottom;
position = "{317, 0}";
},
{
name = btm;
position = "{401, -83}";
},
{
name = top;
position = "{406, 830}";
}
);
layerId = "ADDB461F-7E69-4B45-B56F-E3E322F9570B";
paths = (
{
closed = 1;
nodes = (
"49 145 OFFCURVE",
"191 -8 OFFCURVE",
"420 -8 CURVE SMOOTH",
"510 -8 OFFCURVE",
"564 14 OFFCURVE",
"607 31 CURVE",
"607 159 LINE",
"581 140 OFFCURVE",
"502 112 OFFCURVE",
"435 112 CURVE SMOOTH",
"293 112 OFFCURVE",
"209 225 OFFCURVE",
"209 379 CURVE SMOOTH",
"209 536 OFFCURVE",
"302 628 OFFCURVE",
"423 628 CURVE SMOOTH",
"523 628 OFFCURVE",
"566 600 OFFCURVE",
"593 585 CURVE",
"615 722 LINE",
"568 731 OFFCURVE",
"521 751 OFFCURVE",
"413 751 CURVE SMOOTH",
"210 751 OFFCURVE",
"49 616 OFFCURVE",
"49 370 CURVE SMOOTH"
);
}
);
width = 634;
},
{
anchors = (
{
name = bottom;
position = "{319, 0}";
},
{
name = btm;
position = "{386, -83}";
},
{
name = top;
position = "{410, 830}";
}
);
layerId = "23A20576-2241-481A-AD5B-28E85381F753";
paths = (
{
closed = 1;
nodes = (
"42 140 OFFCURVE",
"178 -8 OFFCURVE",
"424 -8 CURVE SMOOTH",
"511 -8 OFFCURVE",
"568 15 OFFCURVE",
"606 31 CURVE",
"606 184 LINE",
"581 163 OFFCURVE",
"508 136 OFFCURVE",
"445 136 CURVE SMOOTH",
"306 136 OFFCURVE",
"234 234 OFFCURVE",
"234 381 CURVE SMOOTH",
"234 525 OFFCURVE",
"323 604 OFFCURVE",
"437 604 CURVE SMOOTH",
"526 604 OFFCURVE",
"571 575 OFFCURVE",
"592 561 CURVE",
"616 721 LINE",
"571 730 OFFCURVE",
"525 751 OFFCURVE",
"422 751 CURVE SMOOTH",
"209 751 OFFCURVE",
"42 622 OFFCURVE",
"42 370 CURVE SMOOTH"
);
}
);
width = 638;
}
);
leftKerningGroup = O;
rightKerningGroup = C;
unicode = 0043;
},
{
color = 4;
glyphname = D;
lastChange = "2019-02-16 05:39:16 +0000";
layers = (
{
anchors = (
{
name = bottom;
position = "{361, 0}";
},
{
name = btm;
position = "{313, -83}";
},
{
name = center;
position = "{361, 372}";
},
{
name = top;
position = "{348, 830}";
}
);
layerId = "8BC678DE-46B6-4C98-A96E-C0ED61786D32";
paths = (
{
closed = 1;
nodes = (
"104 0 OFFCURVE",
"145 0 OFFCURVE",
"155 -1 CURVE SMOOTH",
"205 -1 OFFCURVE",
"271 -7 OFFCURVE",
"313 -8 CURVE SMOOTH",
"544 -11 OFFCURVE",
"676 149 OFFCURVE",
"676 393 CURVE SMOOTH",
"676 618 OFFCURVE",
"560 750 OFFCURVE",
"324 750 CURVE SMOOTH",
"266 750 OFFCURVE",
"206 744 OFFCURVE",
"159 744 CURVE SMOOTH",
"153 743 OFFCURVE",
"106 743 OFFCURVE",
"101 743 CURVE",
"101 0 LINE"
);
},
{
closed = 1;
nodes = (
"183 683 LINE",
"217 687 OFFCURVE",
"258 690 OFFCURVE",
"305 690 CURVE SMOOTH",
"494 690 OFFCURVE",
"591 599 OFFCURVE",
"590 381 CURVE SMOOTH",
"589 156 OFFCURVE",
"481 56 OFFCURVE",
"325 54 CURVE SMOOTH",
"282 53 OFFCURVE",
"221 57 OFFCURVE",
"183 63 CURVE"
);
}
);
width = 722;
},
{
anchors = (
{
name = bottom;
position = "{360, 0}";
},
{
name = btm;
position = "{320, -83}";
},
{
name = center;
position = "{360, 372}";
},
{
name = top;
position = "{356, 830}";
}
);
layerId = "DB9867C4-88B4-4207-8D32-C8AFE6754240";
paths = (
{
closed = 1;
nodes = (
"109 0 OFFCURVE",
"122 0 OFFCURVE",
"136 0 CURVE SMOOTH",
"189 0 OFFCURVE",
"264 -7 OFFCURVE",
"313 -8 CURVE SMOOTH",
"538 -12 OFFCURVE",
"678 139 OFFCURVE",
"678 393 CURVE SMOOTH",
"678 619 OFFCURVE",
"564 751 OFFCURVE",
"325 751 CURVE SMOOTH",
"263 751 OFFCURVE",
"197 743 OFFCURVE",
"149 743 CURVE SMOOTH",
"131 743 OFFCURVE",
"113 743 OFFCURVE",
"95 743 CURVE",
"95 0 LINE"
);
},
{
closed = 1;
nodes = (
"204 665 LINE",
"226 669 OFFCURVE",
"260 672 OFFCURVE",
"300 672 CURVE SMOOTH",
"475 672 OFFCURVE",
"564 596 OFFCURVE",
"564 376 CURVE SMOOTH",
"564 163 OFFCURVE",
"467 76 OFFCURVE",
"331 73 CURVE SMOOTH",
"289 72 OFFCURVE",
"237 75 OFFCURVE",
"204 82 CURVE"
);
}
);
width = 719;
},
{
anchors = (
{
name = bottom;
position = "{380, 0}";
},
{
name = btm;
position = "{341, -83}";
},
{
name = center;
position = "{380, 372}";
},
{
name = top;
position = "{374, 830}";
}
);
layerId = "ADDB461F-7E69-4B45-B56F-E3E322F9570B";
paths = (
{
closed = 1;
nodes = (
"117 0 OFFCURVE",
"142 0 OFFCURVE",
"167 0 CURVE SMOOTH",
"212 0 OFFCURVE",
"265 -7 OFFCURVE",
"334 -8 CURVE SMOOTH",
"563 -10 OFFCURVE",
"710 138 OFFCURVE",
"710 391 CURVE SMOOTH",
"710 619 OFFCURVE",
"595 751 OFFCURVE",
"346 751 CURVE SMOOTH",
"265 751 OFFCURVE",
"209 743 OFFCURVE",
"166 743 CURVE SMOOTH",
"141 743 OFFCURVE",
"117 743 OFFCURVE",
"92 743 CURVE",
"92 0 LINE"
);
},
{
closed = 1;
nodes = (
"249 627 LINE",
"267 628 OFFCURVE",
"301 634 OFFCURVE",
"331 634 CURVE SMOOTH",
"476 634 OFFCURVE",
"546 568 OFFCURVE",
"546 375 CURVE SMOOTH",
"546 189 OFFCURVE",
"466 112 OFFCURVE",
"348 111 CURVE SMOOTH",
"313 111 OFFCURVE",
"274 113 OFFCURVE",
"249 120 CURVE"
);
}
);
width = 759;
},
{
anchors = (
{
name = bottom;
position = "{381, 0}";
},
{
name = btm;
position = "{356, -83}";
},
{
name = center;
position = "{381, 372}";
},
{
name = top;
position = "{379, 830}";
}
);
layerId = "23A20576-2241-481A-AD5B-28E85381F753";
paths = (
{
closed = 1;
nodes = (
"106 0 OFFCURVE",
"128 0 OFFCURVE",
"150 0 CURVE SMOOTH",
"207 0 OFFCURVE",
"272 -7 OFFCURVE",
"345 -8 CURVE SMOOTH",
"583 -9 OFFCURVE",
"721 137 OFFCURVE",
"721 390 CURVE SMOOTH",
"721 619 OFFCURVE",
"608 751 OFFCURVE",
"356 751 CURVE SMOOTH",
"287 751 OFFCURVE",
"190 743 OFFCURVE",
"153 743 CURVE SMOOTH",
"130 743 OFFCURVE",
"107 743 OFFCURVE",
"84 743 CURVE",
"84 0 LINE"
);
},
{
closed = 1;
nodes = (
"271 610 LINE",
"289 613 OFFCURVE",
"324 617 OFFCURVE",
"349 617 CURVE SMOOTH",
"470 617 OFFCURVE",
"528 553 OFFCURVE",
"528 374 CURVE SMOOTH",
"528 205 OFFCURVE",
"460 130 OFFCURVE",
"356 129 CURVE SMOOTH",
"323 129 OFFCURVE",
"290 131 OFFCURVE",
"271 137 CURVE"
);
}
);
width = 762;
}
);
leftKerningGroup = H;
rightKerningGroup = D;
unicode = 0044;
},
{
color = 4;
glyphname = Eth;
lastChange = "2019-01-21 06:08:13 +0000";
layers = (
{
components = (
{
name = D;
}
);
layerId = "8BC678DE-46B6-4C98-A96E-C0ED61786D32";
paths = (
{
closed = 1;
nodes = (
"395 360 LINE",
"395 416 LINE",
"30 416 LINE",
"30 360 LINE"
);
}
);
width = 722;
},
{
components = (
{
name = D;
}
);
layerId = "DB9867C4-88B4-4207-8D32-C8AFE6754240";
paths = (
{
closed = 1;
nodes = (
"396 352 LINE",
"396 424 LINE",
"32 424 LINE",
"32 352 LINE"
);
}
);
width = 719;
},
{
components = (
{
name = D;
}
);
layerId = "ADDB461F-7E69-4B45-B56F-E3E322F9570B";
paths = (
{
closed = 1;
nodes = (
"413 339 LINE",
"413 437 LINE",
"34 437 LINE",
"34 339 LINE"
);
}
);
width = 759;
},
{
components = (
{
name = D;
}
);
layerId = "23A20576-2241-481A-AD5B-28E85381F753";
paths = (
{
closed = 1;
nodes = (
"415 330 LINE",
"415 446 LINE",
"29 446 LINE",
"29 330 LINE"
);
}
);
width = 762;
}
);
leftKerningGroup = H;
rightKerningGroup = D;
unicode = 00D0;
},
{
color = 4;
glyphname = Dcroat;
lastChange = "2019-01-21 06:08:13 +0000";
layers = (
{
components = (
{
name = D;
}
);
layerId = "8BC678DE-46B6-4C98-A96E-C0ED61786D32";
paths = (
{
closed = 1;
nodes = (
"395 360 LINE",
"395 416 LINE",
"30 416 LINE",
"30 360 LINE"
);
}
);
width = 722;
},
{
components = (
{
name = D;
}
);
layerId = "DB9867C4-88B4-4207-8D32-C8AFE6754240";
paths = (
{
closed = 1;
nodes = (
"396 352 LINE",
"396 424 LINE",
"32 424 LINE",
"32 352 LINE"
);
}
);
width = 719;
},
{
components = (
{
name = D;
}
);
layerId = "ADDB461F-7E69-4B45-B56F-E3E322F9570B";
paths = (
{
closed = 1;
nodes = (
"413 339 LINE",
"413 437 LINE",
"34 437 LINE",
"34 339 LINE"
);
}
);
width = 759;
},
{
components = (
{
name = D;
}
);
layerId = "23A20576-2241-481A-AD5B-28E85381F753";
paths = (
{
closed = 1;
nodes = (
"415 330 LINE",
"415 446 LINE",
"29 446 LINE",
"29 330 LINE"
);
}
);
width = 762;
}
);
leftKerningGroup = H;
rightKerningGroup = D;
unicode = 0110;
},
{
glyphname = E;
lastChange = "2019-02-16 05:39:16 +0000";
layers = (
{
anchors = (
{
name = bottom;
position = "{294, 0}";
},
{
name = btm;
position = "{327, -83}";
},
{
name = ogonek;
position = "{544, 10}";
},
{
name = top;
position = "{309, 830}";
},
{
name = topleft;
position = "{20, 743}";
}
);
layerId = "8BC678DE-46B6-4C98-A96E-C0ED61786D32";
paths = (
{
closed = 1;
nodes = (
"555 0 LINE",
"555 65 LINE",
"183 65 LINE",
"183 352 LINE",
"429 352 LINE",
"429 416 LINE",
"183 416 LINE",
"183 679 LINE",
"520 679 LINE",
"520 743 LINE",
"101 743 LINE",
"101 0 LINE"
);
}
);
width = 587;
},
{
anchors = (
{
name = bottom;
position = "{297, 0}";
},
{
name = btm;
position = "{327, -83}";
},
{
name = ogonek;
position = "{544, 10}";
},
{
name = top;
position = "{321, 830}";
},
{
name = topleft;
position = "{20, 743}";
}
);
layerId = "DB9867C4-88B4-4207-8D32-C8AFE6754240";
paths = (
{
closed = 1;
nodes = (
"558 0 LINE",
"558 85 LINE",
"204 85 LINE",
"204 341 LINE",
"438 341 LINE",
"438 425 LINE",
"204 425 LINE",
"204 659 LINE",
"522 659 LINE",
"522 743 LINE",
"95 743 LINE",
"95 0 LINE"
);
}
);
width = 594;
},
{
anchors = (
{
name = bottom;
position = "{306, 0}";
},
{
name = btm;
position = "{335, -83}";
},
{
name = ogonek;
position = "{544, 10}";
},
{
name = top;
position = "{322, 830}";
},
{
name = topleft;
position = "{20, 743}";
}
);
layerId = "ADDB461F-7E69-4B45-B56F-E3E322F9570B";
paths = (
{
closed = 1;
nodes = (
"577 0 LINE",
"577 123 LINE",
"247 123 LINE",
"247 322 LINE",
"476 322 LINE",
"476 439 LINE",
"247 439 LINE",
"247 624 LINE",
"545 624 LINE",
"545 743 LINE",
"92 743 LINE",
"92 0 LINE"
);
}
);
width = 612;
},
{
anchors = (
{
name = bottom;
position = "{310, 0}";
},
{
name = btm;
position = "{333, -83}";
},
{
name = ogonek;
position = "{544, 10}";
},
{
name = top;
position = "{322, 830}";
},
{
name = topleft;
position = "{20, 743}";
}
);
layerId = "23A20576-2241-481A-AD5B-28E85381F753";
paths = (
{
closed = 1;
nodes = (
"583 0 LINE",
"583 142 LINE",
"269 142 LINE",
"269 312 LINE",
"489 312 LINE",
"489 447 LINE",
"269 447 LINE",
"269 604 LINE",
"554 604 LINE",
"554 743 LINE",
"84 743 LINE",
"84 0 LINE"
);
}
);
width = 620;
}
);
leftKerningGroup = H;
rightKerningGroup = E;
unicode = 0045;
},
{
color = 4;
glyphname = Ezh;
lastChange = "2019-02-16 05:39:16 +0000";
layers = (
{
anchors = (
{
name = bottom;
position = "{296, 0}";
},
{
name = top;
position = "{295, 830}";
}
);
background = {
components = (
{
name = E;
}
);
};
layerId = "23A20576-2241-481A-AD5B-28E85381F753";
paths = (
{
closed = 1;
nodes = (
"379 -7 OFFCURVE",
"518 77 OFFCURVE",
"518 236 CURVE SMOOTH",
"518 333 OFFCURVE",
"468 401 OFFCURVE",
"332 414 CURVE",
"507 579 LINE",
"506 743 LINE",
"78 743 LINE",
"77 604 LINE",
"356 604 LINE",
"317 573 LINE",
"195 447 LINE",
"196 318 LINE",
"224 334 LINE",
"314 334 OFFCURVE",
"365 311 OFFCURVE",
"365 246 CURVE SMOOTH",
"365 187 OFFCURVE",
"326 115 OFFCURVE",
"181 115 CURVE SMOOTH",
"160 115 OFFCURVE",
"98 120 OFFCURVE",
"70 125 CURVE",
"71 4 LINE",
"106 -1 OFFCURVE",
"164 -7 OFFCURVE",
"191 -7 CURVE SMOOTH"
);
}
);
width = 592;
},
{
anchors = (
{
name = bottom;
position = "{279, 0}";
},
{
name = top;
position = "{271, 830}";
}
);
background = {
components = (
{
name = E;
}
);
};
layerId = "ADDB461F-7E69-4B45-B56F-E3E322F9570B";
paths = (
{
closed = 1;
nodes = (
"396 -7 OFFCURVE",
"486 107 OFFCURVE",
"486 245 CURVE SMOOTH",
"486 331 OFFCURVE",
"432 414 OFFCURVE",
"283 424 CURVE",
"476 633 LINE",
"478 743 LINE",
"55 743 LINE",
"55 624 LINE",
"339 624 LINE",
"298 589 LINE",
"160 442 LINE",
"165 338 LINE",
"200 361 LINE",
"267 363 OFFCURVE",
"334 322 OFFCURVE",
"334 240 CURVE SMOOTH",
"334 155 OFFCURVE",
"293 99 OFFCURVE",
"148 99 CURVE SMOOTH",
"127 99 OFFCURVE",
"101 101 OFFCURVE",
"73 104 CURVE",
"74 -1 LINE",
"110 -4 OFFCURVE",
"140 -7 OFFCURVE",
"167 -7 CURVE SMOOTH"
);
}
);
width = 557;
},
{
anchors = (
{
name = bottom;
position = "{278, 0}";
},
{
name = top;
position = "{285, 830}";
}
);
background = {
components = (
{
name = E;
}
);
};
layerId = "DB9867C4-88B4-4207-8D32-C8AFE6754240";
paths = (
{
closed = 1;
nodes = (
"404 -7 OFFCURVE",
"493 100 OFFCURVE",
"493 232 CURVE SMOOTH",
"493 309 OFFCURVE",
"432 419 OFFCURVE",
"282 419 CURVE",
"475 663 LINE",
"477 743 LINE",
"87 743 LINE",
"87 659 LINE",
"373 659 LINE",
"316 594 LINE",
"187 425 LINE",
"188 328 LINE",
"225 364 LINE",
"303 367 OFFCURVE",
"385 327 OFFCURVE",
"385 226 CURVE SMOOTH",
"385 115 OFFCURVE",
"314 73 OFFCURVE",
"178 73 CURVE SMOOTH",
"148 73 OFFCURVE",
"108 76 OFFCURVE",
"80 79 CURVE",
"82 -1 LINE",
"118 -4 OFFCURVE",
"148 -7 OFFCURVE",
"184 -7 CURVE SMOOTH"
);
}
);
width = 555;
},
{
anchors = (
{
name = bottom;
position = "{278, 0}";
},
{
name = top;
position = "{285, 830}";
}
);
background = {
components = (
{
name = E;
}
);
};
layerId = "8BC678DE-46B6-4C98-A96E-C0ED61786D32";
paths = (
{
closed = 1;
nodes = (
"353 -7 OFFCURVE",
"487 69 OFFCURVE",
"487 223 CURVE SMOOTH",
"487 322 OFFCURVE",
"401 420 OFFCURVE",
"241 403 CURVE",
"465 668 LINE",
"467 743 LINE",
"85 743 LINE",
"85 679 LINE",
"398 679 LINE",
"346 632 LINE",
"144 386 LINE",
"182 342 LINE",
"199 354 LINE",
"320 365 OFFCURVE",
"406 312 OFFCURVE",
"406 221 CURVE SMOOTH",
"406 122 OFFCURVE",
"323 56 OFFCURVE",
"202 56 CURVE SMOOTH",
"155 56 OFFCURVE",
"111 58 OFFCURVE",
"82 64 CURVE",
"81 5 LINE",
"117 -3 OFFCURVE",
"148 -7 OFFCURVE",
"213 -7 CURVE SMOOTH"
);
}
);
width = 555;
}
);
unicode = 01B7;
},
{
color = 4;
glyphname = F;
lastChange = "2019-02-16 05:39:16 +0000";
layers = (
{
anchors = (
{
name = bottom;
position = "{265, 0}";
},
{
name = btm;
position = "{340, -83}";
},
{
name = top;
position = "{325, 830}";
}
);
layerId = "8BC678DE-46B6-4C98-A96E-C0ED61786D32";
paths = (
{
closed = 1;
nodes = (
"183 0 LINE",
"183 341 LINE",
"432 341 LINE",
"432 405 LINE",
"183 405 LINE",
"183 679 LINE",
"516 679 LINE",
"516 743 LINE",
"101 743 LINE",
"101 0 LINE"
);
}
);
width = 530;
},
{
anchors = (
{
name = bottom;
position = "{265, 0}";
},
{
name = btm;
position = "{334, -83}";
},
{
name = top;
position = "{330, 830}";
}
);
layerId = "DB9867C4-88B4-4207-8D32-C8AFE6754240";
paths = (
{
closed = 1;
nodes = (
"204 0 LINE",
"204 332 LINE",
"442 332 LINE",
"442 416 LINE",
"204 416 LINE",
"204 659 LINE",
"521 659 LINE",
"521 743 LINE",
"95 743 LINE",
"95 0 LINE"
);
}
);
width = 529;
},
{
anchors = (
{
name = bottom;
position = "{280, 0}";
},
{
name = btm;
position = "{332, -83}";
},
{
name = top;
position = "{332, 831}";
}
);
layerId = "ADDB461F-7E69-4B45-B56F-E3E322F9570B";
paths = (
{
closed = 1;
nodes = (
"249 0 LINE",
"249 310 LINE",
"465 310 LINE",
"465 429 LINE",
"249 429 LINE",
"249 624 LINE",
"542 624 LINE",
"542 743 LINE",
"92 743 LINE",
"92 0 LINE"
);
}
);
width = 559;
},
{
anchors = (
{
name = bottom;
position = "{284, 0}";
},
{
name = btm;
position = "{324, -83}";
},
{
name = top;
position = "{328, 831}";
}
);
layerId = "23A20576-2241-481A-AD5B-28E85381F753";
paths = (
{
closed = 1;
nodes = (
"270 0 LINE",
"270 289 LINE",
"481 289 LINE",
"481 427 LINE",
"270 427 LINE",
"270 604 LINE",
"548 604 LINE",
"548 743 LINE",
"84 743 LINE",
"84 0 LINE"
);
}
);
width = 568;
}
);
leftKerningGroup = H;
rightKerningGroup = F;
unicode = 0046;
},
{
color = 4;
glyphname = G;
lastChange = "2019-02-16 05:39:16 +0000";
layers = (
{
anchors = (
{
name = bottom;
position = "{352, 0}";
},
{
name = btm;
position = "{395, -83}";
},
{
name = top;
position = "{399, 830}";
}
);
layerId = "8BC678DE-46B6-4C98-A96E-C0ED61786D32";
paths = (
{
closed = 1;
nodes = (
"54 152 OFFCURVE",
"179 -8 OFFCURVE",
"392 -8 CURVE SMOOTH",
"542 -8 OFFCURVE",
"604 42 OFFCURVE",
"645 44 CURVE",
"645 366 LINE",
"411 366 LINE",
"411 307 LINE",
"588 301 LINE",
"565 317 LINE",
"565 88 LINE",
"537 74 OFFCURVE",
"470 56 OFFCURVE",
"391 56 CURVE SMOOTH",
"229 56 OFFCURVE",
"140 190 OFFCURVE",
"140 376 CURVE SMOOTH",
"140 579 OFFCURVE",
"254 686 OFFCURVE",
"393 686 CURVE SMOOTH",
"497 686 OFFCURVE",
"558 666 OFFCURVE",
"600 647 CURVE",
"603 721 LINE",
"545 732 OFFCURVE",
"504 751 OFFCURVE",
"398 751 CURVE SMOOTH",
"206 751 OFFCURVE",
"54 620 OFFCURVE",
"54 366 CURVE SMOOTH"
);
}
);
width = 704;
},
{
anchors = (
{
name = bottom;
position = "{350, 0}";
},
{
name = btm;
position = "{393, -83}";
},
{
name = top;
position = "{394, 830}";
}
);
layerId = "DB9867C4-88B4-4207-8D32-C8AFE6754240";
paths = (
{
closed = 1;
nodes = (
"48 153 OFFCURVE",
"173 -8 OFFCURVE",
"393 -8 CURVE SMOOTH",
"543 -8 OFFCURVE",
"600 43 OFFCURVE",
"643 46 CURVE",
"643 372 LINE",
"403 372 LINE",
"403 293 LINE",
"568 286 LINE",
"538 306 LINE",
"538 103 LINE",
"510 84 OFFCURVE",
"444 75 OFFCURVE",
"391 75 CURVE SMOOTH",
"234 75 OFFCURVE",
"161 209 OFFCURVE",
"161 381 CURVE SMOOTH",
"161 561 OFFCURVE",
"256 666 OFFCURVE",
"386 666 CURVE SMOOTH",
"495 666 OFFCURVE",
"548 648 OFFCURVE",
"596 624 CURVE",
"601 722 LINE",
"536 734 OFFCURVE",
"504 751 OFFCURVE",
"393 751 CURVE SMOOTH",
"201 751 OFFCURVE",
"48 623 OFFCURVE",
"48 368 CURVE SMOOTH"
);
}
);
width = 700;
},
{
anchors = (
{
name = bottom;
position = "{365, 0}";
},
{
name = btm;
position = "{399, -83}";
},
{
name = top;
position = "{411, 831}";
}
);
layerId = "ADDB461F-7E69-4B45-B56F-E3E322F9570B";
paths = (
{
closed = 1;
nodes = (
"49 140 OFFCURVE",
"178 -8 OFFCURVE",
"404 -8 CURVE SMOOTH",
"563 -8 OFFCURVE",
"625 42 OFFCURVE",
"670 44 CURVE",
"670 400 LINE",
"409 400 LINE",
"409 285 LINE",
"547 278 LINE",
"522 299 LINE",
"522 130 LINE",
"494 119 OFFCURVE",
"456 111 OFFCURVE",
"398 111 CURVE SMOOTH",
"269 111 OFFCURVE",
"210 231 OFFCURVE",
"210 381 CURVE SMOOTH",
"210 536 OFFCURVE",
"291 628 OFFCURVE",
"420 628 CURVE SMOOTH",
"528 628 OFFCURVE",
"578 611 OFFCURVE",
"625 588 CURVE",
"629 722 LINE",
"564 734 OFFCURVE",
"532 751 OFFCURVE",
"419 751 CURVE SMOOTH",
"211 751 OFFCURVE",
"49 634 OFFCURVE",
"49 368 CURVE SMOOTH"
);
}
);
width = 729;
},
{
anchors = (
{
name = bottom;
position = "{368, 0}";
},
{
name = btm;
position = "{394, -83}";
},
{
name = top;
position = "{411, 831}";
}
);
layerId = "23A20576-2241-481A-AD5B-28E85381F753";
paths = (
{
closed = 1;
nodes = (
"42 131 OFFCURVE",
"184 -8 OFFCURVE",
"405 -8 CURVE SMOOTH",
"574 -8 OFFCURVE",
"622 40 OFFCURVE",
"680 42 CURVE",
"680 417 LINE",
"404 417 LINE",
"404 284 LINE",
"528 275 LINE",
"510 297 LINE",
"510 146 LINE",
"486 137 OFFCURVE",
"454 131 OFFCURVE",
"402 131 CURVE SMOOTH",
"291 131 OFFCURVE",
"231 237 OFFCURVE",
"231 381 CURVE SMOOTH",
"231 521 OFFCURVE",
"305 605 OFFCURVE",
"434 605 CURVE SMOOTH",
"533 605 OFFCURVE",
"596 586 OFFCURVE",
"635 566 CURVE",
"640 722 LINE",
"583 732 OFFCURVE",
"535 751 OFFCURVE",
"426 751 CURVE SMOOTH",
"211 751 OFFCURVE",
"42 643 OFFCURVE",
"42 368 CURVE SMOOTH"
);
}
);
width = 736;
}
);
leftKerningGroup = O;
rightKerningGroup = G;
unicode = 0047;
},
{
color = 4;
glyphname = H;
lastChange = "2019-02-16 05:39:16 +0000";
layers = (
{
anchors = (
{
name = bottom;
position = "{377, 0}";
},
{
name = btm;
position = "{375, -83}";
},
{
name = center;
position = "{377, 372}";
},
{
name = top;
position = "{377, 830}";
},
{
name = topleft;
position = "{20, 743}";
}
);
layerId = "8BC678DE-46B6-4C98-A96E-C0ED61786D32";
paths = (
{
closed = 1;
nodes = (
"183 0 LINE",
"183 347 LINE",
"570 347 LINE",
"570 0 LINE",
"652 0 LINE",
"652 743 LINE",
"570 743 LINE",
"570 410 LINE",
"183 410 LINE",
"183 743 LINE",
"101 743 LINE",
"101 0 LINE"
);
}
);
width = 753;
},
{
anchors = (
{
name = bottom;
position = "{379, 0}";
},
{
name = btm;
position = "{376, -83}";
},
{
name = center;
position = "{379, 372}";
},
{
name = top;
position = "{379, 830}";
},
{
name = topleft;
position = "{20, 743}";
}
);
layerId = "DB9867C4-88B4-4207-8D32-C8AFE6754240";
paths = (
{
closed = 1;
nodes = (
"204 0 LINE",
"204 333 LINE",
"554 333 LINE",
"554 0 LINE",
"663 0 LINE",
"663 743 LINE",
"554 743 LINE",
"554 417 LINE",
"204 417 LINE",
"204 743 LINE",
"95 743 LINE",
"95 0 LINE"
);
}
);
width = 758;
},
{
anchors = (
{
name = bottom;
position = "{391, 0}";
},
{
name = btm;
position = "{380, -83}";
},
{
name = center;
position = "{391, 372}";
},
{
name = top;
position = "{391, 830}";
},
{
name = topleft;
position = "{20, 743}";
}
);
layerId = "ADDB461F-7E69-4B45-B56F-E3E322F9570B";
paths = (
{
closed = 1;
nodes = (
"247 0 LINE",
"247 318 LINE",
"537 318 LINE",
"537 0 LINE",
"690 0 LINE",
"690 743 LINE",
"537 743 LINE",
"537 435 LINE",
"247 435 LINE",
"247 743 LINE",
"92 743 LINE",
"92 0 LINE"
);
}
);
width = 782;
},
{
anchors = (
{
name = bottom;
position = "{398, 0}";
},
{
name = btm;
position = "{399, -83}";
},
{
name = center;
position = "{398, 372}";
},
{
name = top;
position = "{398, 830}";
},
{
name = topleft;
position = "{20, 743}";
}
);
layerId = "23A20576-2241-481A-AD5B-28E85381F753";
paths = (
{
closed = 1;
nodes = (
"271 0 LINE",
"271 308 LINE",
"526 308 LINE",
"526 0 LINE",
"712 0 LINE",
"712 743 LINE",
"526 743 LINE",
"526 442 LINE",
"271 442 LINE",
"271 743 LINE",
"84 743 LINE",
"84 0 LINE"
);
}
);
width = 796;
}
);
leftKerningGroup = H;
rightKerningGroup = H;
unicode = 0048;
},
{
color = 4;
glyphname = Hbar;
lastChange = "2019-01-21 06:08:13 +0000";
layers = (
{
layerId = "8BC678DE-46B6-4C98-A96E-C0ED61786D32";
paths = (
{
closed = 1;
nodes = (
"183 0 LINE",
"183 343 LINE",
"574 343 LINE",
"574 0 LINE",
"656 0 LINE",
"656 743 LINE",
"574 743 LINE",
"574 407 LINE",
"183 407 LINE",
"183 743 LINE",
"101 743 LINE",
"101 0 LINE"
);
},
{
closed = 1;
nodes = (
"761 530 LINE",
"761 583 LINE",
"5 583 LINE",
"5 530 LINE"
);
}
);
width = 757;
},
{
layerId = "DB9867C4-88B4-4207-8D32-C8AFE6754240";
paths = (
{
closed = 1;
nodes = (
"204 0 LINE",
"204 329 LINE",
"560 329 LINE",
"560 0 LINE",
"668 0 LINE",
"668 743 LINE",
"560 743 LINE",
"560 413 LINE",
"204 413 LINE",
"204 743 LINE",
"95 743 LINE",
"95 0 LINE"
);
},
{
closed = 1;
nodes = (
"761 520 LINE",
"761 589 LINE",
"4 589 LINE",
"4 520 LINE"
);
}
);
width = 763;
},
{
layerId = "ADDB461F-7E69-4B45-B56F-E3E322F9570B";
paths = (
{
closed = 1;
nodes = (
"249 0 LINE",
"249 303 LINE",
"542 303 LINE",
"542 0 LINE",
"700 0 LINE",
"700 743 LINE",
"542 743 LINE",
"542 417 LINE",
"249 417 LINE",
"249 743 LINE",
"92 743 LINE",
"92 0 LINE"
);
},
{
closed = 1;
nodes = (
"781 510 LINE",
"781 604 LINE",
"12 604 LINE",
"12 510 LINE"
);
}
);
width = 792;
},
{
layerId = "23A20576-2241-481A-AD5B-28E85381F753";
paths = (
{
closed = 1;
nodes = (
"272 0 LINE",
"272 280 LINE",
"530 280 LINE",
"530 0 LINE",
"718 0 LINE",
"718 743 LINE",
"530 743 LINE",
"530 410 LINE",
"272 410 LINE",
"272 743 LINE",
"84 743 LINE",
"84 0 LINE"
);
},
{
closed = 1;
nodes = (
"790 505 LINE",
"790 613 LINE",
"14 613 LINE",
"14 505 LINE"
);
}
);
width = 802;
}
);
leftKerningGroup = H;
rightKerningGroup = H;
unicode = 0126;
},
{
color = 4;
glyphname = I;
lastChange = "2019-02-16 05:39:16 +0000";
layers = (
{
anchors = (
{
name = bottom;
position = "{150, 0}";
},
{
name = btm;
position = "{152, -83}";
},
{
name = ogonek;
position = "{250, 10}";
},
{
name = top;
position = "{150, 830}";
},
{
name = topleft;
position = "{20, 743}";
}
);
layerId = "8BC678DE-46B6-4C98-A96E-C0ED61786D32";
paths = (
{
closed = 1;
nodes = (
"191 0 LINE",
"191 743 LINE",
"108 743 LINE",
"108 0 LINE"
);
}
);
width = 299;
},
{
anchors = (
{
name = bottom;
position = "{157, 0}";
},
{
name = btm;
position = "{160, -83}";
},
{
name = ogonek;
position = "{260, 10}";
},
{
name = top;
position = "{157, 830}";
},
{
name = topleft;
position = "{20, 743}";
}
);
layerId = "DB9867C4-88B4-4207-8D32-C8AFE6754240";
paths = (
{
closed = 1;
nodes = (
"211 0 LINE",
"211 743 LINE",
"101 743 LINE",
"101 0 LINE"
);
}
);
width = 313;
},
{
anchors = (
{
name = bottom;
position = "{177, 0}";
},
{
name = btm;
position = "{178, -83}";
},
{
name = ogonek;
position = "{258, 10}";
},
{
name = top;
position = "{176, 830}";
},
{
name = topleft;
position = "{20, 743}";
}
);
layerId = "ADDB461F-7E69-4B45-B56F-E3E322F9570B";
paths = (
{
closed = 1;
nodes = (
"254 0 LINE",
"254 743 LINE",
"98 743 LINE",
"98 0 LINE"
);
}
);
width = 353;
},
{
anchors = (
{
name = bottom;
position = "{184, 0}";
},
{
name = btm;
position = "{184, -83}";
},
{
name = ogonek;
position = "{258, 10}";
},
{
name = top;
position = "{185, 830}";
},
{
name = topleft;
position = "{20, 743}";
}
);
layerId = "23A20576-2241-481A-AD5B-28E85381F753";
paths = (
{
closed = 1;
nodes = (
"278 0 LINE",
"278 743 LINE",
"90 743 LINE",
"90 0 LINE"
);
}
);
width = 368;
}
);
leftKerningGroup = I;
rightKerningGroup = I;
unicode = 0049;
},
{
color = 4;
glyphname = J;
lastChange = "2019-02-16 05:39:16 +0000";
layers = (
{
anchors = (
{
name = bottom;
position = "{170, 0}";
},
{
name = btm;
position = "{137, -83}";
},
{
name = top;
position = "{184, 830}";
}
);
layerId = "8BC678DE-46B6-4C98-A96E-C0ED61786D32";
paths = (
{
closed = 1;
nodes = (
"92 -150 OFFCURVE",
"196 -87 OFFCURVE",
"218 32 CURVE SMOOTH",
"229 97 OFFCURVE",
"227 176 OFFCURVE",
"227 262 CURVE SMOOTH",
"227 743 LINE",
"143 743 LINE",
"143 271 LINE SMOOTH",
"143 168 OFFCURVE",
"144 73 OFFCURVE",
"126 15 CURVE SMOOTH",
"105 -58 OFFCURVE",
"42 -102 OFFCURVE",
"-19 -119 CURVE",
"7 -162 LINE"
);
}
);
width = 339;
},
{
anchors = (
{
name = bottom;
position = "{174, 0}";
},
{
name = btm;
position = "{131, -83}";
},
{
name = top;
position = "{184, 830}";
}
);
layerId = "DB9867C4-88B4-4207-8D32-C8AFE6754240";
paths = (
{
closed = 1;
nodes = (
"95 -149 OFFCURVE",
"209 -85 OFFCURVE",
"232 42 CURVE SMOOTH",
"245 113 OFFCURVE",
"241 202 OFFCURVE",
"241 299 CURVE SMOOTH",
"241 743 LINE",
"131 743 LINE",
"131 297 LINE SMOOTH",
"131 193 OFFCURVE",
"131 91 OFFCURVE",
"115 32 CURVE SMOOTH",
"94 -44 OFFCURVE",
"31 -86 OFFCURVE",
"-21 -105 CURVE",
"13 -162 LINE"
);
}
);
width = 348;
},
{
anchors = (
{
name = bottom;
position = "{195, 0}";
},
{
name = btm;
position = "{135, -83}";
},
{
name = top;
position = "{211, 831}";
}
);
layerId = "ADDB461F-7E69-4B45-B56F-E3E322F9570B";
paths = (
{
closed = 1;
nodes = (
"116 -159 OFFCURVE",
"257 -93 OFFCURVE",
"283 44 CURVE SMOOTH",
"297 115 OFFCURVE",
"292 202 OFFCURVE",
"292 299 CURVE SMOOTH",
"292 743 LINE",
"136 743 LINE",
"136 297 LINE SMOOTH",
"136 196 OFFCURVE",
"134 113 OFFCURVE",
"121 57 CURVE SMOOTH",
"102 -22 OFFCURVE",
"46 -61 OFFCURVE",
"-5 -80 CURVE",
"33 -162 LINE"
);
}
);
width = 390;
},
{
anchors = (
{
name = bottom;
position = "{196, 0}";
},
{
name = btm;
position = "{115, -83}";
},
{
name = top;
position = "{206, 831}";
}
);
layerId = "23A20576-2241-481A-AD5B-28E85381F753";
paths = (
{
closed = 1;
nodes = (
"107 -166 OFFCURVE",
"266 -98 OFFCURVE",
"294 46 CURVE SMOOTH",
"308 116 OFFCURVE",
"303 202 OFFCURVE",
"303 299 CURVE SMOOTH",
"303 743 LINE",
"116 743 LINE",
"116 297 LINE SMOOTH",
"116 170 OFFCURVE",
"115 106 OFFCURVE",
"100 54 CURVE SMOOTH",
"80 -19 OFFCURVE",
"31 -50 OFFCURVE",
"-17 -69 CURVE",
"23 -162 LINE"
);
}
);
width = 391;
}
);
leftKerningGroup = J;
rightKerningGroup = J;
unicode = 004A;
},
{
color = 4;
glyphname = K;
lastChange = "2019-02-16 05:39:16 +0000";
layers = (
{
anchors = (
{
name = bottom;
position = "{333, 0}";
},
{
name = btm;
position = "{336, -83}";
},
{
name = top;
position = "{329, 830}";
}
);
layerId = "8BC678DE-46B6-4C98-A96E-C0ED61786D32";
paths = (
{
closed = 1;
nodes = (
"183 0 LINE",
"183 286 LINE",
"163 215 LINE",
"307 381 LINE",
"316 392 LINE",
"611 743 LINE",
"513 743 LINE",
"183 342 LINE",
"183 743 LINE",
"101 743 LINE",
"101 0 LINE"
);
},
{
closed = 1;
nodes = (
"515 25 OFFCURVE",
"520 12 OFFCURVE",
"528 0 CURVE",
"624 0 LINE",
"621 5 OFFCURVE",
"594 49 OFFCURVE",
"591 54 CURVE",
"528 165 OFFCURVE",
"375 380 OFFCURVE",
"337 443 CURVE",
"308 409 LINE",
"279 394 LINE",
"331 310 OFFCURVE",
"442 153 OFFCURVE",
"498 55 CURVE SMOOTH"
);
}
);
width = 666;
},
{
anchors = (
{
name = bottom;
position = "{335, 0}";
},
{
name = btm;
position = "{338, -83}";
},
{
name = top;
position = "{338, 830}";
}
);
layerId = "DB9867C4-88B4-4207-8D32-C8AFE6754240";
paths = (
{
closed = 1;
nodes = (
"204 0 LINE",
"204 297 LINE",
"177 204 LINE",
"312 360 LINE",
"324 375 LINE",
"626 743 LINE",
"498 743 LINE",
"204 370 LINE",
"204 743 LINE",
"95 743 LINE",
"95 0 LINE"
);
},
{
closed = 1;
nodes = (
"498 25 OFFCURVE",
"501 13 OFFCURVE",
"510 0 CURVE",
"636 0 LINE",
"625 18 OFFCURVE",
"615 36 OFFCURVE",
"604 54 CURVE",
"539 169 OFFCURVE",
"384 382 OFFCURVE",
"352 443 CURVE",
"313 397 LINE",
"275 377 LINE",
"326 291 OFFCURVE",
"426 154 OFFCURVE",
"480 55 CURVE SMOOTH"
);
}
);
width = 669;
},
{
anchors = (
{
name = bottom;
position = "{353, 0}";
},
{
name = btm;
position = "{364, -83}";
},
{
name = top;
position = "{364, 831}";
}
);
layerId = "ADDB461F-7E69-4B45-B56F-E3E322F9570B";
paths = (
{
closed = 1;
nodes = (
"247 0 LINE",
"247 321 LINE",
"225 204 LINE",
"354 349 LINE",
"380 368 LINE",
"679 743 LINE",
"508 743 LINE",
"247 414 LINE",
"247 743 LINE",
"92 743 LINE",
"92 0 LINE"
);
},
{
closed = 1;
nodes = (
"502 25 OFFCURVE",
"507 13 OFFCURVE",
"516 0 CURVE",
"689 0 LINE",
"678 18 OFFCURVE",
"668 36 OFFCURVE",
"657 54 CURVE",
"591 168 OFFCURVE",
"449 402 OFFCURVE",
"417 444 CURVE",
"364 389 LINE",
"313 332 LINE",
"363 260 OFFCURVE",
"431 154 OFFCURVE",
"485 55 CURVE SMOOTH"
);
}
);
width = 705;
},
{
anchors = (
{
name = bottom;
position = "{359, 0}";
},
{
name = btm;
position = "{375, -83}";
},
{
name = top;
position = "{375, 831}";
}
);
layerId = "23A20576-2241-481A-AD5B-28E85381F753";
paths = (
{
closed = 1;
nodes = (
"270 0 LINE",
"270 297 LINE",
"250 187 LINE",
"385 348 LINE",
"428 381 LINE",
"703 743 LINE",
"501 743 LINE",
"270 430 LINE",
"270 743 LINE",
"84 743 LINE",
"84 0 LINE"
);
},
{
closed = 1;
nodes = (
"492 28 OFFCURVE",
"499 13 OFFCURVE",
"507 0 CURVE",
"716 0 LINE",
"705 18 OFFCURVE",
"695 36 OFFCURVE",
"684 54 CURVE",
"608 184 OFFCURVE",
"492 385 OFFCURVE",
"444 444 CURVE",
"391 384 LINE",
"324 311 LINE",
"376 235 OFFCURVE",
"426 153 OFFCURVE",
"476 59 CURVE SMOOTH"
);
}
);
width = 717;
}
);
leftKerningGroup = H;
rightKerningGroup = K;
unicode = 004B;
},
{
color = 4;
glyphname = L;
lastChange = "2019-02-16 05:39:16 +0000";
layers = (
{
anchors = (
{
name = bottom;
position = "{261, 0}";
},
{
name = btm;
position = "{286, -83}";
},
{
name = center;
position = "{261, 372}";
},
{
name = top;
position = "{142, 830}";
},
{
name = topright;
position = "{501, 743}";
}
);
layerId = "8BC678DE-46B6-4C98-A96E-C0ED61786D32";
paths = (
{
closed = 1;
nodes = (
"492 0 LINE",
"492 65 LINE",
"185 65 LINE",
"185 743 LINE",
"101 743 LINE",
"101 0 LINE"
);
}
);
width = 521;
},
{
anchors = (
{
name = bottom;
position = "{264, 0}";
},
{
name = btm;
position = "{294, -83}";
},
{
name = center;
position = "{264, 372}";
},
{
name = top;
position = "{149, 830}";
},
{
name = topright;
position = "{507, 743}";
}
);
layerId = "DB9867C4-88B4-4207-8D32-C8AFE6754240";
paths = (
{
closed = 1;
nodes = (
"501 0 LINE",
"501 85 LINE",
"206 85 LINE",
"206 743 LINE",
"95 743 LINE",
"95 0 LINE"
);
}
);
width = 527;
},
{
anchors = (
{
name = bottom;
position = "{274, 0}";
},
{
name = btm;
position = "{298, -83}";
},
{
name = center;
position = "{274, 372}";
},
{
name = top;
position = "{170, 830}";
},
{
name = topright;
position = "{527, 743}";
}
);
layerId = "ADDB461F-7E69-4B45-B56F-E3E322F9570B";
paths = (
{
closed = 1;
nodes = (
"515 0 LINE",
"515 118 LINE",
"247 118 LINE",
"247 743 LINE",
"92 743 LINE",
"92 0 LINE"
);
}
);
width = 547;
},
{
anchors = (
{
name = bottom;
position = "{274, 0}";
},
{
name = btm;
position = "{295, -83}";
},
{
name = center;
position = "{274, 372}";
},
{
name = top;
position = "{178, 830}";
},
{
name = topright;
position = "{528, 743}";
}
);
layerId = "23A20576-2241-481A-AD5B-28E85381F753";
paths = (
{
closed = 1;
nodes = (
"519 0 LINE",
"519 140 LINE",
"273 140 LINE",
"273 743 LINE",
"84 743 LINE",
"84 0 LINE"
);
}
);
width = 548;
}
);
leftKerningGroup = H;
rightKerningGroup = L;
unicode = 004C;
},
{
color = 4;
glyphname = Lslash;
lastChange = "2019-01-21 06:08:13 +0000";
layers = (
{
components = (
{
name = L;
}
);
layerId = "8BC678DE-46B6-4C98-A96E-C0ED61786D32";
paths = (
{
closed = 1;
nodes = (
"26 277 LINE",
"414 419 LINE",
"394 471 LINE",
"6 328 LINE"
);
}
);
width = 521;
},
{
components = (
{
name = L;
}
);
layerId = "DB9867C4-88B4-4207-8D32-C8AFE6754240";
paths = (
{
closed = 1;
nodes = (
"35 277 LINE",
"422 419 LINE",
"396 487 LINE",
"9 344 LINE"
);
}
);
width = 527;
},
{
components = (
{
name = L;
}
);
layerId = "ADDB461F-7E69-4B45-B56F-E3E322F9570B";
paths = (
{
closed = 1;
nodes = (
"44 277 LINE",
"432 419 LINE",
"400 503 LINE",
"12 360 LINE"
);
}
);
width = 547;
},
{
components = (
{
name = L;
}
);
layerId = "23A20576-2241-481A-AD5B-28E85381F753";
paths = (
{
closed = 1;
nodes = (
"44 277 LINE",
"432 419 LINE",
"396 515 LINE",
"9 372 LINE"
);
}
);
width = 548;
}
);
leftKerningGroup = H;
rightKerningGroup = L;
unicode = 0141;
},
{
color = 4;
glyphname = M;
lastChange = "2019-02-16 05:39:16 +0000";
layers = (
{
anchors = (
{
name = bottom;
position = "{470, 0}";
},
{
name = btm;
position = "{471, -83}";
},
{
name = top;
position = "{470, 800}";
}
);
layerId = "8BC678DE-46B6-4C98-A96E-C0ED61786D32";
paths = (
{
closed = 1;
nodes = (
"153 0 LINE",
"197 462 LINE",
"216 682 LINE",
"282 462 LINE",
"448 -7 LINE",
"493 -7 LINE",
"651 462 LINE",
"711 682 LINE",
"733 462 LINE",
"785 0 LINE",
"868 0 LINE",
"772 743 LINE",
"661 743 LINE",
"506 260 LINE",
"470 121 LINE",
"434 260 LINE",
"269 743 LINE",
"152 743 LINE",
"73 0 LINE"
);
}
);
width = 940;
},
{
anchors = (
{
name = bottom;
position = "{470, 0}";
},
{
name = btm;
position = "{471, -83}";
},
{
name = top;
position = "{471, 800}";
}
);
layerId = "DB9867C4-88B4-4207-8D32-C8AFE6754240";
paths = (
{
closed = 1;
nodes = (
"171 0 LINE",
"211 462 LINE",
"225 662 LINE",
"279 462 LINE",
"441 -7 LINE",
"500 -7 LINE",
"655 462 LINE",
"705 662 LINE",
"719 462 LINE",
"765 0 LINE",
"874 0 LINE",
"785 743 LINE",
"639 743 LINE",
"507 319 LINE",
"471 161 LINE",
"432 319 LINE",
"294 743 LINE",
"141 743 LINE",
"65 0 LINE"
);
}
);
width = 939;
},
{
anchors = (
{
name = bottom;
position = "{461, 0}";
},
{
name = btm;
position = "{468, -83}";
},
{
name = top;
position = "{464, 800}";
}
);
layerId = "ADDB461F-7E69-4B45-B56F-E3E322F9570B";
paths = (
{
closed = 1;
nodes = (
"178 0 LINE",
"210 398 LINE",
"228 626 LINE",
"283 398 LINE",
"400 -7 LINE",
"523 -7 LINE",
"630 398 LINE",
"685 626 LINE",
"698 398 LINE",
"734 0 LINE",
"887 0 LINE",
"798 743 LINE",
"586 743 LINE",
"497 353 LINE",
"468 188 LINE",
"431 353 LINE",
"332 743 LINE",
"113 743 LINE",
"34 0 LINE"
);
}
);
width = 921;
},
{
anchors = (
{
name = bottom;
position = "{484, 0}";
},
{
name = btm;
position = "{489, -83}";
},
{
name = top;
position = "{489, 800}";
}
);
layerId = "23A20576-2241-481A-AD5B-28E85381F753";
paths = (
{
closed = 1;
nodes = (
"203 0 LINE",
"232 395 LINE",
"245 609 LINE",
"294 389 LINE",
"402 -4 LINE",
"567 -4 LINE",
"667 389 LINE",
"713 609 LINE",
"724 395 LINE",
"758 0 LINE",
"937 0 LINE",
"842 743 LINE",
"599 743 LINE",
"519 362 LINE",
"492 188 LINE",
"458 362 LINE",
"368 743 LINE",
"117 743 LINE",
"31 0 LINE"
);
}
);
width = 968;
}
);
leftKerningGroup = M;
rightKerningGroup = M;
unicode = 004D;
},
{
color = 4;
glyphname = N;
lastChange = "2019-02-16 05:39:16 +0000";
layers = (
{
anchors = (
{
name = bottom;
position = "{379, 0}";
},
{
name = btm;
position = "{366, -83}";
},
{
name = top;
position = "{384, 830}";
}
);
layerId = "8BC678DE-46B6-4C98-A96E-C0ED61786D32";
paths = (
{
closed = 1;
nodes = (
"176 0 LINE",
"176 474 LINE",
"169 694 LINE",
"136 694 LINE",
"247 505 LINE",
"583 0 LINE",
"658 0 LINE",
"658 743 LINE",
"583 743 LINE",
"583 257 LINE",
"590 51 LINE",
"619 51 LINE",
"519 226 LINE",
"177 743 LINE",
"100 743 LINE",
"100 0 LINE"
);
}
);
width = 758;
},
{
anchors = (
{
name = bottom;
position = "{380, 0}";
},
{
name = btm;
position = "{363, -83}";
},
{
name = top;
position = "{387, 830}";
}
);
layerId = "DB9867C4-88B4-4207-8D32-C8AFE6754240";
paths = (
{
closed = 1;
nodes = (
"194 0 LINE",
"194 465 LINE",
"185 679 LINE",
"141 679 LINE",
"257 472 LINE",
"564 0 LINE",
"666 0 LINE",
"666 743 LINE",
"565 743 LINE",
"565 266 LINE",
"576 65 LINE",
"614 65 LINE",
"512 252 LINE",
"194 743 LINE",
"94 743 LINE",
"94 0 LINE"
);
}
);
width = 760;
},
{
anchors = (
{
name = bottom;
position = "{396, 0}";
},
{
name = btm;
position = "{379, -83}";
},
{
name = top;
position = "{396, 830}";
}
);
layerId = "ADDB461F-7E69-4B45-B56F-E3E322F9570B";
paths = (
{
closed = 1;
nodes = (
"236 0 LINE",
"236 362 LINE",
"210 640 LINE",
"169 640 LINE",
"278 420 LINE",
"543 0 LINE",
"699 0 LINE",
"699 743 LINE",
"555 743 LINE",
"555 374 LINE",
"574 135 LINE",
"599 135 LINE",
"513 306 LINE",
"236 743 LINE",
"92 743 LINE",
"92 0 LINE"
);
}
);
width = 791;
},
{
anchors = (
{
name = bottom;
position = "{398, 0}";
},
{
name = btm;
position = "{381, -83}";
},
{
name = top;
position = "{401, 830}";
}
);
layerId = "23A20576-2241-481A-AD5B-28E85381F753";
paths = (
{
closed = 1;
nodes = (
"253 0 LINE",
"253 321 LINE",
"216 626 LINE",
"175 626 LINE",
"284 398 LINE",
"525 0 LINE",
"712 0 LINE",
"712 743 LINE",
"543 743 LINE",
"543 416 LINE",
"573 135 LINE",
"607 135 LINE",
"512 335 LINE",
"258 743 LINE",
"84 743 LINE",
"84 0 LINE"
);
}
);
width = 796;
}
);
leftKerningGroup = H;
rightKerningGroup = H;
unicode = 004E;
},
{
glyphname = Eng;
lastChange = "2019-01-21 06:08:13 +0000";
layers = (
{
layerId = "8BC678DE-46B6-4C98-A96E-C0ED61786D32";
paths = (
{
closed = 1;
nodes = (
"181 475 LINE",
"175 691 LINE",
"140 691 LINE",
"247 508 LINE",
"581 17 LINE",
"579 -48 OFFCURVE",
"477 -130 OFFCURVE",
"380 -158 CURVE",
"401 -197 LINE",
"492 -183 OFFCURVE",
"611 -116 OFFCURVE",
"645 -4 CURVE SMOOTH",
"666 56 OFFCURVE",
"668 124 OFFCURVE",
"668 198 CURVE SMOOTH",
"668 743 LINE",
"587 743 LINE",
"587 255 LINE",
"597 51 LINE",
"625 51 LINE",
"529 222 LINE",
"177 743 LINE",
"100 743 LINE",
"101 0 LINE",
"181 0 LINE"
);
}
);
width = 771;
},
{
layerId = "DB9867C4-88B4-4207-8D32-C8AFE6754240";
paths = (
{
closed = 1;
nodes = (
"201 466 LINE",
"193 674 LINE",
"146 674 LINE",
"256 477 LINE",
"563 22 LINE",
"563 -46 OFFCURVE",
"458 -123 OFFCURVE",
"375 -147 CURVE",
"402 -198 LINE",
"505 -185 OFFCURVE",
"640 -107 OFFCURVE",
"667 26 CURVE SMOOTH",
"681 93 OFFCURVE",
"679 172 OFFCURVE",
"679 263 CURVE SMOOTH",
"679 743 LINE",
"572 743 LINE",
"572 264 LINE",
"584 65 LINE",
"623 65 LINE",
"525 248 LINE",
"194 743 LINE",
"94 743 LINE",
"95 0 LINE",
"201 0 LINE"
);
}
);
width = 773;
},
{
layerId = "ADDB461F-7E69-4B45-B56F-E3E322F9570B";
paths = (
{
closed = 1;
nodes = (
"245 362 LINE",
"215 640 LINE",
"174 640 LINE",
"283 420 LINE",
"540 9 LINE",
"540 -59 OFFCURVE",
"445 -130 OFFCURVE",
"362 -154 CURVE",
"396 -215 LINE",
"527 -209 OFFCURVE",
"653 -130 OFFCURVE",
"684 -18 CURVE SMOOTH",
"702 47 OFFCURVE",
"699 108 OFFCURVE",
"699 200 CURVE SMOOTH",
"699 743 LINE",
"545 743 LINE",
"545 374 LINE",
"568 135 LINE",
"594 135 LINE",
"507 306 LINE",
"242 743 LINE",
"91 743 LINE",
"92 0 LINE",
"245 0 LINE"
);
}
);
width = 791;
},
{
layerId = "23A20576-2241-481A-AD5B-28E85381F753";
paths = (
{
closed = 1;
nodes = (
"258 322 LINE",
"216 640 LINE",
"174 640 LINE",
"287 398 LINE",
"525 5 LINE",
"525 -69 OFFCURVE",
"439 -135 OFFCURVE",
"356 -159 CURVE",
"392 -229 LINE",
"542 -229 OFFCURVE",
"658 -147 OFFCURVE",
"690 -49 CURVE SMOOTH",
"711 15 OFFCURVE",
"711 63 OFFCURVE",
"711 155 CURVE SMOOTH",
"711 743 LINE",
"538 743 LINE",
"538 416 LINE",
"569 135 LINE",
"604 135 LINE",
"508 335 LINE",
"262 743 LINE",
"84 743 LINE",
"84 0 LINE",
"258 0 LINE"
);
}
);
width = 796;
}
);
leftKerningGroup = H;
rightKerningGroup = H;
unicode = 014A;
},
{
color = 4;
glyphname = O;
lastChange = "2019-02-16 05:39:16 +0000";
layers = (
{
anchors = (
{
name = bottom;
position = "{384, 0}";
},
{
name = btm;
position = "{384, -83}";
},
{
name = center;
position = "{384, 372}";
},
{
name = ogonek;
position = "{691, 10}";
},
{
name = top;
position = "{395, 830}";
},
{
name = topleft;
position = "{20, 743}";
},
{
name = topright;
position = "{748, 743}";
}
);
layerId = "8BC678DE-46B6-4C98-A96E-C0ED61786D32";
paths = (
{
closed = 1;
nodes = (
"569 -4 OFFCURVE",
"708 126 OFFCURVE",
"713 373 CURVE SMOOTH",
"718 601 OFFCURVE",
"592 752 OFFCURVE",
"396 751 CURVE SMOOTH",
"208 750 OFFCURVE",
"59 623 OFFCURVE",
"54 375 CURVE SMOOTH",
"50 151 OFFCURVE",
"176 -12 OFFCURVE",
"381 -8 CURVE SMOOTH"
);
},
{
closed = 1;
nodes = (
"221 55 OFFCURVE",
"137 200 OFFCURVE",
"138 370 CURVE SMOOTH",
"139 582 OFFCURVE",
"250 687 OFFCURVE",
"393 688 CURVE SMOOTH",
"549 689 OFFCURVE",
"630 548 OFFCURVE",
"630 377 CURVE SMOOTH",
"628 169 OFFCURVE",
"530 57 OFFCURVE",
"383 56 CURVE SMOOTH"
);
}
);
width = 768;
},
{
anchors = (
{
name = bottom;
position = "{383, 0}";
},
{
name = btm;
position = "{382, -83}";
},
{
name = center;
position = "{383, 372}";
},
{
name = ogonek;
position = "{689, 10}";
},
{
name = top;
position = "{395, 830}";
},
{
name = topleft;
position = "{20, 743}";
},
{
name = topright;
position = "{746, 743}";
}
);
layerId = "DB9867C4-88B4-4207-8D32-C8AFE6754240";
paths = (
{
closed = 1;
nodes = (
"570 -4 OFFCURVE",
"712 124 OFFCURVE",
"717 372 CURVE SMOOTH",
"722 602 OFFCURVE",
"592 751 OFFCURVE",
"395 751 CURVE SMOOTH",
"206 751 OFFCURVE",
"54 625 OFFCURVE",
"49 377 CURVE SMOOTH",
"44 152 OFFCURVE",
"174 -12 OFFCURVE",
"380 -8 CURVE SMOOTH"
);
},
{
closed = 1;
nodes = (
"235 76 OFFCURVE",
"159 216 OFFCURVE",
"159 370 CURVE SMOOTH",
"159 574 OFFCURVE",
"266 668 OFFCURVE",
"391 668 CURVE SMOOTH",
"534 668 OFFCURVE",
"607 533 OFFCURVE",
"607 377 CURVE SMOOTH",
"607 181 OFFCURVE",
"519 76 OFFCURVE",
"383 76 CURVE SMOOTH"
);
}
);
width = 766;
},
{
anchors = (
{
name = bottom;
position = "{390, 0}";
},
{
name = btm;
position = "{388, -83}";
},
{
name = center;
position = "{390, 372}";
},
{
name = ogonek;
position = "{701, 10}";
},
{
name = top;
position = "{402, 830}";
},
{
name = topleft;
position = "{20, 743}";
},
{
name = topright;
position = "{759, 743}";
}
);
layerId = "ADDB461F-7E69-4B45-B56F-E3E322F9570B";
paths = (
{
closed = 1;
nodes = (
"584 -4 OFFCURVE",
"726 116 OFFCURVE",
"731 373 CURVE SMOOTH",
"735 602 OFFCURVE",
"606 757 OFFCURVE",
"401 751 CURVE SMOOTH",
"200 745 OFFCURVE",
"53 633 OFFCURVE",
"48 375 CURVE SMOOTH",
"43 147 OFFCURVE",
"172 -12 OFFCURVE",
"386 -8 CURVE SMOOTH"
);
},
{
closed = 1;
nodes = (
"268 108 OFFCURVE",
"208 224 OFFCURVE",
"208 370 CURVE SMOOTH",
"208 561 OFFCURVE",
"294 633 OFFCURVE",
"397 633 CURVE SMOOTH",
"514 633 OFFCURVE",
"570 523 OFFCURVE",
"570 377 CURVE SMOOTH",
"570 191 OFFCURVE",
"500 108 OFFCURVE",
"390 108 CURVE SMOOTH"
);
}
);
width = 779;
},
{
anchors = (
{
name = bottom;
position = "{392, 0}";
},
{
name = btm;
position = "{390, -83}";
},
{
name = center;
position = "{392, 372}";
},
{
name = ogonek;
position = "{705, 10}";
},
{
name = top;
position = "{398, 830}";
},
{
name = topleft;
position = "{20, 743}";
},
{
name = topright;
position = "{763, 743}";
}
);
layerId = "23A20576-2241-481A-AD5B-28E85381F753";
paths = (
{
closed = 1;
nodes = (
"592 -4 OFFCURVE",
"732 109 OFFCURVE",
"737 373 CURVE SMOOTH",
"741 608 OFFCURVE",
"614 757 OFFCURVE",
"403 751 CURVE SMOOTH",
"197 745 OFFCURVE",
"50 639 OFFCURVE",
"45 375 CURVE SMOOTH",
"41 139 OFFCURVE",
"169 -12 OFFCURVE",
"389 -8 CURVE SMOOTH"
);
},
{
closed = 1;
nodes = (
"288 128 OFFCURVE",
"237 229 OFFCURVE",
"237 370 CURVE SMOOTH",
"237 552 OFFCURVE",
"310 611 OFFCURVE",
"400 611 CURVE SMOOTH",
"499 611 OFFCURVE",
"545 517 OFFCURVE",
"545 378 CURVE SMOOTH",
"545 199 OFFCURVE",
"487 128 OFFCURVE",
"392 128 CURVE SMOOTH"
);
}
);
width = 783;
}
);
leftKerningGroup = O;
rightKerningGroup = O;
unicode = 004F;
},
{
color = 4;
glyphname = Oslash;
lastChange = "2019-02-16 05:39:16 +0000";
layers = (
{
anchors = (
{
name = bottom;
position = "{384, 0}";
},
{
name = top;
position = "{376, 830}";
}
);
layerId = "8BC678DE-46B6-4C98-A96E-C0ED61786D32";
paths = (
{
closed = 1;
nodes = (
"639 831 LINE",
"594 845 LINE",
"131 -82 LINE",
"176 -95 LINE"
);
},
{
closed = 1;
nodes = (
"569 -4 OFFCURVE",
"708 126 OFFCURVE",
"713 373 CURVE SMOOTH",
"718 601 OFFCURVE",
"592 752 OFFCURVE",
"396 751 CURVE SMOOTH",
"208 750 OFFCURVE",
"59 623 OFFCURVE",
"54 375 CURVE SMOOTH",
"50 151 OFFCURVE",
"176 -12 OFFCURVE",
"381 -8 CURVE SMOOTH"
);
},
{
closed = 1;
nodes = (
"221 55 OFFCURVE",
"137 200 OFFCURVE",
"138 370 CURVE SMOOTH",
"139 582 OFFCURVE",
"250 687 OFFCURVE",
"393 688 CURVE SMOOTH",
"549 689 OFFCURVE",
"630 548 OFFCURVE",
"630 377 CURVE SMOOTH",
"628 169 OFFCURVE",
"530 57 OFFCURVE",
"383 56 CURVE SMOOTH"
);
}
);
width = 768;
},
{
anchors = (
{
name = bottom;
position = "{383, 0}";
},
{
name = top;
position = "{375, 830}";
}
);
layerId = "DB9867C4-88B4-4207-8D32-C8AFE6754240";
paths = (
{
closed = 1;
nodes = (
"645 831 LINE",
"587 849 LINE",
"122 -80 LINE",
"180 -98 LINE"
);
},
{
closed = 1;
nodes = (
"570 -4 OFFCURVE",
"712 124 OFFCURVE",
"717 372 CURVE SMOOTH",
"722 602 OFFCURVE",
"592 751 OFFCURVE",
"395 751 CURVE SMOOTH",
"206 751 OFFCURVE",
"54 625 OFFCURVE",
"49 377 CURVE SMOOTH",
"44 152 OFFCURVE",
"174 -12 OFFCURVE",
"380 -8 CURVE SMOOTH"
);
},
{
closed = 1;
nodes = (
"235 76 OFFCURVE",
"159 216 OFFCURVE",
"159 370 CURVE SMOOTH",
"159 574 OFFCURVE",
"266 668 OFFCURVE",
"391 668 CURVE SMOOTH",
"534 668 OFFCURVE",
"607 533 OFFCURVE",
"607 377 CURVE SMOOTH",
"607 181 OFFCURVE",
"519 76 OFFCURVE",
"383 76 CURVE SMOOTH"
);
}
);
width = 766;
},
{
anchors = (
{
name = bottom;
position = "{390, 0}";
},
{
name = top;
position = "{382, 830}";
}
);
layerId = "ADDB461F-7E69-4B45-B56F-E3E322F9570B";
paths = (
{
closed = 1;
nodes = (
"661 854 LINE",
"603 870 LINE",
"117 -92 LINE",
"176 -107 LINE"
);
},
{
closed = 1;
nodes = (
"584 -4 OFFCURVE",
"726 116 OFFCURVE",
"731 373 CURVE SMOOTH",
"735 602 OFFCURVE",
"606 757 OFFCURVE",
"401 751 CURVE SMOOTH",
"200 745 OFFCURVE",
"53 633 OFFCURVE",
"48 375 CURVE SMOOTH",
"43 147 OFFCURVE",
"172 -12 OFFCURVE",
"386 -8 CURVE SMOOTH"
);
},
{
closed = 1;
nodes = (
"268 108 OFFCURVE",
"208 224 OFFCURVE",
"208 370 CURVE SMOOTH",
"208 561 OFFCURVE",
"294 633 OFFCURVE",
"397 633 CURVE SMOOTH",
"514 633 OFFCURVE",
"570 523 OFFCURVE",
"570 377 CURVE SMOOTH",
"570 191 OFFCURVE",
"500 108 OFFCURVE",
"390 108 CURVE SMOOTH"
);
}
);
width = 779;
},
{
anchors = (
{
name = bottom;
position = "{392, 0}";
},
{
name = top;
position = "{382, 830}";
}
);
layerId = "23A20576-2241-481A-AD5B-28E85381F753";
paths = (
{
closed = 1;
nodes = (
"672 871 LINE",
"608 884 LINE",
"115 -102 LINE",
"179 -114 LINE"
);
},
{
closed = 1;
nodes = (
"592 -4 OFFCURVE",
"732 109 OFFCURVE",
"737 373 CURVE SMOOTH",
"741 608 OFFCURVE",
"614 757 OFFCURVE",
"403 751 CURVE SMOOTH",
"197 745 OFFCURVE",
"50 639 OFFCURVE",
"45 375 CURVE SMOOTH",
"41 139 OFFCURVE",
"169 -12 OFFCURVE",
"389 -8 CURVE SMOOTH"
);
},
{
closed = 1;
nodes = (
"288 128 OFFCURVE",
"237 229 OFFCURVE",
"237 370 CURVE SMOOTH",
"237 552 OFFCURVE",
"310 611 OFFCURVE",
"400 611 CURVE SMOOTH",
"499 611 OFFCURVE",
"545 517 OFFCURVE",
"545 378 CURVE SMOOTH",
"545 199 OFFCURVE",
"487 128 OFFCURVE",
"392 128 CURVE SMOOTH"
);
}
);
width = 783;
}
);
leftKerningGroup = O;
rightKerningGroup = O;
unicode = 00D8;
},
{
color = 4;
glyphname = OE;
lastChange = "2019-02-16 05:39:16 +0000";
layers = (
{
anchors = (
{
name = bottom;
position = "{502, 0}";
},
{
name = btm;
position = "{519, -83}";
},
{
name = top;
position = "{530, 830}";
}
);
layerId = "8BC678DE-46B6-4C98-A96E-C0ED61786D32";
paths = (
{
closed = 1;
nodes = (
"49 151 OFFCURVE",
"179 -12 OFFCURVE",
"384 -8 CURVE SMOOTH",
"461 -6 OFFCURVE",
"514 17 OFFCURVE",
"563 58 CURVE",
"563 138 LINE",
"532 94 OFFCURVE",
"471 55 OFFCURVE",
"387 55 CURVE SMOOTH",
"222 55 OFFCURVE",
"137 200 OFFCURVE",
"137 369 CURVE SMOOTH",
"137 591 OFFCURVE",
"266 688 OFFCURVE",
"396 688 CURVE SMOOTH",
"480 688 OFFCURVE",
"535 656 OFFCURVE",
"564 615 CURVE",
"557 704 LINE",
"512 740 OFFCURVE",
"450 752 OFFCURVE",
"398 751 CURVE SMOOTH",
"202 745 OFFCURVE",
"58 619 OFFCURVE",
"54 373 CURVE SMOOTH"
);
},
{
closed = 1;
nodes = (
"972 0 LINE",
"972 65 LINE",
"617 65 LINE",
"617 352 LINE",
"854 352 LINE",
"854 416 LINE",
"617 416 LINE",
"617 679 LINE",
"936 679 LINE",
"936 743 LINE",
"534 743 LINE",
"534 0 LINE"
);
}
);
width = 1004;
},
{
anchors = (
{
name = bottom;
position = "{504, 0}";
},
{
name = btm;
position = "{516, -83}";
},
{
name = top;
position = "{516, 830}";
}
);
layerId = "DB9867C4-88B4-4207-8D32-C8AFE6754240";
paths = (
{
closed = 1;
nodes = (
"44 153 OFFCURVE",
"173 -12 OFFCURVE",
"378 -8 CURVE SMOOTH",
"454 -6 OFFCURVE",
"500 16 OFFCURVE",
"546 49 CURVE",
"545 152 LINE",
"507 99 OFFCURVE",
"452 74 OFFCURVE",
"383 74 CURVE SMOOTH",
"235 74 OFFCURVE",
"158 213 OFFCURVE",
"158 370 CURVE SMOOTH",
"158 578 OFFCURVE",
"269 668 OFFCURVE",
"391 668 CURVE SMOOTH",
"463 668 OFFCURVE",
"513 647 OFFCURVE",
"548 601 CURVE",
"538 715 LINE",
"495 745 OFFCURVE",
"436 752 OFFCURVE",
"393 751 CURVE SMOOTH",
"193 744 OFFCURVE",
"54 621 OFFCURVE",
"49 375 CURVE SMOOTH"
);
},
{
closed = 1;
nodes = (
"971 0 LINE",
"971 85 LINE",
"617 85 LINE",
"617 341 LINE",
"851 341 LINE",
"851 425 LINE",
"617 425 LINE",
"617 659 LINE",
"936 659 LINE",
"936 743 LINE",
"508 743 LINE",
"508 0 LINE"
);
}
);
width = 1007;
},
{
anchors = (
{
name = bottom;
position = "{521, 0}";
},
{
name = btm;
position = "{522, -83}";
},
{
name = top;
position = "{522, 830}";
}
);
layerId = "ADDB461F-7E69-4B45-B56F-E3E322F9570B";
paths = (
{
closed = 1;
nodes = (
"47 153 OFFCURVE",
"173 -9 OFFCURVE",
"386 -8 CURVE SMOOTH",
"452 -7 OFFCURVE",
"512 9 OFFCURVE",
"547 44 CURVE",
"538 194 LINE",
"509 129 OFFCURVE",
"461 108 OFFCURVE",
"393 108 CURVE SMOOTH",
"275 108 OFFCURVE",
"210 213 OFFCURVE",
"210 370 CURVE SMOOTH",
"210 578 OFFCURVE",
"309 633 OFFCURVE",
"400 633 CURVE SMOOTH",
"475 633 OFFCURVE",
"512 588 OFFCURVE",
"536 553 CURVE",
"548 704 LINE",
"515 737 OFFCURVE",
"463 751 OFFCURVE",
"400 751 CURVE SMOOTH",
"206 749 OFFCURVE",
"57 621 OFFCURVE",
"52 375 CURVE SMOOTH"
);
},
{
closed = 1;
nodes = (
"1000 0 LINE",
"1000 123 LINE",
"670 123 LINE",
"670 324 LINE",
"890 324 LINE",
"890 441 LINE",
"670 441 LINE",
"670 624 LINE",
"968 624 LINE",
"968 743 LINE",
"515 743 LINE",
"515 0 LINE"
);
}
);
width = 1042;
},
{
anchors = (
{
name = bottom;
position = "{527, 0}";
},
{
name = btm;
position = "{520, -83}";
},
{
name = top;
position = "{520, 830}";
}
);
layerId = "23A20576-2241-481A-AD5B-28E85381F753";
paths = (
{
closed = 1;
nodes = (
"43 149 OFFCURVE",
"165 -9 OFFCURVE",
"377 -8 CURVE SMOOTH",
"455 -7 OFFCURVE",
"510 16 OFFCURVE",
"537 44 CURVE",
"529 217 LINE",
"508 152 OFFCURVE",
"464 132 OFFCURVE",
"395 132 CURVE SMOOTH",
"296 132 OFFCURVE",
"238 213 OFFCURVE",
"238 370 CURVE SMOOTH",
"238 578 OFFCURVE",
"334 607 OFFCURVE",
"407 607 CURVE SMOOTH",
"471 607 OFFCURVE",
"509 572 OFFCURVE",
"528 529 CURVE",
"536 704 LINE",
"510 732 OFFCURVE",
"464 751 OFFCURVE",
"396 751 CURVE SMOOTH",
"205 750 OFFCURVE",
"52 632 OFFCURVE",
"47 375 CURVE SMOOTH"
);
},
{
closed = 1;
nodes = (
"1009 0 LINE",
"1009 142 LINE",
"697 142 LINE",
"697 313 LINE",
"909 313 LINE",
"909 449 LINE",
"697 449 LINE",
"697 604 LINE",
"980 604 LINE",
"980 743 LINE",
"513 743 LINE",
"513 0 LINE"
);
}
);
width = 1053;
}
);
leftKerningGroup = O;
rightKerningGroup = E;
unicode = 0152;
},
{
color = 4;
glyphname = P;
lastChange = "2019-02-16 05:39:16 +0000";
layers = (
{
anchors = (
{
name = bottom;
position = "{313, 0}";
},
{
name = btm;
position = "{343, -83}";
},
{
name = top;
position = "{331, 830}";
}
);
layerId = "8BC678DE-46B6-4C98-A96E-C0ED61786D32";
paths = (
{
closed = 1;
nodes = (
"183 0 LINE",
"183 261 LINE",
"203 261 OFFCURVE",
"251 257 OFFCURVE",
"304 257 CURVE SMOOTH",
"476 258 OFFCURVE",
"583 349 OFFCURVE",
"583 510 CURVE SMOOTH",
"583 684 OFFCURVE",
"482 750 OFFCURVE",
"325 750 CURVE SMOOTH",
"260 750 OFFCURVE",
"196 743 OFFCURVE",
"141 743 CURVE SMOOTH",
"101 743 LINE",
"101 0 LINE"
);
},
{
closed = 1;
nodes = (
"183 683 LINE",
"218 688 OFFCURVE",
"263 689 OFFCURVE",
"301 690 CURVE SMOOTH",
"434 693 OFFCURVE",
"500 640 OFFCURVE",
"500 510 CURVE SMOOTH",
"500 368 OFFCURVE",
"412 320 OFFCURVE",
"299 318 CURVE SMOOTH",
"269 318 OFFCURVE",
"213 320 OFFCURVE",
"183 324 CURVE"
);
}
);
width = 625;
},
{
anchors = (
{
name = bottom;
position = "{310, 0}";
},
{
name = btm;
position = "{338, -83}";
},
{
name = top;
position = "{338, 830}";
}
);
layerId = "DB9867C4-88B4-4207-8D32-C8AFE6754240";
paths = (
{
closed = 1;
nodes = (
"204 0 LINE",
"204 257 LINE",
"223 257 OFFCURVE",
"252 255 OFFCURVE",
"300 255 CURVE SMOOTH",
"485 255 OFFCURVE",
"584 349 OFFCURVE",
"584 510 CURVE SMOOTH",
"584 679 OFFCURVE",
"485 751 OFFCURVE",
"325 751 CURVE SMOOTH",
"259 751 OFFCURVE",
"203 743 OFFCURVE",
"146 743 CURVE SMOOTH",
"95 743 LINE",
"95 0 LINE"
);
},
{
closed = 1;
nodes = (
"204 664 LINE",
"231 670 OFFCURVE",
"262 672 OFFCURVE",
"292 673 CURVE SMOOTH",
"411 677 OFFCURVE",
"476 628 OFFCURVE",
"476 509 CURVE SMOOTH",
"476 363 OFFCURVE",
"389 335 OFFCURVE",
"293 335 CURVE SMOOTH",
"265 335 OFFCURVE",
"236 335 OFFCURVE",
"204 340 CURVE"
);
}
);
width = 620;
},
{
anchors = (
{
name = bottom;
position = "{332, 0}";
},
{
name = btm;
position = "{345, -83}";
},
{
name = top;
position = "{365, 831}";
}
);
layerId = "ADDB461F-7E69-4B45-B56F-E3E322F9570B";
paths = (
{
closed = 1;
nodes = (
"247 0 LINE",
"247 226 LINE",
"264 226 OFFCURVE",
"290 225 OFFCURVE",
"332 225 CURVE SMOOTH",
"524 225 OFFCURVE",
"629 325 OFFCURVE",
"629 495 CURVE SMOOTH",
"629 678 OFFCURVE",
"528 751 OFFCURVE",
"358 751 CURVE SMOOTH",
"287 751 OFFCURVE",
"221 743 OFFCURVE",
"139 743 CURVE SMOOTH",
"92 743 LINE",
"92 0 LINE"
);
},
{
closed = 1;
nodes = (
"247 631 LINE",
"271 636 OFFCURVE",
"301 637 OFFCURVE",
"327 638 CURVE SMOOTH",
"423 642 OFFCURVE",
"475 591 OFFCURVE",
"475 497 CURVE SMOOTH",
"475 374 OFFCURVE",
"404 343 OFFCURVE",
"328 343 CURVE SMOOTH",
"304 343 OFFCURVE",
"271 344 OFFCURVE",
"247 347 CURVE"
);
}
);
width = 664;
},
{
anchors = (
{
name = bottom;
position = "{340, 0}";
},
{
name = btm;
position = "{343, -83}";
},
{
name = top;
position = "{375, 831}";
}
);
layerId = "23A20576-2241-481A-AD5B-28E85381F753";
paths = (
{
closed = 1;
nodes = (
"271 0 LINE",
"271 215 LINE",
"287 215 OFFCURVE",
"308 214 OFFCURVE",
"347 214 CURVE SMOOTH",
"545 214 OFFCURVE",
"652 313 OFFCURVE",
"652 489 CURVE SMOOTH",
"652 682 OFFCURVE",
"545 751 OFFCURVE",
"366 751 CURVE SMOOTH",
"292 751 OFFCURVE",
"225 743 OFFCURVE",
"157 743 CURVE SMOOTH",
"84 743 LINE",
"84 0 LINE"
);
},
{
closed = 1;
nodes = (
"271 616 LINE",
"292 619 OFFCURVE",
"320 621 OFFCURVE",
"343 621 CURVE SMOOTH",
"430 624 OFFCURVE",
"470 570 OFFCURVE",
"470 490 CURVE SMOOTH",
"470 386 OFFCURVE",
"417 348 OFFCURVE",
"347 348 CURVE SMOOTH",
"316 348 OFFCURVE",
"292 350 OFFCURVE",
"271 352 CURVE"
);
}
);
width = 680;
}
);
leftKerningGroup = H;
rightKerningGroup = P;
unicode = 0050;
},
{
color = 4;
glyphname = Thorn;
lastChange = "2019-02-16 05:39:16 +0000";
layers = (
{
anchors = (
{
name = bottom;
position = "{310, 0}";
},
{
name = top;
position = "{310, 743}";
}
);
layerId = "8BC678DE-46B6-4C98-A96E-C0ED61786D32";
paths = (
{
closed = 1;
nodes = (
"474 143 OFFCURVE",
"579 225 OFFCURVE",
"579 387 CURVE SMOOTH",
"579 542 OFFCURVE",
"482 609 OFFCURVE",
"326 609 CURVE SMOOTH",
"268 609 OFFCURVE",
"196 600 OFFCURVE",
"149 599 CURVE",
"177 538 LINE",
"207 544 OFFCURVE",
"262 549 OFFCURVE",
"299 550 CURVE SMOOTH",
"430 552 OFFCURVE",
"496 500 OFFCURVE",
"496 386 CURVE SMOOTH",
"496 247 OFFCURVE",
"413 203 OFFCURVE",
"293 203 CURVE SMOOTH",
"260 203 OFFCURVE",
"210 206 OFFCURVE",
"177 210 CURVE",
"177 149 LINE",
"197 148 OFFCURVE",
"250 143 OFFCURVE",
"301 143 CURVE SMOOTH"
);
},
{
closed = 1;
nodes = (
"183 0 LINE",
"183 743 LINE",
"101 743 LINE",
"101 0 LINE"
);
}
);
width = 620;
},
{
anchors = (
{
name = bottom;
position = "{308, 0}";
},
{
name = top;
position = "{308, 743}";
}
);
layerId = "DB9867C4-88B4-4207-8D32-C8AFE6754240";
paths = (
{
closed = 1;
nodes = (
"479 139 OFFCURVE",
"577 230 OFFCURVE",
"577 387 CURVE SMOOTH",
"577 542 OFFCURVE",
"486 615 OFFCURVE",
"317 615 CURVE SMOOTH",
"258 615 OFFCURVE",
"203 607 OFFCURVE",
"159 607 CURVE",
"196 526 LINE",
"222 534 OFFCURVE",
"252 536 OFFCURVE",
"281 537 CURVE SMOOTH",
"408 541 OFFCURVE",
"469 494 OFFCURVE",
"469 386 CURVE SMOOTH",
"469 244 OFFCURVE",
"381 218 OFFCURVE",
"283 218 CURVE SMOOTH",
"256 218 OFFCURVE",
"229 219 OFFCURVE",
"196 224 CURVE",
"196 143 LINE",
"215 143 OFFCURVE",
"246 139 OFFCURVE",
"293 139 CURVE SMOOTH"
);
},
{
closed = 1;
nodes = (
"204 0 LINE",
"204 743 LINE",
"95 743 LINE",
"95 0 LINE"
);
}
);
width = 616;
},
{
anchors = (
{
name = bottom;
position = "{332, 0}";
},
{
name = top;
position = "{332, 743}";
}
);
layerId = "ADDB461F-7E69-4B45-B56F-E3E322F9570B";
paths = (
{
closed = 1;
nodes = (
"526 125 OFFCURVE",
"626 225 OFFCURVE",
"626 393 CURVE SMOOTH",
"626 555 OFFCURVE",
"525 628 OFFCURVE",
"366 628 CURVE SMOOTH",
"313 628 OFFCURVE",
"263 623 OFFCURVE",
"222 621 CURVE",
"240 500 LINE",
"264 507 OFFCURVE",
"296 510 OFFCURVE",
"322 511 CURVE SMOOTH",
"419 515 OFFCURVE",
"472 473 OFFCURVE",
"472 392 CURVE SMOOTH",
"472 266 OFFCURVE",
"403 244 OFFCURVE",
"323 244 CURVE SMOOTH",
"299 244 OFFCURVE",
"269 244 OFFCURVE",
"241 250 CURVE",
"241 130 LINE",
"260 129 OFFCURVE",
"292 125 OFFCURVE",
"343 125 CURVE SMOOTH"
);
},
{
closed = 1;
nodes = (
"247 0 LINE",
"247 743 LINE",
"92 743 LINE",
"92 0 LINE"
);
}
);
width = 664;
},
{
anchors = (
{
name = bottom;
position = "{340, 0}";
},
{
name = top;
position = "{340, 743}";
}
);
layerId = "23A20576-2241-481A-AD5B-28E85381F753";
paths = (
{
closed = 1;
nodes = (
"555 115 OFFCURVE",
"651 221 OFFCURVE",
"651 393 CURVE SMOOTH",
"651 551 OFFCURVE",
"553 634 OFFCURVE",
"390 634 CURVE SMOOTH",
"343 634 OFFCURVE",
"292 629 OFFCURVE",
"253 627 CURVE",
"264 490 LINE",
"287 496 OFFCURVE",
"310 499 OFFCURVE",
"337 499 CURVE SMOOTH",
"425 501 OFFCURVE",
"468 457 OFFCURVE",
"468 386 CURVE SMOOTH",
"468 275 OFFCURVE",
"409 246 OFFCURVE",
"337 246 CURVE SMOOTH",
"315 246 OFFCURVE",
"291 246 OFFCURVE",
"265 251 CURVE",
"265 120 LINE",
"284 118 OFFCURVE",
"325 115 OFFCURVE",
"378 115 CURVE SMOOTH"
);
},
{
closed = 1;
nodes = (
"271 0 LINE",
"271 743 LINE",
"84 743 LINE",
"84 0 LINE"
);
}
);
width = 680;
}
);
leftKerningGroup = H;
rightKerningGroup = D;
unicode = 00DE;
},
{
glyphname = Q;
lastChange = "2019-02-16 05:39:16 +0000";
layers = (
{
anchors = (
{
name = bottom;
position = "{384, 0}";
},
{
name = btm;
position = "{385, -83}";
},
{
name = top;
position = "{391, 816}";
}
);
components = (
{
name = O;
}
);
layerId = "8BC678DE-46B6-4C98-A96E-C0ED61786D32";
paths = (
{
closed = 1;
nodes = (
"647 -140 OFFCURVE",
"662 -132 OFFCURVE",
"677 -122 CURVE",
"677 -62 LINE",
"656 -70 OFFCURVE",
"636 -73 OFFCURVE",
"610 -73 CURVE SMOOTH",
"522 -73 OFFCURVE",
"493 -37 OFFCURVE",
"454 25 CURVE",
"415 25 LINE",
"378 11 LINE",
"459 -110 OFFCURVE",
"504 -140 OFFCURVE",
"611 -140 CURVE SMOOTH"
);
}
);
width = 767;
},
{
anchors = (
{
name = bottom;
position = "{383, 0}";
},
{
name = btm;
position = "{383, -83}";
},
{
name = top;
position = "{383, 830}";
}
);
components = (
{
name = O;
}
);
layerId = "DB9867C4-88B4-4207-8D32-C8AFE6754240";
paths = (
{
closed = 1;
nodes = (
"636 -144 OFFCURVE",
"653 -134 OFFCURVE",
"668 -124 CURVE",
"668 -46 LINE",
"645 -54 OFFCURVE",
"623 -55 OFFCURVE",
"598 -55 CURVE SMOOTH",
"523 -55 OFFCURVE",
"497 -30 OFFCURVE",
"458 33 CURVE",
"406 33 LINE",
"358 16 LINE",
"444 -114 OFFCURVE",
"489 -144 OFFCURVE",
"598 -144 CURVE SMOOTH"
);
}
);
width = 766;
},
{
anchors = (
{
name = bottom;
position = "{390, 0}";
},
{
name = btm;
position = "{389, -83}";
},
{
name = top;
position = "{389, 830}";
}
);
components = (
{
name = O;
}
);
layerId = "ADDB461F-7E69-4B45-B56F-E3E322F9570B";
paths = (
{
closed = 1;
nodes = (
"646 -159 OFFCURVE",
"683 -145 OFFCURVE",
"697 -134 CURVE",
"697 -27 LINE",
"674 -35 OFFCURVE",
"645 -40 OFFCURVE",
"618 -40 CURVE SMOOTH",
"521 -40 OFFCURVE",
"487 -35 OFFCURVE",
"468 33 CURVE",
"419 33 LINE",
"345 6 LINE",
"379 -122 OFFCURVE",
"450 -159 OFFCURVE",
"600 -159 CURVE SMOOTH"
);
}
);
width = 779;
},
{
anchors = (
{
name = bottom;
position = "{392, 0}";
},
{
name = btm;
position = "{392, -83}";
},
{
name = top;
position = "{392, 830}";
}
);
components = (
{
name = O;
}
);
layerId = "23A20576-2241-481A-AD5B-28E85381F753";
paths = (
{
closed = 1;
nodes = (
"643 -173 OFFCURVE",
"676 -160 OFFCURVE",
"694 -151 CURVE",
"694 -26 LINE",
"674 -33 OFFCURVE",
"645 -40 OFFCURVE",
"617 -40 CURVE SMOOTH",
"526 -40 OFFCURVE",
"493 -32 OFFCURVE",
"476 27 CURVE",
"425 27 LINE",
"336 4 LINE",
"373 -127 OFFCURVE",
"431 -173 OFFCURVE",
"596 -173 CURVE SMOOTH"
);
}
);
width = 783;
}
);
leftKerningGroup = O;
rightKerningGroup = Q;
unicode = 0051;
},
{
color = 4;
glyphname = R;
lastChange = "2019-02-16 05:39:16 +0000";
layers = (
{
anchors = (
{
name = bottom;
position = "{332, 0}";
},
{
name = btm;
position = "{336, -83}";
},
{
name = top;
position = "{313, 830}";
}
);
layerId = "8BC678DE-46B6-4C98-A96E-C0ED61786D32";
paths = (
{
closed = 1;
nodes = (
"183 324 LINE",
"281 323 OFFCURVE",
"341 322 OFFCURVE",
"389 329 CURVE SMOOTH",
"502 344 OFFCURVE",
"580 417 OFFCURVE",
"580 545 CURVE SMOOTH",
"580 696 OFFCURVE",
"476 750 OFFCURVE",
"325 750 CURVE SMOOTH",
"261 750 OFFCURVE",
"196 744 OFFCURVE",
"149 744 CURVE SMOOTH",
"144 744 OFFCURVE",
"101 743 OFFCURVE",
"101 743 CURVE",
"101 0 LINE",
"183 0 LINE"
);
},
{
closed = 1;
nodes = (
"183 681 LINE",
"213 687 OFFCURVE",
"268 689 OFFCURVE",
"312 689 CURVE SMOOTH",
"439 689 OFFCURVE",
"496 647 OFFCURVE",
"496 541 CURVE SMOOTH",
"495 433 OFFCURVE",
"426 380 OFFCURVE",
"322 379 CURVE SMOOTH",
"293 379 OFFCURVE",
"207 380 OFFCURVE",
"183 382 CURVE"
);
},
{
closed = 1;
nodes = (
"632 0 LINE",
"623 14 OFFCURVE",
"614 31 OFFCURVE",
"604 50 CURVE SMOOTH",
"551 145 OFFCURVE",
"494 319 OFFCURVE",
"411 345 CURVE",
"361 351 LINE",
"327 326 LINE",
"414 314 OFFCURVE",
"468 140 OFFCURVE",
"512 50 CURVE SMOOTH",
"525 21 OFFCURVE",
"530 10 OFFCURVE",
"538 0 CURVE"
);
}
);
width = 664;
},
{
anchors = (
{
name = bottom;
position = "{334, 0}";
},
{
name = btm;
position = "{336, -83}";
},
{
name = top;
position = "{317, 830}";
}
);
layerId = "DB9867C4-88B4-4207-8D32-C8AFE6754240";
paths = (
{
closed = 1;
nodes = (
"204 316 LINE",
"325 316 OFFCURVE",
"358 317 OFFCURVE",
"399 323 CURVE SMOOTH",
"513 341 OFFCURVE",
"584 412 OFFCURVE",
"584 542 CURVE SMOOTH",
"584 690 OFFCURVE",
"483 751 OFFCURVE",
"332 751 CURVE SMOOTH",
"260 751 OFFCURVE",
"190 743 OFFCURVE",
"142 743 CURVE SMOOTH",
"126 743 OFFCURVE",
"111 743 OFFCURVE",
"95 743 CURVE",
"95 0 LINE",
"204 0 LINE"
);
},
{
closed = 1;
nodes = (
"204 662 LINE",
"235 668 OFFCURVE",
"275 671 OFFCURVE",
"315 671 CURVE SMOOTH",
"430 671 OFFCURVE",
"473 629 OFFCURVE",
"473 537 CURVE SMOOTH",
"473 434 OFFCURVE",
"415 391 OFFCURVE",
"318 391 CURVE SMOOTH",
"292 391 OFFCURVE",
"225 391 OFFCURVE",
"204 394 CURVE"
);
},
{
closed = 1;
nodes = (
"638 0 LINE",
"627 18 OFFCURVE",
"618 36 OFFCURVE",
"608 55 CURVE SMOOTH",
"555 151 OFFCURVE",
"513 311 OFFCURVE",
"434 345 CURVE",
"369 354 LINE",
"323 320 LINE",
"408 305 OFFCURVE",
"446 145 OFFCURVE",
"487 55 CURVE SMOOTH",
"502 23 OFFCURVE",
"505 13 OFFCURVE",
"514 0 CURVE"
);
}
);
width = 667;
},
{
anchors = (
{
name = bottom;
position = "{351, 0}";
},
{
name = btm;
position = "{358, -83}";
},
{
name = top;
position = "{339, 830}";
}
);
layerId = "ADDB461F-7E69-4B45-B56F-E3E322F9570B";
paths = (
{
closed = 1;
nodes = (
"247 281 LINE",
"365 281 OFFCURVE",
"399 287 OFFCURVE",
"439 293 CURVE SMOOTH",
"556 312 OFFCURVE",
"628 375 OFFCURVE",
"628 526 CURVE SMOOTH",
"628 702 OFFCURVE",
"500 751 OFFCURVE",
"361 751 CURVE SMOOTH",
"254 751 OFFCURVE",
"209 743 OFFCURVE",
"164 743 CURVE SMOOTH",
"140 743 OFFCURVE",
"116 743 OFFCURVE",
"92 743 CURVE",
"92 0 LINE",
"247 0 LINE"
);
},
{
closed = 1;
nodes = (
"247 626 LINE",
"274 633 OFFCURVE",
"309 635 OFFCURVE",
"342 635 CURVE SMOOTH",
"458 635 OFFCURVE",
"478 580 OFFCURVE",
"478 522 CURVE SMOOTH",
"478 453 OFFCURVE",
"443 390 OFFCURVE",
"349 390 CURVE SMOOTH",
"324 390 OFFCURVE",
"268 390 OFFCURVE",
"247 393 CURVE"
);
},
{
closed = 1;
nodes = (
"674 0 LINE",
"664 18 OFFCURVE",
"654 36 OFFCURVE",
"644 54 CURVE SMOOTH",
"588 150 OFFCURVE",
"558 293 OFFCURVE",
"478 327 CURVE",
"384 318 LINE",
"345 283 LINE",
"417 282 OFFCURVE",
"432 141 OFFCURVE",
"474 54 CURVE SMOOTH",
"489 22 OFFCURVE",
"493 13 OFFCURVE",
"501 0 CURVE"
);
}
);
width = 701;
},
{
anchors = (
{
name = bottom;
position = "{359, 0}";
},
{
name = btm;
position = "{366, -83}";
},
{
name = top;
position = "{347, 830}";
}
);
layerId = "23A20576-2241-481A-AD5B-28E85381F753";
paths = (
{
closed = 1;
nodes = (
"270 263 LINE",
"386 263 OFFCURVE",
"412 271 OFFCURVE",
"451 278 CURVE SMOOTH",
"568 296 OFFCURVE",
"649 363 OFFCURVE",
"649 515 CURVE SMOOTH",
"649 702 OFFCURVE",
"503 751 OFFCURVE",
"372 751 CURVE SMOOTH",
"266 751 OFFCURVE",
"201 743 OFFCURVE",
"148 743 CURVE SMOOTH",
"127 743 OFFCURVE",
"105 743 OFFCURVE",
"84 743 CURVE",
"84 0 LINE",
"270 0 LINE"
);
},
{
closed = 1;
nodes = (
"270 611 LINE",
"293 617 OFFCURVE",
"322 620 OFFCURVE",
"349 620 CURVE SMOOTH",
"447 620 OFFCURVE",
"470 567 OFFCURVE",
"470 512 CURVE SMOOTH",
"470 443 OFFCURVE",
"437 388 OFFCURVE",
"361 388 CURVE SMOOTH",
"337 388 OFFCURVE",
"290 389 OFFCURVE",
"270 392 CURVE"
);
},
{
closed = 1;
nodes = (
"699 0 LINE",
"689 18 OFFCURVE",
"678 36 OFFCURVE",
"668 54 CURVE SMOOTH",
"612 151 OFFCURVE",
"584 281 OFFCURVE",
"509 315 CURVE",
"391 299 LINE",
"348 265 LINE",
"410 264 OFFCURVE",
"427 142 OFFCURVE",
"467 53 CURVE SMOOTH",
"481 21 OFFCURVE",
"486 10 OFFCURVE",
"494 0 CURVE"
);
}
);
width = 718;
}
);
leftKerningGroup = H;
rightKerningGroup = R;
unicode = 0052;
},
{
color = 4;
glyphname = S;
lastChange = "2019-02-16 05:39:16 +0000";
layers = (
{
anchors = (
{
name = bottom;
position = "{282, 0}";
},
{
name = btm;
position = "{284, -83}";
},
{
name = top;
position = "{302, 830}";
}
);
layerId = "8BC678DE-46B6-4C98-A96E-C0ED61786D32";
paths = (
{
closed = 1;
nodes = (
"421 -8 OFFCURVE",
"521 57 OFFCURVE",
"521 188 CURVE SMOOTH",
"521 306 OFFCURVE",
"411 362 OFFCURVE",
"312 409 CURVE SMOOTH",
"207 460 OFFCURVE",
"147 495 OFFCURVE",
"147 578 CURVE SMOOTH",
"147 652 OFFCURVE",
"229 686 OFFCURVE",
"308 686 CURVE SMOOTH",
"384 686 OFFCURVE",
"431 669 OFFCURVE",
"467 646 CURVE",
"484 711 LINE",
"458 729 OFFCURVE",
"402 751 OFFCURVE",
"308 751 CURVE SMOOTH",
"195 751 OFFCURVE",
"68 704 OFFCURVE",
"68 567 CURVE SMOOTH",
"68 458 OFFCURVE",
"166 389 OFFCURVE",
"263 345 CURVE SMOOTH",
"367 297 OFFCURVE",
"440 264 OFFCURVE",
"440 179 CURVE SMOOTH",
"440 97 OFFCURVE",
"375 58 OFFCURVE",
"272 58 CURVE SMOOTH",
"202 58 OFFCURVE",
"126 80 OFFCURVE",
"86 104 CURVE",
"66 36 LINE",
"93 18 OFFCURVE",
"180 -8 OFFCURVE",
"277 -8 CURVE SMOOTH"
);
}
);
width = 563;
},
{
anchors = (
{
name = bottom;
position = "{277, 0}";
},
{
name = btm;
position = "{273, -83}";
},
{
name = top;
position = "{294, 830}";
}
);
layerId = "DB9867C4-88B4-4207-8D32-C8AFE6754240";
paths = (
{
closed = 1;
nodes = (
"417 -8 OFFCURVE",
"519 57 OFFCURVE",
"519 194 CURVE SMOOTH",
"519 311 OFFCURVE",
"409 372 OFFCURVE",
"313 421 CURVE SMOOTH",
"206 476 OFFCURVE",
"165 502 OFFCURVE",
"165 575 CURVE SMOOTH",
"165 639 OFFCURVE",
"236 666 OFFCURVE",
"307 666 CURVE SMOOTH",
"387 666 OFFCURVE",
"425 647 OFFCURVE",
"459 626 CURVE",
"481 712 LINE",
"455 729 OFFCURVE",
"398 751 OFFCURVE",
"308 751 CURVE SMOOTH",
"188 751 OFFCURVE",
"61 703 OFFCURVE",
"61 560 CURVE SMOOTH",
"61 453 OFFCURVE",
"155 381 OFFCURVE",
"247 336 CURVE SMOOTH",
"352 286 OFFCURVE",
"412 255 OFFCURVE",
"412 182 CURVE SMOOTH",
"412 108 OFFCURVE",
"357 79 OFFCURVE",
"264 79 CURVE SMOOTH",
"196 79 OFFCURVE",
"125 102 OFFCURVE",
"88 124 CURVE",
"63 35 LINE",
"89 18 OFFCURVE",
"173 -8 OFFCURVE",
"271 -8 CURVE SMOOTH"
);
}
);
width = 553;
},
{
anchors = (
{
name = bottom;
position = "{295, 0}";
},
{
name = btm;
position = "{295, -83}";
},
{
name = top;
position = "{317, 830}";
}
);
layerId = "ADDB461F-7E69-4B45-B56F-E3E322F9570B";
paths = (
{
closed = 1;
nodes = (
"449 -8 OFFCURVE",
"553 65 OFFCURVE",
"553 199 CURVE SMOOTH",
"553 320 OFFCURVE",
"465 373 OFFCURVE",
"349 435 CURVE SMOOTH",
"258 482 OFFCURVE",
"220 505 OFFCURVE",
"220 559 CURVE SMOOTH",
"220 604 OFFCURVE",
"249 635 OFFCURVE",
"332 635 CURVE SMOOTH",
"406 635 OFFCURVE",
"458 610 OFFCURVE",
"494 587 CURVE",
"519 708 LINE",
"493 725 OFFCURVE",
"421 751 OFFCURVE",
"327 751 CURVE SMOOTH",
"188 751 OFFCURVE",
"68 697 OFFCURVE",
"68 551 CURVE SMOOTH",
"68 429 OFFCURVE",
"165 363 OFFCURVE",
"252 320 CURVE SMOOTH",
"367 263 OFFCURVE",
"396 242 OFFCURVE",
"396 189 CURVE SMOOTH",
"396 140 OFFCURVE",
"370 114 OFFCURVE",
"288 114 CURVE SMOOTH",
"208 114 OFFCURVE",
"138 138 OFFCURVE",
"96 161 CURVE",
"74 36 LINE",
"102 19 OFFCURVE",
"200 -8 OFFCURVE",
"297 -8 CURVE SMOOTH"
);
}
);
width = 589;
},
{
anchors = (
{
name = bottom;
position = "{300, 0}";
},
{
name = btm;
position = "{296, -83}";
},
{
name = top;
position = "{324, 830}";
}
);
layerId = "23A20576-2241-481A-AD5B-28E85381F753";
paths = (
{
closed = 1;
nodes = (
"473 -8 OFFCURVE",
"569 79 OFFCURVE",
"569 212 CURVE SMOOTH",
"569 329 OFFCURVE",
"493 386 OFFCURVE",
"365 443 CURVE SMOOTH",
"275 484 OFFCURVE",
"237 509 OFFCURVE",
"237 554 CURVE SMOOTH",
"237 591 OFFCURVE",
"269 616 OFFCURVE",
"339 616 CURVE SMOOTH",
"404 616 OFFCURVE",
"474 592 OFFCURVE",
"504 569 CURVE",
"533 708 LINE",
"506 724 OFFCURVE",
"435 751 OFFCURVE",
"323 751 CURVE SMOOTH",
"166 751 OFFCURVE",
"58 683 OFFCURVE",
"58 547 CURVE SMOOTH",
"58 428 OFFCURVE",
"138 362 OFFCURVE",
"232 317 CURVE SMOOTH",
"343 264 OFFCURVE",
"383 246 OFFCURVE",
"383 198 CURVE SMOOTH",
"383 154 OFFCURVE",
"353 135 OFFCURVE",
"283 135 CURVE SMOOTH",
"205 135 OFFCURVE",
"123 162 OFFCURVE",
"86 183 CURVE",
"63 38 LINE",
"92 20 OFFCURVE",
"192 -8 OFFCURVE",
"298 -8 CURVE SMOOTH"
);
}
);
width = 600;
}
);
leftKerningGroup = S;
rightKerningGroup = S;
unicode = 0053;
},
{
color = 4;
glyphname = Germandbls;
lastChange = "2019-02-16 05:39:16 +0000";
layers = (
{
anchors = (
{
name = bottom;
position = "{357, 0}";
},
{
name = top;
position = "{357, 743}";
}
);
layerId = "8BC678DE-46B6-4C98-A96E-C0ED61786D32";
paths = (
{
closed = 1;
nodes = (
"134 0 LINE",
"134 409 LINE SMOOTH",
"134 595 OFFCURVE",
"237 691 OFFCURVE",
"376 691 CURVE SMOOTH",
"438 691 OFFCURVE",
"481 675 OFFCURVE",
"508 655 CURVE",
"362 424 LINE",
"358 395 LINE",
"522 395 OFFCURVE",
"591 353 OFFCURVE",
"591 227 CURVE SMOOTH",
"591 120 OFFCURVE",
"521 52 OFFCURVE",
"431 52 CURVE SMOOTH",
"369 52 OFFCURVE",
"309 72 OFFCURVE",
"281 95 CURVE",
"251 31 LINE",
"289 8 OFFCURVE",
"336 -11 OFFCURVE",
"441 -11 CURVE SMOOTH",
"593 -11 OFFCURVE",
"669 104 OFFCURVE",
"669 227 CURVE SMOOTH {name = hr02;}",
"669 378 OFFCURVE",
"569 442 OFFCURVE",
"449 442 CURVE",
"603 672 LINE",
"604 706 LINE",
"554 706 OFFCURVE",
"507 751 OFFCURVE",
"375 751 CURVE SMOOTH",
"156 751 OFFCURVE",
"51 605 OFFCURVE",
"51 368 CURVE SMOOTH",
"51 0 LINE {name = hr01;}"
);
}
);
width = 714;
},
{
anchors = (
{
name = bottom;
position = "{365, 0}";
},
{
name = top;
position = "{365, 743}";
}
);
layerId = "DB9867C4-88B4-4207-8D32-C8AFE6754240";
paths = (
{
closed = 1;
nodes = (
"163 0 LINE",
"163 424 LINE SMOOTH",
"163 592 OFFCURVE",
"266 671 OFFCURVE",
"392 671 CURVE SMOOTH",
"434 671 OFFCURVE",
"473 660 OFFCURVE",
"498 641 CURVE",
"375 425 LINE",
"370 385 LINE",
"530 385 OFFCURVE",
"583 343 OFFCURVE",
"583 226 CURVE SMOOTH",
"583 122 OFFCURVE",
"512 73 OFFCURVE",
"441 73 CURVE SMOOTH",
"389 73 OFFCURVE",
"328 93 OFFCURVE",
"305 116 CURVE",
"265 31 LINE",
"303 8 OFFCURVE",
"351 -11 OFFCURVE",
"455 -11 CURVE SMOOTH",
"610 -11 OFFCURVE",
"690 103 OFFCURVE",
"690 227 CURVE SMOOTH {name = hr02;}",
"690 377 OFFCURVE",
"597 448 OFFCURVE",
"493 448 CURVE",
"620 657 LINE",
"621 706 LINE",
"571 706 OFFCURVE",
"521 751 OFFCURVE",
"389 751 CURVE SMOOTH",
"161 751 OFFCURVE",
"51 605 OFFCURVE",
"51 368 CURVE SMOOTH",
"51 0 LINE {name = hr01;}"
);
}
);
width = 730;
},
{
anchors = (
{
name = bottom;
position = "{371, 0}";
},
{
name = top;
position = "{371, 743}";
}
);
layerId = "ADDB461F-7E69-4B45-B56F-E3E322F9570B";
paths = (
{
closed = 1;
nodes = (
"216 0 LINE",
"216 424 LINE SMOOTH",
"216 567 OFFCURVE",
"289 638 OFFCURVE",
"414 638 CURVE SMOOTH",
"455 638 OFFCURVE",
"488 629 OFFCURVE",
"509 617 CURVE",
"371 437 LINE",
"368 355 LINE",
"510 355 OFFCURVE",
"565 316 OFFCURVE",
"565 223 CURVE SMOOTH",
"565 138 OFFCURVE",
"503 103 OFFCURVE",
"448 103 CURVE SMOOTH",
"397 103 OFFCURVE",
"352 124 OFFCURVE",
"330 140 CURVE",
"288 28 LINE",
"324 8 OFFCURVE",
"373 -11 OFFCURVE",
"478 -11 CURVE SMOOTH",
"633 -11 OFFCURVE",
"731 89 OFFCURVE",
"731 234 CURVE SMOOTH",
"731 373 OFFCURVE",
"623 438 OFFCURVE",
"552 438 CURVE",
"675 584 LINE {name = hr00;}",
"676 704 LINE",
"626 704 OFFCURVE",
"544 751 OFFCURVE",
"411 751 CURVE SMOOTH",
"175 751 OFFCURVE",
"50 605 OFFCURVE",
"50 368 CURVE SMOOTH",
"50 0 LINE"
);
}
);
width = 741;
},
{
anchors = (
{
name = bottom;
position = "{373, 0}";
},
{
name = top;
position = "{373, 743}";
}
);
layerId = "23A20576-2241-481A-AD5B-28E85381F753";
paths = (
{
closed = 1;
nodes = (
"239 0 LINE",
"239 424 LINE SMOOTH",
"239 557 OFFCURVE",
"298 624 OFFCURVE",
"423 624 CURVE SMOOTH",
"464 624 OFFCURVE",
"494 617 OFFCURVE",
"513 607 CURVE",
"369 441 LINE",
"367 343 LINE",
"502 343 OFFCURVE",
"557 305 OFFCURVE",
"557 222 CURVE SMOOTH",
"557 145 OFFCURVE",
"500 116 OFFCURVE",
"451 116 CURVE SMOOTH",
"400 116 OFFCURVE",
"363 137 OFFCURVE",
"341 149 CURVE",
"297 27 LINE",
"333 9 OFFCURVE",
"382 -11 OFFCURVE",
"487 -11 CURVE SMOOTH",
"642 -11 OFFCURVE",
"750 83 OFFCURVE",
"750 237 CURVE SMOOTH",
"750 371 OFFCURVE",
"633 435 OFFCURVE",
"577 435 CURVE",
"699 554 LINE",
"699 704 LINE",
"649 704 OFFCURVE",
"553 751 OFFCURVE",
"420 751 CURVE SMOOTH",
"181 751 OFFCURVE",
"50 606 OFFCURVE",
"50 368 CURVE SMOOTH",
"50 0 LINE"
);
}
);
width = 745;
}
);
leftKerningGroup = S;
rightKerningGroup = S;
unicode = 1E9E;
},
{
color = 4;
glyphname = Schwa;
lastChange = "2019-02-16 05:39:16 +0000";
layers = (
{
anchors = (
{
name = bottom;
position = "{369, 0}";
},
{
name = btm;
position = "{361, -83}";
},
{
name = top;
position = "{357, 831}";
}
);
background = {
paths = (
{
closed = 1;
nodes = (
"682 620 OFFCURVE",
"530 751 OFFCURVE",
"338 751 CURVE SMOOTH",
"232 751 OFFCURVE",
"191 732 OFFCURVE",
"133 721 CURVE",
"136 647 LINE",
"178 666 OFFCURVE",
"239 686 OFFCURVE",
"343 686 CURVE SMOOTH",
"482 686 OFFCURVE",
"596 579 OFFCURVE",
"596 376 CURVE SMOOTH",
"596 190 OFFCURVE",
"507 56 OFFCURVE",
"345 56 CURVE SMOOTH",
"266 56 OFFCURVE",
"199 74 OFFCURVE",
"171 88 CURVE",
"171 317 LINE",
"148 301 LINE",
"325 307 LINE",
"325 366 LINE",
"91 366 LINE",
"91 44 LINE",
"132 42 OFFCURVE",
"194 -8 OFFCURVE",
"344 -8 CURVE SMOOTH",
"557 -8 OFFCURVE",
"682 152 OFFCURVE",
"682 366 CURVE SMOOTH"
);
}
);
};
layerId = "8BC678DE-46B6-4C98-A96E-C0ED61786D32";
paths = (
{
closed = 1;
nodes = (
"561 -8 OFFCURVE",
"682 140 OFFCURVE",
"682 372 CURVE SMOOTH",
"682 623 OFFCURVE",
"532 754 OFFCURVE",
"345 752 CURVE SMOOTH",
"235 751 OFFCURVE",
"146 709 OFFCURVE",
"92 652 CURVE",
"114 587 LINE",
"165 646 OFFCURVE",
"246 686 OFFCURVE",
"358 686 CURVE SMOOTH",
"493 686 OFFCURVE",
"596 579 OFFCURVE",
"596 376 CURVE SMOOTH",
"596 190 OFFCURVE",
"509 56 OFFCURVE",
"350 56 CURVE SMOOTH",
"196 56 OFFCURVE",
"130 190 OFFCURVE",
"136 313 CURVE",
"608 313 LINE",
"621 377 LINE",
"61 377 LINE",
"57 346 OFFCURVE",
"54 331 OFFCURVE",
"54 313 CURVE SMOOTH",
"54 86 OFFCURVE",
"202 -8 OFFCURVE",
"333 -8 CURVE SMOOTH"
);
}
);
width = 737;
},
{
anchors = (
{
name = bottom;
position = "{374, 0}";
},
{
name = btm;
position = "{361, -83}";
},
{
name = top;
position = "{357, 831}";
}
);
background = {
paths = (
{
closed = 1;
nodes = (
"698 623 OFFCURVE",
"545 751 OFFCURVE",
"353 751 CURVE SMOOTH",
"242 751 OFFCURVE",
"210 734 OFFCURVE",
"145 722 CURVE",
"150 624 LINE",
"198 648 OFFCURVE",
"251 666 OFFCURVE",
"360 666 CURVE SMOOTH",
"490 666 OFFCURVE",
"585 561 OFFCURVE",
"585 381 CURVE SMOOTH",
"585 209 OFFCURVE",
"512 75 OFFCURVE",
"355 75 CURVE SMOOTH",
"302 75 OFFCURVE",
"236 84 OFFCURVE",
"208 103 CURVE",
"208 306 LINE",
"178 286 LINE",
"343 293 LINE",
"343 372 LINE",
"103 372 LINE",
"103 46 LINE",
"146 43 OFFCURVE",
"203 -8 OFFCURVE",
"353 -8 CURVE SMOOTH",
"573 -8 OFFCURVE",
"698 153 OFFCURVE",
"698 368 CURVE SMOOTH"
);
}
);
};
layerId = "DB9867C4-88B4-4207-8D32-C8AFE6754240";
paths = (
{
closed = 1;
nodes = (
"575 -8 OFFCURVE",
"698 140 OFFCURVE",
"698 372 CURVE SMOOTH",
"698 623 OFFCURVE",
"545 754 OFFCURVE",
"362 752 CURVE SMOOTH",
"242 751 OFFCURVE",
"145 718 OFFCURVE",
"85 658 CURVE",
"112 570 LINE",
"169 632 OFFCURVE",
"251 666 OFFCURVE",
"360 666 CURVE SMOOTH",
"490 666 OFFCURVE",
"585 561 OFFCURVE",
"585 381 CURVE SMOOTH",
"585 209 OFFCURVE",
"512 75 OFFCURVE",
"355 75 CURVE SMOOTH",
"198 75 OFFCURVE",
"149 203 OFFCURVE",
"155 313 CURVE",
"623 313 LINE",
"636 402 LINE",
"56 402 LINE",
"52 371 OFFCURVE",
"49 351 OFFCURVE",
"49 297 CURVE SMOOTH",
"49 86 OFFCURVE",
"191 -8 OFFCURVE",
"342 -8 CURVE SMOOTH"
);
}
);
width = 747;
},
{
anchors = (
{
name = bottom;
position = "{376, 0}";
},
{
name = btm;
position = "{361, -83}";
},
{
name = top;
position = "{357, 831}";
}
);
background = {
paths = (
{
closed = 1;
nodes = (
"717 634 OFFCURVE",
"555 751 OFFCURVE",
"347 751 CURVE SMOOTH",
"234 751 OFFCURVE",
"202 734 OFFCURVE",
"137 722 CURVE",
"141 588 LINE",
"188 611 OFFCURVE",
"238 628 OFFCURVE",
"346 628 CURVE SMOOTH",
"475 628 OFFCURVE",
"556 536 OFFCURVE",
"556 381 CURVE SMOOTH",
"556 231 OFFCURVE",
"497 111 OFFCURVE",
"368 111 CURVE SMOOTH",
"310 111 OFFCURVE",
"272 119 OFFCURVE",
"244 130 CURVE",
"244 299 LINE",
"219 278 LINE",
"357 285 LINE",
"357 400 LINE",
"96 400 LINE",
"96 44 LINE",
"141 42 OFFCURVE",
"203 -8 OFFCURVE",
"362 -8 CURVE SMOOTH",
"588 -8 OFFCURVE",
"717 140 OFFCURVE",
"717 368 CURVE SMOOTH"
);
}
);
};
layerId = "ADDB461F-7E69-4B45-B56F-E3E322F9570B";
paths = (
{
closed = 1;
nodes = (
"580 -8 OFFCURVE",
"703 140 OFFCURVE",
"703 372 CURVE SMOOTH",
"703 634 OFFCURVE",
"541 751 OFFCURVE",
"360 752 CURVE SMOOTH",
"230 753 OFFCURVE",
"135 707 OFFCURVE",
"88 673 CURVE",
"120 557 LINE",
"171 592 OFFCURVE",
"252 628 OFFCURVE",
"358 628 CURVE SMOOTH",
"471 628 OFFCURVE",
"549 536 OFFCURVE",
"549 381 CURVE SMOOTH",
"549 231 OFFCURVE",
"492 111 OFFCURVE",
"358 114 CURVE SMOOTH",
"261 116 OFFCURVE",
"190 203 OFFCURVE",
"196 313 CURVE",
"572 313 LINE",
"585 424 LINE",
"55 424 LINE",
"51 393 OFFCURVE",
"48 373 OFFCURVE",
"48 319 CURVE SMOOTH",
"48 90 OFFCURVE",
"196 -8 OFFCURVE",
"347 -8 CURVE SMOOTH"
);
}
);
width = 751;
},
{
anchors = (
{
name = bottom;
position = "{374, 0}";
},
{
name = btm;
position = "{361, -83}";
},
{
name = top;
position = "{357, 831}";
}
);
background = {
anchors = (
{
name = btm;
position = "{430, -83}";
},
{
name = top;
position = "{447, 831}";
}
);
paths = (
{
closed = 1;
nodes = (
"716 643 OFFCURVE",
"547 751 OFFCURVE",
"332 751 CURVE SMOOTH",
"223 751 OFFCURVE",
"175 732 OFFCURVE",
"118 722 CURVE",
"123 566 LINE",
"162 586 OFFCURVE",
"225 605 OFFCURVE",
"324 605 CURVE SMOOTH",
"453 605 OFFCURVE",
"527 521 OFFCURVE",
"527 381 CURVE SMOOTH",
"527 237 OFFCURVE",
"467 131 OFFCURVE",
"356 131 CURVE SMOOTH",
"304 131 OFFCURVE",
"272 137 OFFCURVE",
"248 146 CURVE",
"248 297 LINE",
"230 275 LINE",
"354 284 LINE",
"354 417 LINE",
"78 417 LINE",
"78 42 LINE",
"136 40 OFFCURVE",
"184 -8 OFFCURVE",
"353 -8 CURVE SMOOTH",
"574 -8 OFFCURVE",
"716 131 OFFCURVE",
"716 368 CURVE SMOOTH"
);
}
);
};
layerId = "23A20576-2241-481A-AD5B-28E85381F753";
paths = (
{
closed = 1;
nodes = (
"572 -8 OFFCURVE",
"702 155 OFFCURVE",
"702 372 CURVE SMOOTH",
"702 643 OFFCURVE",
"540 751 OFFCURVE",
"361 752 CURVE SMOOTH",
"229 753 OFFCURVE",
"134 707 OFFCURVE",
"87 673 CURVE",
"123 543 LINE",
"174 578 OFFCURVE",
"231 605 OFFCURVE",
"339 605 CURVE SMOOTH",
"450 605 OFFCURVE",
"521 521 OFFCURVE",
"521 381 CURVE SMOOTH",
"521 237 OFFCURVE",
"463 131 OFFCURVE",
"357 131 CURVE SMOOTH",
"260 131 OFFCURVE",
"217 203 OFFCURVE",
"223 313 CURVE",
"571 313 LINE",
"584 433 LINE",
"52 433 LINE",
"48 402 OFFCURVE",
"45 382 OFFCURVE",
"45 328 CURVE SMOOTH",
"45 87 OFFCURVE",
"195 -8 OFFCURVE",
"346 -8 CURVE SMOOTH"
);
}
);
width = 748;
}
);
leftKerningGroup = O;
leftMetricsKey = O;
rightKerningGroup = O;
rightMetricsKey = O;
unicode = 018F;
},
{
color = 4;
glyphname = T;
lastChange = "2019-02-16 05:39:16 +0000";
layers = (
{
anchors = (
{
name = bottom;
position = "{313, 0}";
},
{
name = btm;
position = "{311, -83}";
},
{
name = center;
position = "{313, 372}";
},
{
name = top;
position = "{309, 830}";
}
);
layerId = "8BC678DE-46B6-4C98-A96E-C0ED61786D32";
paths = (
{
closed = 1;
nodes = (
"354 0 LINE",
"354 679 LINE",
"597 679 LINE",
"597 743 LINE",
"30 743 LINE",
"30 679 LINE",
"270 679 LINE",
"270 0 LINE"
);
}
);
width = 625;
},
{
anchors = (
{
name = bottom;
position = "{318, 0}";
},
{
name = btm;
position = "{314, -83}";
},
{
name = center;
position = "{318, 372}";
},
{
name = top;
position = "{314, 830}";
}
);
layerId = "DB9867C4-88B4-4207-8D32-C8AFE6754240";
paths = (
{
closed = 1;
nodes = (
"373 0 LINE",
"373 659 LINE",
"605 659 LINE",
"605 743 LINE",
"31 743 LINE",
"31 659 LINE",
"263 659 LINE",
"263 0 LINE"
);
}
);
width = 636;
},
{
anchors = (
{
name = bottom;
position = "{305, 0}";
},
{
name = btm;
position = "{303, -83}";
},
{
name = center;
position = "{305, 372}";
},
{
name = top;
position = "{303, 830}";
}
);
layerId = "ADDB461F-7E69-4B45-B56F-E3E322F9570B";
paths = (
{
closed = 1;
nodes = (
"384 0 LINE",
"384 624 LINE",
"596 624 LINE",
"596 743 LINE",
"15 743 LINE",
"15 624 LINE",
"228 624 LINE",
"228 0 LINE"
);
}
);
width = 610;
},
{
anchors = (
{
name = bottom;
position = "{306, 0}";
},
{
name = btm;
position = "{305, -83}";
},
{
name = center;
position = "{306, 372}";
},
{
name = top;
position = "{305, 830}";
}
);
layerId = "23A20576-2241-481A-AD5B-28E85381F753";
paths = (
{
closed = 1;
nodes = (
"400 0 LINE",
"400 600 LINE",
"598 600 LINE",
"598 743 LINE",
"14 743 LINE",
"14 600 LINE",
"212 600 LINE",
"212 0 LINE"
);
}
);
width = 612;
}
);
leftKerningGroup = T;
rightKerningGroup = T;
unicode = 0054;
},
{
glyphname = Tbar;
lastChange = "2019-01-21 06:08:13 +0000";
layers = (
{
components = (
{
name = T;
}
);
layerId = "8BC678DE-46B6-4C98-A96E-C0ED61786D32";
paths = (
{
closed = 1;
nodes = (
"500 325 LINE",
"500 380 LINE",
"124 380 LINE",
"124 325 LINE"
);
}
);
width = 625;
},
{
components = (
{
name = T;
}
);
layerId = "DB9867C4-88B4-4207-8D32-C8AFE6754240";
paths = (
{
closed = 1;
nodes = (
"517 318 LINE",
"517 389 LINE",
"122 389 LINE",
"122 318 LINE"
);
}
);
width = 636;
},
{
components = (
{
name = T;
}
);
layerId = "ADDB461F-7E69-4B45-B56F-E3E322F9570B";
paths = (
{
closed = 1;
nodes = (
"525 292 LINE",
"525 389 LINE",
"94 389 LINE",
"94 292 LINE"
);
}
);
width = 610;
},
{
components = (
{
name = T;
}
);
layerId = "23A20576-2241-481A-AD5B-28E85381F753";
paths = (
{
closed = 1;
nodes = (
"539 272 LINE",
"539 389 LINE",
"86 389 LINE",
"86 272 LINE"
);
}
);
width = 612;
}
);
leftKerningGroup = T;
rightKerningGroup = T;
unicode = 0166;
},
{
color = 4;
glyphname = U;
lastChange = "2019-02-16 05:39:16 +0000";
layers = (
{
anchors = (
{
name = bottom;
position = "{360, 0}";
},
{
name = btm;
position = "{366, -83}";
},
{
name = ogonek;
position = "{648, 10}";
},
{
name = top;
position = "{365, 830}";
},
{
name = topright;
position = "{700, 743}";
}
);
layerId = "8BC678DE-46B6-4C98-A96E-C0ED61786D32";
paths = (
{
closed = 1;
nodes = (
"546 -8 OFFCURVE",
"637 101 OFFCURVE",
"637 315 CURVE SMOOTH",
"637 743 LINE",
"555 743 LINE",
"555 334 LINE SMOOTH",
"555 121 OFFCURVE",
"483 57 OFFCURVE",
"366 57 CURVE SMOOTH",
"240 57 OFFCURVE",
"166 118 OFFCURVE",
"166 334 CURVE SMOOTH",
"166 744 LINE",
"83 744 LINE",
"83 314 LINE SMOOTH",
"83 105 OFFCURVE",
"167 -8 OFFCURVE",
"363 -8 CURVE SMOOTH"
);
}
);
width = 720;
},
{
anchors = (
{
name = bottom;
position = "{357, 0}";
},
{
name = btm;
position = "{363, -83}";
},
{
name = ogonek;
position = "{643, 10}";
},
{
name = top;
position = "{364, 830}";
},
{
name = topright;
position = "{694, 743}";
}
);
layerId = "DB9867C4-88B4-4207-8D32-C8AFE6754240";
paths = (
{
closed = 1;
nodes = (
"548 -8 OFFCURVE",
"637 105 OFFCURVE",
"637 308 CURVE SMOOTH",
"637 743 LINE",
"529 743 LINE",
"529 335 LINE SMOOTH",
"529 130 OFFCURVE",
"466 77 OFFCURVE",
"365 77 CURVE SMOOTH",
"251 77 OFFCURVE",
"186 130 OFFCURVE",
"186 335 CURVE SMOOTH",
"187 743 LINE",
"78 743 LINE",
"78 309 LINE SMOOTH",
"77 108 OFFCURVE",
"158 -8 OFFCURVE",
"362 -8 CURVE SMOOTH"
);
}
);
width = 714;
},
{
anchors = (
{
name = bottom;
position = "{373, 0}";
},
{
name = btm;
position = "{374, -83}";
},
{
name = ogonek;
position = "{671, 10}";
},
{
name = top;
position = "{375, 830}";
},
{
name = topright;
position = "{725, 743}";
}
);
layerId = "ADDB461F-7E69-4B45-B56F-E3E322F9570B";
paths = (
{
closed = 1;
nodes = (
"570 -8 OFFCURVE",
"672 104 OFFCURVE",
"672 313 CURVE SMOOTH",
"672 743 LINE",
"519 743 LINE",
"519 327 LINE SMOOTH",
"519 162 OFFCURVE",
"468 116 OFFCURVE",
"375 116 CURVE SMOOTH",
"279 116 OFFCURVE",
"227 154 OFFCURVE",
"227 327 CURVE SMOOTH",
"228 743 LINE",
"74 743 LINE",
"73 319 LINE SMOOTH",
"73 122 OFFCURVE",
"147 -8 OFFCURVE",
"370 -8 CURVE SMOOTH"
);
}
);
width = 745;
},
{
anchors = (
{
name = bottom;
position = "{377, 0}";
},
{
name = btm;
position = "{375, -83}";
},
{
name = ogonek;
position = "{679, 10}";
},
{
name = top;
position = "{377, 830}";
},
{
name = topright;
position = "{734, 743}";
}
);
layerId = "23A20576-2241-481A-AD5B-28E85381F753";
paths = (
{
closed = 1;
nodes = (
"595 -8 OFFCURVE",
"688 110 OFFCURVE",
"688 309 CURVE SMOOTH",
"688 743 LINE",
"504 743 LINE",
"504 334 LINE SMOOTH",
"504 182 OFFCURVE",
"462 139 OFFCURVE",
"378 139 CURVE SMOOTH",
"295 139 OFFCURVE",
"251 178 OFFCURVE",
"252 334 CURVE SMOOTH",
"254 743 LINE",
"69 743 LINE",
"67 312 LINE SMOOTH",
"67 120 OFFCURVE",
"151 -8 OFFCURVE",
"381 -8 CURVE SMOOTH"
);
}
);
width = 754;
}
);
leftKerningGroup = U;
rightKerningGroup = U;
unicode = 0055;
},
{
color = 4;
glyphname = V;
lastChange = "2019-02-16 05:39:16 +0000";
layers = (
{
anchors = (
{
name = bottom;
position = "{325, 0}";
},
{
name = btm;
position = "{328, -83}";
},
{
name = top;
position = "{328, 830}";
}
);
layerId = "8BC678DE-46B6-4C98-A96E-C0ED61786D32";
paths = (
{
closed = 1;
nodes = (
"365 -8 LINE",
"635 743 LINE",
"548 743 LINE",
"368 213 LINE",
"331 94 LINE",
"293 213 LINE",
"103 743 LINE",
"15 743 LINE",
"295 -8 LINE"
);
}
);
width = 650;
},
{
anchors = (
{
name = bottom;
position = "{331, 0}";
},
{
name = btm;
position = "{332, -83}";
},
{
name = top;
position = "{332, 830}";
}
);
layerId = "DB9867C4-88B4-4207-8D32-C8AFE6754240";
paths = (
{
closed = 1;
nodes = (
"380 -6 LINE",
"651 743 LINE",
"537 743 LINE",
"369 243 LINE",
"335 128 LINE",
"302 243 LINE",
"126 743 LINE",
"11 743 LINE",
"289 -6 LINE"
);
}
);
width = 662;
},
{
anchors = (
{
name = bottom;
position = "{339, 0}";
},
{
name = btm;
position = "{339, -83}";
},
{
name = top;
position = "{339, 831}";
}
);
layerId = "ADDB461F-7E69-4B45-B56F-E3E322F9570B";
paths = (
{
closed = 1;
nodes = (
"406 -3 LINE",
"679 743 LINE",
"514 743 LINE",
"382 337 LINE",
"342 196 LINE",
"303 337 LINE",
"164 743 LINE",
"-2 743 LINE",
"274 -3 LINE"
);
}
);
width = 677;
},
{
anchors = (
{
name = bottom;
position = "{344, 0}";
},
{
name = btm;
position = "{345, -83}";
},
{
name = top;
position = "{345, 831}";
}
);
layerId = "23A20576-2241-481A-AD5B-28E85381F753";
paths = (
{
closed = 1;
nodes = (
"426 -2 LINE",
"694 743 LINE",
"496 743 LINE",
"385 368 LINE",
"348 223 LINE",
"311 368 LINE",
"192 743 LINE",
"-6 743 LINE",
"264 -2 LINE"
);
}
);
width = 688;
}
);
leftKerningGroup = V;
rightKerningGroup = V;
unicode = 0056;
},
{
color = 4;
glyphname = W;
lastChange = "2019-02-16 05:39:16 +0000";
layers = (
{
anchors = (
{
name = bottom;
position = "{466, 0}";
},
{
name = btm;
position = "{467, -83}";
},
{
name = top;
position = "{466, 830}";
}
);
layerId = "8BC678DE-46B6-4C98-A96E-C0ED61786D32";
paths = (
{
closed = 1;
nodes = (
"289 -8 LINE",
"450 527 LINE",
"480 679 LINE",
"455 679 LINE",
"486 527 LINE",
"645 -8 LINE",
"726 -8 LINE",
"917 743 LINE",
"833 743 LINE",
"718 251 LINE",
"681 58 LINE",
"695 58 LINE",
"646 252 LINE",
"499 743 LINE",
"438 743 LINE",
"292 252 LINE",
"249 58 LINE",
"262 58 LINE",
"222 252 LINE",
"101 743 LINE",
"16 743 LINE",
"217 -8 LINE"
);
}
);
width = 932;
},
{
anchors = (
{
name = bottom;
position = "{469, 0}";
},
{
name = btm;
position = "{469, -83}";
},
{
name = top;
position = "{469, 830}";
}
);
layerId = "DB9867C4-88B4-4207-8D32-C8AFE6754240";
paths = (
{
closed = 1;
nodes = (
"309 -8 LINE",
"452 479 LINE",
"486 657 LINE",
"452 658 LINE",
"486 479 LINE",
"627 -8 LINE",
"734 -8 LINE",
"926 743 LINE",
"816 743 LINE",
"706 260 LINE",
"675 80 LINE",
"694 80 LINE",
"651 261 LINE",
"509 743 LINE",
"430 743 LINE",
"290 261 LINE",
"257 80 LINE",
"274 80 LINE",
"241 261 LINE",
"123 743 LINE",
"11 743 LINE",
"215 -8 LINE"
);
}
);
width = 937;
},
{
anchors = (
{
name = bottom;
position = "{482, 0}";
},
{
name = btm;
position = "{472, -83}";
},
{
name = top;
position = "{472, 830}";
}
);
layerId = "ADDB461F-7E69-4B45-B56F-E3E322F9570B";
paths = (
{
closed = 1;
nodes = (
"350 -8 LINE",
"457 407 LINE",
"500 723 LINE",
"456 723 LINE",
"503 407 LINE",
"607 -8 LINE",
"767 -8 LINE",
"961 743 LINE",
"806 743 LINE",
"721 307 LINE",
"687 65 LINE",
"708 65 LINE",
"666 307 LINE",
"552 743 LINE",
"413 743 LINE",
"306 307 LINE",
"266 66 LINE",
"285 66 LINE",
"250 307 LINE",
"158 743 LINE",
"2 743 LINE",
"202 -8 LINE"
);
}
);
width = 963;
},
{
anchors = (
{
name = bottom;
position = "{488, 0}";
},
{
name = btm;
position = "{482, -83}";
},
{
name = top;
position = "{482, 830}";
}
);
layerId = "23A20576-2241-481A-AD5B-28E85381F753";
paths = (
{
closed = 1;
nodes = (
"369 -5 LINE",
"463 383 LINE",
"507 705 LINE",
"459 705 LINE",
"508 383 LINE",
"603 -5 LINE",
"786 -5 LINE",
"982 743 LINE",
"803 743 LINE",
"726 328 LINE",
"694 84 LINE",
"716 84 LINE",
"676 328 LINE",
"575 743 LINE",
"406 743 LINE",
"308 328 LINE",
"271 85 LINE",
"290 85 LINE",
"258 328 LINE",
"180 743 LINE",
"-6 743 LINE",
"189 -5 LINE"
);
}
);
width = 976;
}
);
leftKerningGroup = W;
rightKerningGroup = W;
unicode = 0057;
},
{
color = 4;
glyphname = X;
lastChange = "2019-02-16 05:39:16 +0000";
layers = (
{
anchors = (
{
name = bottom;
position = "{325, 0}";
},
{
name = btm;
position = "{319, -83}";
},
{
name = top;
position = "{319, 830}";
}
);
layerId = "8BC678DE-46B6-4C98-A96E-C0ED61786D32";
paths = (
{
closed = 1;
nodes = (
"125 0 LINE",
"276 246 LINE",
"332 339 LINE",
"309 339 LINE",
"366 246 LINE",
"520 0 LINE",
"614 0 LINE",
"356 396 LINE",
"367 361 LINE",
"607 743 LINE",
"518 743 LINE",
"379 517 LINE",
"319 415 LINE",
"338 415 LINE",
"276 517 LINE",
"132 744 LINE",
"39 743 LINE",
"289 361 LINE",
"283 395 LINE",
"36 0 LINE"
);
}
);
width = 649;
},
{
anchors = (
{
name = bottom;
position = "{321, 0}";
},
{
name = btm;
position = "{313, -83}";
},
{
name = top;
position = "{313, 830}";
}
);
layerId = "DB9867C4-88B4-4207-8D32-C8AFE6754240";
paths = (
{
closed = 1;
nodes = (
"138 0 LINE",
"266 219 LINE",
"331 329 LINE",
"299 328 LINE",
"366 219 LINE",
"497 0 LINE",
"621 0 LINE",
"361 402 LINE",
"376 356 LINE",
"616 743 LINE",
"500 743 LINE",
"384 547 LINE",
"313 427 LINE",
"338 427 LINE",
"266 547 LINE",
"145 744 LINE",
"22 743 LINE",
"273 356 LINE",
"266 400 LINE",
"21 0 LINE"
);
}
);
width = 642;
},
{
anchors = (
{
name = bottom;
position = "{336, 0}";
},
{
name = btm;
position = "{329, -83}";
},
{
name = top;
position = "{329, 830}";
}
);
layerId = "ADDB461F-7E69-4B45-B56F-E3E322F9570B";
paths = (
{
closed = 1;
nodes = (
"178 0 LINE",
"293 208 LINE",
"344 300 LINE",
"313 299 LINE",
"365 208 LINE",
"484 0 LINE",
"656 0 LINE",
"413 395 LINE",
"419 349 LINE",
"651 743 LINE",
"487 743 LINE",
"380 547 LINE",
"332 458 LINE",
"356 458 LINE",
"305 547 LINE",
"191 744 LINE",
"21 743 LINE",
"256 356 LINE",
"252 405 LINE",
"16 0 LINE"
);
}
);
width = 672;
},
{
anchors = (
{
name = bottom;
position = "{341, 0}";
},
{
name = btm;
position = "{334, -83}";
},
{
name = top;
position = "{334, 830}";
}
);
layerId = "23A20576-2241-481A-AD5B-28E85381F753";
paths = (
{
closed = 1;
nodes = (
"203 0 LINE",
"304 191 LINE",
"354 295 LINE",
"315 294 LINE",
"366 191 LINE",
"470 0 LINE",
"676 0 LINE",
"441 390 LINE",
"438 343 LINE",
"669 743 LINE",
"474 743 LINE",
"377 557 LINE",
"333 470 LINE",
"365 470 LINE",
"319 557 LINE",
"217 744 LINE",
"13 743 LINE",
"240 357 LINE",
"243 409 LINE",
"7 0 LINE"
);
}
);
width = 681;
}
);
leftKerningGroup = X;
rightKerningGroup = X;
unicode = 0058;
},
{
color = 4;
glyphname = Y;
lastChange = "2019-02-16 05:39:16 +0000";
layers = (
{
anchors = (
{
name = bottom;
position = "{305, 0}";
},
{
name = btm;
position = "{314, -83}";
},
{
name = top;
position = "{314, 830}";
},
{
name = topleft;
position = "{20, 743}";
}
);
layerId = "8BC678DE-46B6-4C98-A96E-C0ED61786D32";
paths = (
{
closed = 1;
nodes = (
"352 0 LINE",
"352 309 LINE",
"337 259 LINE",
"595 743 LINE",
"508 743 LINE",
"333 401 LINE",
"305 329 LINE",
"318 329 LINE",
"286 401 LINE",
"104 743 LINE",
"15 743 LINE",
"282 260 LINE",
"268 310 LINE",
"268 0 LINE"
);
}
);
width = 610;
},
{
anchors = (
{
name = bottom;
position = "{309, 0}";
},
{
name = btm;
position = "{314, -83}";
},
{
name = top;
position = "{314, 830}";
},
{
name = topleft;
position = "{20, 743}";
}
);
layerId = "DB9867C4-88B4-4207-8D32-C8AFE6754240";
paths = (
{
closed = 1;
nodes = (
"366 0 LINE",
"366 317 LINE",
"348 256 LINE",
"606 743 LINE",
"492 743 LINE",
"331 421 LINE",
"305 346 LINE",
"323 346 LINE",
"292 421 LINE",
"127 743 LINE",
"11 743 LINE",
"273 256 LINE",
"255 318 LINE",
"255 0 LINE"
);
}
);
width = 617;
},
{
anchors = (
{
name = bottom;
position = "{303, 0}";
},
{
name = btm;
position = "{304, -83}";
},
{
name = top;
position = "{304, 830}";
},
{
name = topleft;
position = "{20, 743}";
}
);
layerId = "ADDB461F-7E69-4B45-B56F-E3E322F9570B";
paths = (
{
closed = 1;
nodes = (
"381 0 LINE",
"381 303 LINE",
"366 231 LINE",
"630 743 LINE",
"464 743 LINE",
"323 455 LINE",
"296 375 LINE",
"314 375 LINE",
"283 455 LINE",
"146 743 LINE",
"-24 743 LINE",
"240 232 LINE",
"225 306 LINE",
"225 0 LINE"
);
}
);
width = 606;
},
{
anchors = (
{
name = bottom;
position = "{315, 0}";
},
{
name = btm;
position = "{321, -83}";
},
{
name = top;
position = "{321, 830}";
},
{
name = topleft;
position = "{20, 743}";
}
);
layerId = "23A20576-2241-481A-AD5B-28E85381F753";
paths = (
{
closed = 1;
nodes = (
"409 0 LINE",
"409 296 LINE",
"392 229 LINE",
"655 743 LINE",
"458 743 LINE",
"346 503 LINE",
"308 385 LINE",
"333 385 LINE",
"288 503 LINE",
"178 743 LINE",
"-26 743 LINE",
"235 230 LINE",
"219 296 LINE",
"219 0 LINE"
);
}
);
width = 629;
}
);
leftKerningGroup = Y;
rightKerningGroup = Y;
unicode = 0059;
},
{
color = 4;
glyphname = Z;
lastChange = "2019-02-16 05:39:16 +0000";
layers = (
{
anchors = (
{
name = bottom;
position = "{320, 0}";
},
{
name = btm;
position = "{321, -83}";
},
{
name = center;
position = "{320, 372}";
},
{
name = top;
position = "{335, 830}";
}
);
layerId = "8BC678DE-46B6-4C98-A96E-C0ED61786D32";
paths = (
{
closed = 1;
nodes = (
"575 0 LINE",
"575 65 LINE",
"161 65 LINE",
"203 117 LINE",
"596 712 LINE",
"578 743 LINE",
"92 743 LINE",
"92 677 LINE",
"488 677 LINE",
"446 623 LINE",
"52 32 LINE",
"69 0 LINE"
);
}
);
width = 639;
},
{
anchors = (
{
name = bottom;
position = "{316, 0}";
},
{
name = btm;
position = "{314, -83}";
},
{
name = center;
position = "{316, 372}";
},
{
name = top;
position = "{332, 830}";
}
);
layerId = "DB9867C4-88B4-4207-8D32-C8AFE6754240";
paths = (
{
closed = 1;
nodes = (
"565 0 LINE",
"565 85 LINE",
"187 85 LINE",
"223 127 LINE",
"594 704 LINE",
"571 743 LINE",
"85 743 LINE",
"85 656 LINE",
"451 656 LINE",
"423 622 LINE",
"43 41 LINE",
"65 0 LINE"
);
}
);
width = 632;
},
{
anchors = (
{
name = bottom;
position = "{319, 0}";
},
{
name = btm;
position = "{312, -83}";
},
{
name = center;
position = "{319, 372}";
},
{
name = top;
position = "{330, 830}";
}
);
layerId = "ADDB461F-7E69-4B45-B56F-E3E322F9570B";
paths = (
{
closed = 1;
nodes = (
"584 0 LINE",
"584 118 LINE",
"239 118 LINE",
"275 164 LINE",
"603 704 LINE",
"584 743 LINE",
"63 743 LINE",
"63 630 LINE",
"390 630 LINE",
"361 591 LINE",
"26 41 LINE",
"46 0 LINE"
);
}
);
width = 638;
},
{
anchors = (
{
name = bottom;
position = "{318, 0}";
},
{
name = btm;
position = "{309, -83}";
},
{
name = center;
position = "{318, 372}";
},
{
name = top;
position = "{329, 830}";
}
);
layerId = "23A20576-2241-481A-AD5B-28E85381F753";
paths = (
{
closed = 1;
nodes = (
"589 0 LINE",
"589 139 LINE",
"272 139 LINE",
"308 190 LINE",
"607 704 LINE",
"587 743 LINE",
"53 743 LINE",
"53 607 LINE",
"355 607 LINE",
"323 560 LINE",
"18 41 LINE",
"38 0 LINE"
);
}
);
width = 636;
}
);
leftKerningGroup = Z;
rightKerningGroup = Z;
unicode = 005A;
},
{
glyphname = a;
lastChange = "2019-02-16 05:39:16 +0000";
layers = (
{
anchors = (
{
name = bottom;
position = "{280, 0}";
},
{
name = btm;
position = "{281, -100}";
},
{
name = ogonek;
position = "{503, 25}";
},
{
name = top;
position = "{274, 830}";
}
);
layerId = "8BC678DE-46B6-4C98-A96E-C0ED61786D32";
paths = (
{
closed = 1;
nodes = (
"303 -8 OFFCURVE",
"367 25 OFFCURVE",
"397 53 CURVE",
"410 86 LINE",
"392 102 LINE",
"380 89 OFFCURVE",
"318 53 OFFCURVE",
"247 53 CURVE SMOOTH",
"167 53 OFFCURVE",
"134 95 OFFCURVE",
"134 153 CURVE SMOOTH",
"134 203 OFFCURVE",
"163 234 OFFCURVE",
"219 255 CURVE SMOOTH",
"266 274 OFFCURVE",
"351 281 OFFCURVE",
"391 281 CURVE",
"409 310 LINE",
"391 333 LINE",
"333 333 OFFCURVE",
"239 325 OFFCURVE",
"174 300 CURVE SMOOTH",
"96 271 OFFCURVE",
"54 220 OFFCURVE",
"54 147 CURVE SMOOTH",
"54 50 OFFCURVE",
"125 -8 OFFCURVE",
"223 -8 CURVE SMOOTH"
);
},
{
closed = 1;
nodes = (
"472 388 LINE SMOOTH",
"472 528 OFFCURVE",
"396 565 OFFCURVE",
"282 565 CURVE SMOOTH",
"192 565 OFFCURVE",
"102 522 OFFCURVE",
"83 509 CURVE",
"103 451 LINE",
"132 472 OFFCURVE",
"205 498 OFFCURVE",
"261 498 CURVE SMOOTH",
"348 498 OFFCURVE",
"391 476 OFFCURVE",
"391 391 CURVE SMOOTH",
"391 80 LINE",
"396 79 LINE",
"396 0 LINE",
"472 0 LINE"
);
}
);
width = 559;
},
{
anchors = (
{
name = bottom;
position = "{276, 0}";
},
{
name = btm;
position = "{277, -100}";
},
{
name = ogonek;
position = "{491, 25}";
},
{
name = top;
position = "{269, 830}";
}
);
layerId = "DB9867C4-88B4-4207-8D32-C8AFE6754240";
paths = (
{
closed = 1;
nodes = (
"282 -8 OFFCURVE",
"343 20 OFFCURVE",
"373 47 CURVE",
"389 90 LINE",
"366 112 LINE",
"355 99 OFFCURVE",
"298 72 OFFCURVE",
"248 72 CURVE SMOOTH",
"183 72 OFFCURVE",
"152 102 OFFCURVE",
"152 158 CURVE SMOOTH",
"152 201 OFFCURVE",
"178 224 OFFCURVE",
"214 241 CURVE SMOOTH",
"254 260 OFFCURVE",
"326 268 OFFCURVE",
"366 268 CURVE",
"390 306 LINE",
"366 336 LINE",
"303 336 OFFCURVE",
"219 326 OFFCURVE",
"154 300 CURVE SMOOTH",
"88 272 OFFCURVE",
"46 221 OFFCURVE",
"46 149 CURVE SMOOTH",
"46 51 OFFCURVE",
"118 -8 OFFCURVE",
"216 -8 CURVE SMOOTH"
);
},
{
closed = 1;
nodes = (
"474 388 LINE SMOOTH",
"474 534 OFFCURVE",
"394 565 OFFCURVE",
"275 565 CURVE SMOOTH",
"189 565 OFFCURVE",
"91 526 OFFCURVE",
"71 514 CURVE",
"97 434 LINE",
"123 452 OFFCURVE",
"199 475 OFFCURVE",
"263 475 CURVE SMOOTH",
"328 475 OFFCURVE",
"366 459 OFFCURVE",
"366 392 CURVE SMOOTH",
"366 83 LINE",
"373 83 LINE",
"373 0 LINE",
"474 0 LINE"
);
}
);
width = 552;
},
{
anchors = (
{
name = bottom;
position = "{296, 0}";
},
{
name = btm;
position = "{290, -100}";
},
{
name = ogonek;
position = "{507, 25}";
},
{
name = top;
position = "{290, 830}";
}
);
layerId = "ADDB461F-7E69-4B45-B56F-E3E322F9570B";
paths = (
{
closed = 1;
nodes = (
"292 -8 OFFCURVE",
"342 20 OFFCURVE",
"371 47 CURVE",
"388 90 LINE",
"365 126 LINE",
"355 113 OFFCURVE",
"313 95 OFFCURVE",
"279 95 CURVE SMOOTH",
"235 95 OFFCURVE",
"202 120 OFFCURVE",
"202 174 CURVE SMOOTH",
"202 216 OFFCURVE",
"227 230 OFFCURVE",
"250 239 CURVE SMOOTH",
"273 250 OFFCURVE",
"328 259 OFFCURVE",
"365 259 CURVE",
"391 312 LINE",
"365 345 LINE",
"295 345 OFFCURVE",
"203 340 OFFCURVE",
"142 313 CURVE SMOOTH",
"82 286 OFFCURVE",
"45 241 OFFCURVE",
"45 173 CURVE SMOOTH",
"45 68 OFFCURVE",
"117 -8 OFFCURVE",
"226 -8 CURVE SMOOTH"
);
},
{
closed = 1;
nodes = (
"517 364 LINE SMOOTH",
"517 525 OFFCURVE",
"446 567 OFFCURVE",
"291 567 CURVE SMOOTH",
"203 567 OFFCURVE",
"103 531 OFFCURVE",
"68 509 CURVE",
"101 412 LINE",
"149 433 OFFCURVE",
"225 451 OFFCURVE",
"285 451 CURVE SMOOTH",
"342 451 OFFCURVE",
"365 439 OFFCURVE",
"365 380 CURVE SMOOTH",
"365 83 LINE",
"371 83 LINE",
"371 0 LINE",
"517 0 LINE"
);
}
);
width = 592;
},
{
anchors = (
{
name = bottom;
position = "{309, 0}";
},
{
name = btm;
position = "{302, -100}";
},
{
name = ogonek;
position = "{540, 25}";
},
{
name = top;
position = "{299, 830}";
}
);
layerId = "23A20576-2241-481A-AD5B-28E85381F753";
paths = (
{
closed = 1;
nodes = (
"298 -8 OFFCURVE",
"347 20 OFFCURVE",
"378 47 CURVE",
"398 90 LINE",
"369 127 LINE",
"359 116 OFFCURVE",
"328 104 OFFCURVE",
"299 104 CURVE SMOOTH",
"262 104 OFFCURVE",
"228 126 OFFCURVE",
"228 179 CURVE SMOOTH",
"228 219 OFFCURVE",
"250 232 OFFCURVE",
"271 241 CURVE SMOOTH",
"291 250 OFFCURVE",
"334 257 OFFCURVE",
"369 258 CURVE",
"395 313 LINE",
"369 345 LINE",
"299 345 OFFCURVE",
"209 340 OFFCURVE",
"142 311 CURVE SMOOTH",
"80 285 OFFCURVE",
"42 235 OFFCURVE",
"42 170 CURVE SMOOTH",
"42 66 OFFCURVE",
"113 -8 OFFCURVE",
"223 -8 CURVE SMOOTH"
);
},
{
closed = 1;
nodes = (
"549 356 LINE SMOOTH",
"549 510 OFFCURVE",
"483 566 OFFCURVE",
"308 566 CURVE SMOOTH",
"208 566 OFFCURVE",
"104 530 OFFCURVE",
"63 505 CURVE",
"100 399 LINE",
"149 422 OFFCURVE",
"227 438 OFFCURVE",
"291 438 CURVE SMOOTH",
"341 438 OFFCURVE",
"369 427 OFFCURVE",
"369 378 CURVE SMOOTH",
"369 83 LINE",
"378 83 LINE",
"378 0 LINE",
"549 0 LINE"
);
}
);
width = 617;
}
);
leftKerningGroup = a;
rightKerningGroup = a;
unicode = 0061;
},
{
glyphname = ae;
lastChange = "2019-02-16 05:39:16 +0000";
layers = (
{
anchors = (
{
name = bottom;
position = "{446, 0}";
},
{
name = top;
position = "{449, 830}";
}
);
layerId = "8BC678DE-46B6-4C98-A96E-C0ED61786D32";
paths = (
{
closed = 1;
nodes = (
"703 -8 OFFCURVE",
"786 13 OFFCURVE",
"823 43 CURVE",
"807 91 LINE",
"778 72 OFFCURVE",
"704 54 OFFCURVE",
"654 54 CURVE SMOOTH",
"551 54 OFFCURVE",
"477 105 OFFCURVE",
"472 250 CURVE",
"467 433 OFFCURVE",
"540 506 OFFCURVE",
"636 506 CURVE SMOOTH",
"737 506 OFFCURVE",
"770 427 OFFCURVE",
"764 325 CURVE",
"448 325 LINE",
"441 270 LINE",
"836 270 LINE",
"841 293 OFFCURVE",
"840 320 OFFCURVE",
"840 355 CURVE",
"837 482 OFFCURVE",
"759 566 OFFCURVE",
"641 564 CURVE SMOOTH",
"481 563 OFFCURVE",
"391 443 OFFCURVE",
"391 276 CURVE SMOOTH",
"391 92 OFFCURVE",
"478 -8 OFFCURVE",
"634 -8 CURVE SMOOTH"
);
},
{
closed = 1;
nodes = (
"54 50 OFFCURVE",
"126 -8 OFFCURVE",
"225 -8 CURVE SMOOTH",
"323 -8 OFFCURVE",
"399 42 OFFCURVE",
"445 106 CURVE",
"433 131 LINE",
"416 144 LINE",
"395 106 OFFCURVE",
"322 53 OFFCURVE",
"246 53 CURVE SMOOTH",
"166 53 OFFCURVE",
"136 96 OFFCURVE",
"136 153 CURVE SMOOTH",
"136 201 OFFCURVE",
"161 233 OFFCURVE",
"219 255 CURVE SMOOTH",
"262 273 OFFCURVE",
"334 281 OFFCURVE",
"391 281 CURVE",
"409 310 LINE",
"390 333 LINE",
"326 333 OFFCURVE",
"239 326 OFFCURVE",
"174 300 CURVE SMOOTH",
"99 271 OFFCURVE",
"54 220 OFFCURVE",
"54 147 CURVE SMOOTH"
);
},
{
closed = 1;
nodes = (
"131 476 OFFCURVE",
"211 503 OFFCURVE",
"267 503 CURVE SMOOTH",
"341 503 OFFCURVE",
"390 490 OFFCURVE",
"390 391 CURVE SMOOTH",
"390 284 LINE",
"463 284 LINE",
"463 388 LINE SMOOTH",
"463 532 OFFCURVE",
"396 565 OFFCURVE",
"287 565 CURVE SMOOTH",
"198 565 OFFCURVE",
"99 522 OFFCURVE",
"79 509 CURVE",
"100 455 LINE"
);
}
);
width = 892;
},
{
anchors = (
{
name = bottom;
position = "{435, 0}";
},
{
name = top;
position = "{441, 830}";
}
);
layerId = "DB9867C4-88B4-4207-8D32-C8AFE6754240";
paths = (
{
closed = 1;
nodes = (
"682 -8 OFFCURVE",
"768 12 OFFCURVE",
"804 42 CURVE",
"784 104 LINE",
"756 87 OFFCURVE",
"680 74 OFFCURVE",
"643 74 CURVE SMOOTH",
"552 74 OFFCURVE",
"480 110 OFFCURVE",
"474 245 CURVE",
"468 428 OFFCURVE",
"531 488 OFFCURVE",
"611 488 CURVE SMOOTH",
"708 488 OFFCURVE",
"726 406 OFFCURVE",
"721 326 CURVE",
"442 326 LINE",
"433 255 LINE",
"816 255 LINE",
"822 280 OFFCURVE",
"822 313 OFFCURVE",
"822 354 CURVE",
"817 494 OFFCURVE",
"728 566 OFFCURVE",
"617 564 CURVE SMOOTH",
"454 562 OFFCURVE",
"368 441 OFFCURVE",
"368 279 CURVE SMOOTH",
"368 90 OFFCURVE",
"457 -8 OFFCURVE",
"615 -8 CURVE SMOOTH"
);
},
{
closed = 1;
nodes = (
"46 51 OFFCURVE",
"121 -8 OFFCURVE",
"219 -8 CURVE SMOOTH",
"304 -8 OFFCURVE",
"381 23 OFFCURVE",
"434 95 CURVE",
"417 126 LINE",
"396 144 LINE",
"373 102 OFFCURVE",
"302 72 OFFCURVE",
"246 72 CURVE SMOOTH",
"182 72 OFFCURVE",
"154 102 OFFCURVE",
"154 158 CURVE SMOOTH",
"154 201 OFFCURVE",
"178 224 OFFCURVE",
"214 241 CURVE SMOOTH",
"253 260 OFFCURVE",
"313 268 OFFCURVE",
"368 268 CURVE",
"390 306 LINE",
"367 336 LINE",
"295 336 OFFCURVE",
"218 327 OFFCURVE",
"154 300 CURVE SMOOTH",
"91 272 OFFCURVE",
"46 221 OFFCURVE",
"46 149 CURVE SMOOTH"
);
},
{
closed = 1;
nodes = (
"128 460 OFFCURVE",
"208 484 OFFCURVE",
"257 484 CURVE SMOOTH",
"331 484 OFFCURVE",
"367 472 OFFCURVE",
"367 392 CURVE SMOOTH",
"367 290 LINE",
"463 290 LINE",
"463 388 LINE SMOOTH",
"463 534 OFFCURVE",
"396 565 OFFCURVE",
"284 565 CURVE SMOOTH",
"198 565 OFFCURVE",
"95 526 OFFCURVE",
"73 514 CURVE",
"100 442 LINE"
);
}
);
width = 869;
},
{
anchors = (
{
name = bottom;
position = "{452, 0}";
},
{
name = top;
position = "{459, 830}";
}
);
layerId = "ADDB461F-7E69-4B45-B56F-E3E322F9570B";
paths = (
{
closed = 1;
nodes = (
"718 -8 OFFCURVE",
"802 18 OFFCURVE",
"838 48 CURVE",
"813 134 LINE",
"784 118 OFFCURVE",
"710 105 OFFCURVE",
"670 105 CURVE SMOOTH",
"582 105 OFFCURVE",
"524 150 OFFCURVE",
"521 251 CURVE",
"519 410 OFFCURVE",
"562 456 OFFCURVE",
"630 456 CURVE SMOOTH",
"699 456 OFFCURVE",
"720 408 OFFCURVE",
"715 326 CURVE",
"460 326 LINE",
"451 242 LINE",
"851 242 LINE",
"855 267 OFFCURVE",
"856 304 OFFCURVE",
"856 346 CURVE",
"854 508 OFFCURVE",
"750 565 OFFCURVE",
"635 564 CURVE SMOOTH",
"464 563 OFFCURVE",
"369 442 OFFCURVE",
"369 280 CURVE SMOOTH",
"369 100 OFFCURVE",
"462 -8 OFFCURVE",
"632 -8 CURVE SMOOTH"
);
},
{
closed = 1;
nodes = (
"50 49 OFFCURVE",
"132 -8 OFFCURVE",
"232 -8 CURVE SMOOTH",
"307 -8 OFFCURVE",
"379 15 OFFCURVE",
"438 88 CURVE",
"427 125 LINE",
"395 150 LINE",
"378 125 OFFCURVE",
"330 95 OFFCURVE",
"284 95 CURVE SMOOTH",
"240 95 OFFCURVE",
"206 119 OFFCURVE",
"206 169 CURVE SMOOTH",
"206 217 OFFCURVE",
"234 229 OFFCURVE",
"258 239 CURVE SMOOTH",
"282 250 OFFCURVE",
"323 259 OFFCURVE",
"371 259 CURVE",
"392 312 LINE",
"367 345 LINE",
"302 345 OFFCURVE",
"211 336 OFFCURVE",
"154 311 CURVE SMOOTH",
"91 283 OFFCURVE",
"50 231 OFFCURVE",
"50 161 CURVE SMOOTH"
);
},
{
closed = 1;
nodes = (
"138 427 OFFCURVE",
"214 451 OFFCURVE",
"271 451 CURVE SMOOTH",
"341 451 OFFCURVE",
"367 432 OFFCURVE",
"367 375 CURVE SMOOTH",
"367 291 LINE",
"503 291 LINE",
"503 364 LINE SMOOTH",
"503 525 OFFCURVE",
"442 567 OFFCURVE",
"306 567 CURVE SMOOTH",
"193 567 OFFCURVE",
"99 521 OFFCURVE",
"78 509 CURVE",
"111 412 LINE"
);
}
);
width = 904;
},
{
anchors = (
{
name = bottom;
position = "{459, 0}";
},
{
name = top;
position = "{458, 830}";
}
);
layerId = "23A20576-2241-481A-AD5B-28E85381F753";
paths = (
{
closed = 1;
nodes = (
"740 -8 OFFCURVE",
"823 22 OFFCURVE",
"859 52 CURVE",
"832 150 LINE",
"805 136 OFFCURVE",
"737 122 OFFCURVE",
"684 122 CURVE SMOOTH",
"597 122 OFFCURVE",
"546 158 OFFCURVE",
"544 255 CURVE",
"542 404 OFFCURVE",
"577 448 OFFCURVE",
"639 448 CURVE SMOOTH",
"694 448 OFFCURVE",
"714 407 OFFCURVE",
"709 326 CURVE",
"469 326 LINE",
"459 238 LINE",
"870 238 LINE",
"873 262 OFFCURVE",
"875 298 OFFCURVE",
"875 338 CURVE",
"874 517 OFFCURVE",
"761 564 OFFCURVE",
"643 564 CURVE SMOOTH",
"467 564 OFFCURVE",
"366 443 OFFCURVE",
"366 281 CURVE SMOOTH",
"366 100 OFFCURVE",
"463 -8 OFFCURVE",
"642 -8 CURVE SMOOTH"
);
},
{
closed = 1;
nodes = (
"45 55 OFFCURVE",
"122 -8 OFFCURVE",
"226 -8 CURVE SMOOTH",
"304 -8 OFFCURVE",
"383 19 OFFCURVE",
"436 83 CURVE",
"428 125 LINE",
"392 150 LINE",
"375 123 OFFCURVE",
"334 104 OFFCURVE",
"299 104 CURVE SMOOTH",
"262 104 OFFCURVE",
"228 125 OFFCURVE",
"228 176 CURVE SMOOTH",
"228 219 OFFCURVE",
"252 232 OFFCURVE",
"273 241 CURVE SMOOTH",
"293 250 OFFCURVE",
"328 258 OFFCURVE",
"370 258 CURVE",
"393 313 LINE",
"367 345 LINE",
"301 345 OFFCURVE",
"212 338 OFFCURVE",
"148 310 CURVE SMOOTH",
"85 283 OFFCURVE",
"45 229 OFFCURVE",
"45 163 CURVE SMOOTH"
);
},
{
closed = 1;
nodes = (
"129 412 OFFCURVE",
"205 437 OFFCURVE",
"267 437 CURVE SMOOTH",
"335 437 OFFCURVE",
"367 420 OFFCURVE",
"367 375 CURVE SMOOTH",
"367 291 LINE",
"525 292 LINE",
"525 347 LINE SMOOTH",
"525 519 OFFCURVE",
"467 566 OFFCURVE",
"316 566 CURVE SMOOTH",
"186 566 OFFCURVE",
"87 517 OFFCURVE",
"66 505 CURVE",
"104 397 LINE"
);
}
);
width = 917;
}
);
leftKerningGroup = a;
rightKerningGroup = e;
unicode = 00E6;
},
{
glyphname = b;
lastChange = "2019-02-16 05:39:16 +0000";
layers = (
{
anchors = (
{
name = bottom;
position = "{304, 0}";
},
{
name = btm;
position = "{315, -83}";
},
{
name = top;
position = "{368, 830}";
}
);
layerId = "8BC678DE-46B6-4C98-A96E-C0ED61786D32";
paths = (
{
closed = 1;
nodes = (
"90 31 LINE",
"171 67 LINE",
"171 481 LINE",
"167 484 LINE",
"171 579 LINE",
"171 811 LINE",
"90 811 LINE"
);
},
{
closed = 1;
nodes = (
"444 -8 OFFCURVE",
"557 117 OFFCURVE",
"557 299 CURVE SMOOTH",
"557 477 OFFCURVE",
"459 564 OFFCURVE",
"337 564 CURVE SMOOTH",
"237 564 OFFCURVE",
"183 512 OFFCURVE",
"157 485 CURVE",
"170 443 LINE",
"198 468 OFFCURVE",
"253 500 OFFCURVE",
"315 500 CURVE SMOOTH",
"420 500 OFFCURVE",
"475 426 OFFCURVE",
"474 288 CURVE SMOOTH",
"473 129 OFFCURVE",
"384 52 OFFCURVE",
"286 52 CURVE SMOOTH",
"234 52 OFFCURVE",
"190 62 OFFCURVE",
"171 76 CURVE",
"90 31 LINE",
"109 18 OFFCURVE",
"195 -8 OFFCURVE",
"277 -8 CURVE SMOOTH"
);
}
);
width = 607;
},
{
anchors = (
{
name = bottom;
position = "{302, 0}";
},
{
name = btm;
position = "{313, -83}";
},
{
name = top;
position = "{363, 830}";
}
);
layerId = "DB9867C4-88B4-4207-8D32-C8AFE6754240";
paths = (
{
closed = 1;
nodes = (
"81 31 LINE",
"188 81 LINE",
"188 483 LINE",
"184 486 LINE",
"188 581 LINE",
"188 811 LINE",
"81 811 LINE"
);
},
{
closed = 1;
nodes = (
"445 -9 OFFCURVE",
"557 119 OFFCURVE",
"557 299 CURVE SMOOTH",
"557 479 OFFCURVE",
"455 564 OFFCURVE",
"337 564 CURVE SMOOTH",
"236 564 OFFCURVE",
"193 512 OFFCURVE",
"170 488 CURVE",
"188 435 LINE",
"212 453 OFFCURVE",
"254 480 OFFCURVE",
"308 480 CURVE SMOOTH",
"398 480 OFFCURVE",
"449 418 OFFCURVE",
"448 284 CURVE SMOOTH",
"446 145 OFFCURVE",
"378 70 OFFCURVE",
"289 70 CURVE SMOOTH",
"241 70 OFFCURVE",
"207 77 OFFCURVE",
"188 90 CURVE",
"81 31 LINE",
"102 18 OFFCURVE",
"199 -9 OFFCURVE",
"276 -9 CURVE SMOOTH"
);
}
);
width = 604;
},
{
anchors = (
{
name = bottom;
position = "{325, 0}";
},
{
name = btm;
position = "{362, -83}";
},
{
name = top;
position = "{409, 831}";
}
);
layerId = "ADDB461F-7E69-4B45-B56F-E3E322F9570B";
paths = (
{
closed = 1;
nodes = (
"82 31 LINE",
"234 85 LINE",
"234 483 LINE",
"229 486 LINE",
"234 598 LINE",
"234 811 LINE",
"82 811 LINE"
);
},
{
closed = 1;
nodes = (
"490 -11 OFFCURVE",
"608 114 OFFCURVE",
"608 299 CURVE SMOOTH",
"608 479 OFFCURVE",
"504 564 OFFCURVE",
"386 564 CURVE SMOOTH",
"286 564 OFFCURVE",
"239 516 OFFCURVE",
"216 491 CURVE",
"234 416 LINE",
"257 435 OFFCURVE",
"297 451 OFFCURVE",
"339 451 CURVE SMOOTH",
"405 451 OFFCURVE",
"449 414 OFFCURVE",
"448 287 CURVE SMOOTH",
"447 164 OFFCURVE",
"393 94 OFFCURVE",
"320 94 CURVE SMOOTH",
"277 94 OFFCURVE",
"247 100 OFFCURVE",
"234 113 CURVE",
"82 31 LINE",
"99 19 OFFCURVE",
"215 -11 OFFCURVE",
"317 -11 CURVE SMOOTH"
);
}
);
width = 650;
},
{
anchors = (
{
name = bottom;
position = "{337, 0}";
},
{
name = btm;
position = "{388, -83}";
},
{
name = top;
position = "{434, 831}";
}
);
layerId = "23A20576-2241-481A-AD5B-28E85381F753";
paths = (
{
closed = 1;
nodes = (
"78 31 LINE",
"259 85 LINE",
"259 483 LINE",
"254 486 LINE",
"259 610 LINE",
"259 811 LINE",
"78 811 LINE"
);
},
{
closed = 1;
nodes = (
"517 -10 OFFCURVE",
"633 110 OFFCURVE",
"633 299 CURVE SMOOTH",
"633 479 OFFCURVE",
"531 564 OFFCURVE",
"412 564 CURVE SMOOTH",
"313 564 OFFCURVE",
"263 519 OFFCURVE",
"240 494 CURVE",
"259 401 LINE",
"276 414 OFFCURVE",
"312 430 OFFCURVE",
"350 430 CURVE SMOOTH",
"405 430 OFFCURVE",
"444 398 OFFCURVE",
"444 288 CURVE SMOOTH",
"443 175 OFFCURVE",
"397 111 OFFCURVE",
"335 111 CURVE SMOOTH",
"296 111 OFFCURVE",
"269 116 OFFCURVE",
"259 128 CURVE",
"78 31 LINE",
"91 20 OFFCURVE",
"221 -10 OFFCURVE",
"338 -10 CURVE SMOOTH"
);
}
);
width = 674;
}
);
leftKerningGroup = b;
rightKerningGroup = o;
unicode = 0062;
},
{
glyphname = c;
lastChange = "2019-02-16 05:39:16 +0000";
layers = (
{
anchors = (
{
name = bottom;
position = "{247, 0}";
},
{
name = btm;
position = "{280, -83}";
},
{
name = top;
position = "{301, 830}";
}
);
layerId = "8BC678DE-46B6-4C98-A96E-C0ED61786D32";
paths = (
{
closed = 1;
nodes = (
"52 111 OFFCURVE",
"139 -8 OFFCURVE",
"292 -8 CURVE SMOOTH",
"363 -8 OFFCURVE",
"427 13 OFFCURVE",
"462 45 CURVE",
"445 92 LINE",
"421 77 OFFCURVE",
"369 54 OFFCURVE",
"305 54 CURVE SMOOTH",
"210 54 OFFCURVE",
"127 130 OFFCURVE",
"131 286 CURVE SMOOTH",
"135 432 OFFCURVE",
"219 501 OFFCURVE",
"310 501 CURVE SMOOTH",
"362 501 OFFCURVE",
"408 491 OFFCURVE",
"436 471 CURVE",
"450 536 LINE",
"430 549 OFFCURVE",
"380 564 OFFCURVE",
"314 564 CURVE SMOOTH",
"145 564 OFFCURVE",
"51 438 OFFCURVE",
"52 270 CURVE SMOOTH"
);
}
);
width = 494;
},
{
anchors = (
{
name = bottom;
position = "{245, 0}";
},
{
name = btm;
position = "{278, -83}";
},
{
name = top;
position = "{299, 830}";
}
);
layerId = "DB9867C4-88B4-4207-8D32-C8AFE6754240";
paths = (
{
closed = 1;
nodes = (
"47 113 OFFCURVE",
"135 -8 OFFCURVE",
"292 -8 CURVE SMOOTH",
"362 -8 OFFCURVE",
"429 13 OFFCURVE",
"463 45 CURVE",
"441 106 LINE",
"416 91 OFFCURVE",
"364 73 OFFCURVE",
"308 73 CURVE SMOOTH",
"218 73 OFFCURVE",
"146 150 OFFCURVE",
"151 292 CURVE SMOOTH",
"156 427 OFFCURVE",
"234 481 OFFCURVE",
"311 481 CURVE SMOOTH",
"368 481 OFFCURVE",
"407 471 OFFCURVE",
"436 451 CURVE",
"453 536 LINE",
"436 547 OFFCURVE",
"386 564 OFFCURVE",
"316 564 CURVE SMOOTH",
"137 564 OFFCURVE",
"47 437 OFFCURVE",
"47 272 CURVE SMOOTH"
);
}
);
width = 489;
},
{
anchors = (
{
name = bottom;
position = "{255, 0}";
},
{
name = btm;
position = "{292, -83}";
},
{
name = top;
position = "{311, 831}";
}
);
layerId = "ADDB461F-7E69-4B45-B56F-E3E322F9570B";
paths = (
{
closed = 1;
nodes = (
"46 112 OFFCURVE",
"133 -8 OFFCURVE",
"306 -8 CURVE SMOOTH",
"376 -8 OFFCURVE",
"443 14 OFFCURVE",
"477 47 CURVE",
"455 138 LINE",
"433 125 OFFCURVE",
"385 115 OFFCURVE",
"334 115 CURVE SMOOTH",
"255 115 OFFCURVE",
"194 170 OFFCURVE",
"198 291 CURVE SMOOTH",
"201 402 OFFCURVE",
"276 440 OFFCURVE",
"340 440 CURVE SMOOTH",
"392 440 OFFCURVE",
"423 433 OFFCURVE",
"450 418 CURVE",
"469 536 LINE",
"450 550 OFFCURVE",
"394 564 OFFCURVE",
"324 564 CURVE SMOOTH",
"135 564 OFFCURVE",
"46 436 OFFCURVE",
"46 271 CURVE SMOOTH"
);
}
);
width = 509;
},
{
anchors = (
{
name = bottom;
position = "{256, 0}";
},
{
name = btm;
position = "{296, -83}";
},
{
name = top;
position = "{306, 831}";
}
);
layerId = "23A20576-2241-481A-AD5B-28E85381F753";
paths = (
{
closed = 1;
nodes = (
"42 112 OFFCURVE",
"127 -8 OFFCURVE",
"311 -8 CURVE SMOOTH",
"383 -8 OFFCURVE",
"455 17 OFFCURVE",
"486 49 CURVE",
"464 151 LINE",
"440 140 OFFCURVE",
"397 131 OFFCURVE",
"350 131 CURVE SMOOTH",
"280 131 OFFCURVE",
"223 171 OFFCURVE",
"225 286 CURVE SMOOTH",
"227 391 OFFCURVE",
"291 424 OFFCURVE",
"349 424 CURVE SMOOTH",
"402 424 OFFCURVE",
"436 413 OFFCURVE",
"458 401 CURVE",
"478 537 LINE",
"460 550 OFFCURVE",
"399 564 OFFCURVE",
"324 564 CURVE SMOOTH",
"129 564 OFFCURVE",
"42 436 OFFCURVE",
"42 273 CURVE SMOOTH"
);
}
);
width = 512;
}
);
leftKerningGroup = o;
rightKerningGroup = c;
unicode = 0063;
},
{
glyphname = d;
lastChange = "2019-02-16 05:39:16 +0000";
layers = (
{
anchors = (
{
name = bottom;
position = "{303, 0}";
},
{
name = btm;
position = "{299, -83}";
},
{
name = center;
position = "{303, 279}";
},
{
name = top;
position = "{184, 830}";
},
{
name = topright;
position = "{585, 557}";
}
);
layerId = "8BC678DE-46B6-4C98-A96E-C0ED61786D32";
paths = (
{
closed = 1;
nodes = (
"517 0 LINE",
"517 813 LINE",
"436 813 LINE",
"436 579 LINE",
"439 491 LINE",
"436 489 LINE",
"436 79 LINE",
"440 77 LINE",
"440 0 LINE"
);
},
{
closed = 1;
nodes = (
"373 -8 OFFCURVE",
"426 47 OFFCURVE",
"450 71 CURVE",
"437 113 LINE",
"410 90 OFFCURVE",
"357 56 OFFCURVE",
"292 56 CURVE SMOOTH",
"192 56 OFFCURVE",
"131 126 OFFCURVE",
"133 271 CURVE SMOOTH",
"135 420 OFFCURVE",
"215 505 OFFCURVE",
"321 505 CURVE SMOOTH",
"382 505 OFFCURVE",
"419 493 OFFCURVE",
"437 477 CURVE",
"467 530 LINE",
"455 542 OFFCURVE",
"401 564 OFFCURVE",
"329 564 CURVE SMOOTH",
"161 564 OFFCURVE",
"50 438 OFFCURVE",
"50 260 CURVE SMOOTH",
"50 72 OFFCURVE",
"156 -8 OFFCURVE",
"270 -8 CURVE SMOOTH"
);
}
);
width = 605;
},
{
anchors = (
{
name = bottom;
position = "{302, 0}";
},
{
name = btm;
position = "{296, -83}";
},
{
name = center;
position = "{302, 279}";
},
{
name = top;
position = "{176, 830}";
},
{
name = topright;
position = "{584, 557}";
}
);
layerId = "DB9867C4-88B4-4207-8D32-C8AFE6754240";
paths = (
{
closed = 1;
nodes = (
"523 0 LINE",
"523 813 LINE",
"416 813 LINE",
"416 581 LINE",
"420 478 LINE",
"416 475 LINE",
"416 77 LINE",
"421 75 LINE",
"421 0 LINE"
);
},
{
closed = 1;
nodes = (
"368 -8 OFFCURVE",
"411 44 OFFCURVE",
"435 69 CURVE",
"416 122 LINE",
"393 104 OFFCURVE",
"350 77 OFFCURVE",
"296 77 CURVE SMOOTH",
"206 77 OFFCURVE",
"155 139 OFFCURVE",
"157 272 CURVE SMOOTH",
"158 412 OFFCURVE",
"227 486 OFFCURVE",
"315 486 CURVE SMOOTH",
"363 486 OFFCURVE",
"396 479 OFFCURVE",
"416 461 CURVE",
"458 531 LINE",
"445 542 OFFCURVE",
"395 564 OFFCURVE",
"326 564 CURVE SMOOTH",
"158 564 OFFCURVE",
"47 438 OFFCURVE",
"47 258 CURVE SMOOTH",
"47 77 OFFCURVE",
"150 -8 OFFCURVE",
"267 -8 CURVE SMOOTH"
);
}
);
width = 604;
},
{
anchors = (
{
name = bottom;
position = "{325, 0}";
},
{
name = btm;
position = "{315, -83}";
},
{
name = center;
position = "{325, 279}";
},
{
name = top;
position = "{202, 831}";
},
{
name = topright;
position = "{630, 557}";
}
);
layerId = "ADDB461F-7E69-4B45-B56F-E3E322F9570B";
paths = (
{
closed = 1;
nodes = (
"568 0 LINE",
"568 812 LINE",
"415 812 LINE",
"415 598 LINE",
"420 455 LINE",
"415 452 LINE",
"415 77 LINE",
"428 70 LINE",
"428 0 LINE"
);
},
{
closed = 1;
nodes = (
"364 -8 OFFCURVE",
"412 41 OFFCURVE",
"434 65 CURVE",
"416 141 LINE",
"393 125 OFFCURVE",
"353 111 OFFCURVE",
"311 111 CURVE SMOOTH",
"245 111 OFFCURVE",
"201 149 OFFCURVE",
"202 273 CURVE SMOOTH",
"203 396 OFFCURVE",
"258 456 OFFCURVE",
"330 456 CURVE SMOOTH",
"364 456 OFFCURVE",
"396 454 OFFCURVE",
"416 440 CURVE",
"451 531 LINE",
"439 542 OFFCURVE",
"393 564 OFFCURVE",
"326 564 CURVE SMOOTH",
"156 564 OFFCURVE",
"42 445 OFFCURVE",
"42 260 CURVE SMOOTH",
"42 80 OFFCURVE",
"146 -8 OFFCURVE",
"264 -8 CURVE SMOOTH"
);
}
);
width = 650;
},
{
anchors = (
{
name = bottom;
position = "{337, 0}";
},
{
name = btm;
position = "{330, -83}";
},
{
name = center;
position = "{337, 279}";
},
{
name = top;
position = "{218, 831}";
},
{
name = topright;
position = "{654, 557}";
}
);
layerId = "23A20576-2241-481A-AD5B-28E85381F753";
paths = (
{
closed = 1;
nodes = (
"596 0 LINE",
"596 812 LINE",
"416 812 LINE",
"416 610 LINE",
"420 446 LINE",
"416 442 LINE",
"416 77 LINE",
"431 66 LINE",
"431 0 LINE"
);
},
{
closed = 1;
nodes = (
"361 -8 OFFCURVE",
"412 38 OFFCURVE",
"435 63 CURVE",
"417 154 LINE",
"397 140 OFFCURVE",
"359 127 OFFCURVE",
"324 127 CURVE SMOOTH",
"267 127 OFFCURVE",
"230 164 OFFCURVE",
"231 268 CURVE SMOOTH",
"231 383 OFFCURVE",
"276 439 OFFCURVE",
"339 439 CURVE SMOOTH",
"373 439 OFFCURVE",
"402 435 OFFCURVE",
"417 423 CURVE",
"448 537 LINE",
"436 546 OFFCURVE",
"392 564 OFFCURVE",
"325 564 CURVE SMOOTH",
"155 564 OFFCURVE",
"42 448 OFFCURVE",
"42 259 CURVE SMOOTH",
"42 79 OFFCURVE",
"144 -8 OFFCURVE",
"262 -8 CURVE SMOOTH"
);
}
);
width = 674;
}
);
leftKerningGroup = d;
rightKerningGroup = d;
unicode = 0064;
},
{
glyphname = eth;
lastChange = "2019-01-21 06:08:13 +0000";
layers = (
{
layerId = "8BC678DE-46B6-4C98-A96E-C0ED61786D32";
paths = (
{
closed = 1;
nodes = (
"444 -11 OFFCURVE",
"545 89 OFFCURVE",
"545 299 CURVE SMOOTH",
"545 496 OFFCURVE",
"464 660 OFFCURVE",
"323 765 CURVE SMOOTH",
"317 770 OFFCURVE",
"310 775 OFFCURVE",
"303 780 CURVE SMOOTH",
"261 809 OFFCURVE",
"200 840 OFFCURVE",
"139 859 CURVE",
"120 812 LINE",
"162 798 OFFCURVE",
"215 770 OFFCURVE",
"255 742 CURVE SMOOTH",
"261 738 OFFCURVE",
"268 733 OFFCURVE",
"273 729 CURVE SMOOTH",
"362 662 OFFCURVE",
"430 559 OFFCURVE",
"448 441 CURVE",
"477 430 LINE",
"455 508 OFFCURVE",
"386 563 OFFCURVE",
"303 564 CURVE SMOOTH",
"157 564 OFFCURVE",
"53 457 OFFCURVE",
"53 272 CURVE SMOOTH",
"53 95 OFFCURVE",
"151 -16 OFFCURVE",
"301 -13 CURVE SMOOTH"
);
},
{
closed = 1;
nodes = (
"205 43 OFFCURVE",
"134 126 OFFCURVE",
"134 275 CURVE SMOOTH",
"134 413 OFFCURVE",
"197 503 OFFCURVE",
"306 503 CURVE SMOOTH",
"390 503 OFFCURVE",
"445 463 OFFCURVE",
"459 416 CURVE",
"464 368 OFFCURVE",
"463 320 OFFCURVE",
"463 280 CURVE SMOOTH",
"463 118 OFFCURVE",
"387 43 OFFCURVE",
"304 43 CURVE SMOOTH"
);
},
{
closed = 1;
nodes = (
"290 736 LINE",
"299 749 LINE",
"320 767 OFFCURVE",
"385 842 OFFCURVE",
"385 842 CURVE",
"341 875 LINE",
"341 875 OFFCURVE",
"277 797 OFFCURVE",
"259 781 CURVE",
"249 770 LINE",
"167 680 LINE",
"210 646 LINE"
);
}
);
width = 589;
},
{
layerId = "DB9867C4-88B4-4207-8D32-C8AFE6754240";
paths = (
{
closed = 1;
nodes = (
"445 -11 OFFCURVE",
"544 90 OFFCURVE",
"544 297 CURVE SMOOTH",
"544 493 OFFCURVE",
"467 657 OFFCURVE",
"329 764 CURVE SMOOTH",
"321 770 OFFCURVE",
"312 777 OFFCURVE",
"303 783 CURVE SMOOTH",
"253 817 OFFCURVE",
"197 845 OFFCURVE",
"134 865 CURVE",
"108 804 LINE",
"155 788 OFFCURVE",
"199 763 OFFCURVE",
"240 733 CURVE SMOOTH",
"248 728 OFFCURVE",
"255 722 OFFCURVE",
"263 716 CURVE SMOOTH",
"343 652 OFFCURVE",
"404 561 OFFCURVE",
"419 451 CURVE",
"458 432 LINE",
"443 499 OFFCURVE",
"388 563 OFFCURVE",
"296 563 CURVE SMOOTH",
"147 564 OFFCURVE",
"46 453 OFFCURVE",
"46 270 CURVE SMOOTH",
"46 96 OFFCURVE",
"144 -15 OFFCURVE",
"296 -13 CURVE SMOOTH"
);
},
{
closed = 1;
nodes = (
"202 61 OFFCURVE",
"153 151 OFFCURVE",
"153 274 CURVE SMOOTH",
"153 396 OFFCURVE",
"200 483 OFFCURVE",
"300 483 CURVE SMOOTH",
"388 483 OFFCURVE",
"428 445 OFFCURVE",
"435 415 CURVE",
"439 363 OFFCURVE",
"437 321 OFFCURVE",
"437 271 CURVE SMOOTH",
"437 143 OFFCURVE",
"384 61 OFFCURVE",
"301 61 CURVE SMOOTH"
);
},
{
closed = 1;
nodes = (
"284 726 LINE",
"296 743 LINE",
"325 767 OFFCURVE",
"387 840 OFFCURVE",
"387 840 CURVE",
"330 884 LINE",
"330 884 OFFCURVE",
"268 807 OFFCURVE",
"244 786 CURVE",
"231 771 LINE",
"148 682 LINE",
"205 638 LINE"
);
}
);
width = 581;
},
{
layerId = "ADDB461F-7E69-4B45-B56F-E3E322F9570B";
paths = (
{
closed = 1;
nodes = (
"472 -12 OFFCURVE",
"593 100 OFFCURVE",
"593 318 CURVE SMOOTH",
"593 514 OFFCURVE",
"491 702 OFFCURVE",
"332 785 CURVE SMOOTH",
"323 790 OFFCURVE",
"294 805 OFFCURVE",
"286 810 CURVE SMOOTH",
"241 837 OFFCURVE",
"196 854 OFFCURVE",
"133 873 CURVE",
"107 787 LINE",
"147 775 OFFCURVE",
"187 755 OFFCURVE",
"222 732 CURVE SMOOTH",
"229 727 OFFCURVE",
"237 719 OFFCURVE",
"245 715 CURVE SMOOTH",
"326 668 OFFCURVE",
"394 585 OFFCURVE",
"407 499 CURVE",
"456 463 LINE",
"440 511 OFFCURVE",
"389 561 OFFCURVE",
"305 561 CURVE SMOOTH",
"140 561 OFFCURVE",
"46 446 OFFCURVE",
"46 269 CURVE SMOOTH",
"46 101 OFFCURVE",
"153 -14 OFFCURVE",
"319 -13 CURVE SMOOTH"
);
},
{
closed = 1;
nodes = (
"250 99 OFFCURVE",
"205 156 OFFCURVE",
"205 267 CURVE SMOOTH",
"205 387 OFFCURVE",
"249 455 OFFCURVE",
"322 455 CURVE SMOOTH",
"378 455 OFFCURVE",
"417 424 OFFCURVE",
"433 398 CURVE",
"435 368 OFFCURVE",
"436 316 OFFCURVE",
"436 280 CURVE SMOOTH",
"436 163 OFFCURVE",
"386 99 OFFCURVE",
"322 99 CURVE SMOOTH"
);
},
{
closed = 1;
nodes = (
"301 725 LINE",
"313 743 LINE",
"338 769 OFFCURVE",
"403 855 OFFCURVE",
"403 855 CURVE",
"329 904 LINE",
"329 904 OFFCURVE",
"262 809 OFFCURVE",
"241 786 CURVE",
"229 770 LINE",
"147 665 LINE",
"220 616 LINE"
);
}
);
width = 632;
},
{
layerId = "23A20576-2241-481A-AD5B-28E85381F753";
paths = (
{
closed = 1;
nodes = (
"478 -13 OFFCURVE",
"612 87 OFFCURVE",
"612 325 CURVE SMOOTH",
"612 519 OFFCURVE",
"502 711 OFFCURVE",
"328 803 CURVE SMOOTH",
"319 808 OFFCURVE",
"294 820 OFFCURVE",
"285 825 CURVE SMOOTH",
"236 853 OFFCURVE",
"198 865 OFFCURVE",
"135 883 CURVE",
"106 790 LINE",
"148 777 OFFCURVE",
"189 754 OFFCURVE",
"223 731 CURVE SMOOTH",
"231 726 OFFCURVE",
"249 712 OFFCURVE",
"256 708 CURVE SMOOTH",
"332 657 OFFCURVE",
"391 586 OFFCURVE",
"409 499 CURVE",
"451 484 LINE",
"436 519 OFFCURVE",
"389 561 OFFCURVE",
"301 561 CURVE SMOOTH",
"135 561 OFFCURVE",
"41 436 OFFCURVE",
"41 269 CURVE SMOOTH",
"41 102 OFFCURVE",
"151 -13 OFFCURVE",
"324 -13 CURVE SMOOTH"
);
},
{
closed = 1;
nodes = (
"271 112 OFFCURVE",
"231 158 OFFCURVE",
"231 262 CURVE SMOOTH",
"231 383 OFFCURVE",
"270 445 OFFCURVE",
"331 445 CURVE SMOOTH",
"374 445 OFFCURVE",
"411 423 OFFCURVE",
"425 401 CURVE",
"427 376 OFFCURVE",
"427 316 OFFCURVE",
"427 289 CURVE SMOOTH",
"427 166 OFFCURVE",
"379 112 OFFCURVE",
"326 112 CURVE SMOOTH"
);
},
{
closed = 1;
nodes = (
"313 726 LINE",
"325 744 LINE",
"350 769 OFFCURVE",
"418 860 OFFCURVE",
"418 860 CURVE",
"336 917 LINE",
"336 917 OFFCURVE",
"264 813 OFFCURVE",
"243 791 CURVE",
"232 775 LINE",
"146 664 LINE",
"226 608 LINE"
);
}
);
width = 645;
}
);
leftKerningGroup = eth;
rightKerningGroup = eth;
unicode = 00F0;
},
{
glyphname = dcroat;
lastChange = "2019-01-21 06:08:13 +0000";
layers = (
{
components = (
{
name = d;
}
);
layerId = "8BC678DE-46B6-4C98-A96E-C0ED61786D32";
paths = (
{
closed = 1;
nodes = (
"593 647 LINE",
"593 700 LINE",
"292 700 LINE",
"292 647 LINE"
);
}
);
width = 605;
},
{
components = (
{
name = d;
}
);
layerId = "DB9867C4-88B4-4207-8D32-C8AFE6754240";
paths = (
{
closed = 1;
nodes = (
"592 638 LINE",
"592 707 LINE",
"284 707 LINE",
"284 638 LINE"
);
}
);
width = 604;
},
{
components = (
{
name = d;
}
);
layerId = "ADDB461F-7E69-4B45-B56F-E3E322F9570B";
paths = (
{
closed = 1;
nodes = (
"634 631 LINE",
"634 719 LINE",
"309 719 LINE",
"309 631 LINE"
);
}
);
width = 654;
},
{
components = (
{
name = d;
}
);
layerId = "23A20576-2241-481A-AD5B-28E85381F753";
paths = (
{
closed = 1;
nodes = (
"659 631 LINE",
"659 729 LINE",
"310 729 LINE",
"310 631 LINE"
);
}
);
width = 674;
}
);
leftKerningGroup = d;
rightKerningGroup = d;
unicode = 0111;
},
{
glyphname = e;
lastChange = "2019-02-16 05:39:16 +0000";
layers = (
{
anchors = (
{
name = bottom;
position = "{276, 0}";
},
{
name = btm;
position = "{296, -83}";
},
{
name = ogonek;
position = "{402, 25}";
},
{
name = top;
position = "{294, 830}";
}
);
layerId = "8BC678DE-46B6-4C98-A96E-C0ED61786D32";
paths = (
{
closed = 1;
nodes = (
"362 -8 OFFCURVE",
"445 13 OFFCURVE",
"481 43 CURVE",
"466 91 LINE",
"437 72 OFFCURVE",
"365 54 OFFCURVE",
"314 54 CURVE SMOOTH",
"211 54 OFFCURVE",
"136 107 OFFCURVE",
"131 250 CURVE SMOOTH",
"126 433 OFFCURVE",
"199 506 OFFCURVE",
"295 506 CURVE SMOOTH",
"396 506 OFFCURVE",
"429 427 OFFCURVE",
"423 325 CURVE",
"107 325 LINE",
"100 270 LINE",
"496 270 LINE",
"500 293 OFFCURVE",
"500 320 OFFCURVE",
"500 355 CURVE SMOOTH",
"497 482 OFFCURVE",
"418 566 OFFCURVE",
"300 564 CURVE SMOOTH",
"140 563 OFFCURVE",
"51 443 OFFCURVE",
"51 276 CURVE SMOOTH",
"51 98 OFFCURVE",
"137 -8 OFFCURVE",
"293 -8 CURVE SMOOTH"
);
}
);
width = 551;
},
{
anchors = (
{
name = bottom;
position = "{274, 0}";
},
{
name = btm;
position = "{295, -83}";
},
{
name = ogonek;
position = "{402, 25}";
},
{
name = top;
position = "{292, 830}";
}
);
layerId = "DB9867C4-88B4-4207-8D32-C8AFE6754240";
paths = (
{
closed = 1;
nodes = (
"361 -8 OFFCURVE",
"445 12 OFFCURVE",
"482 42 CURVE",
"461 104 LINE",
"434 87 OFFCURVE",
"360 73 OFFCURVE",
"323 73 CURVE SMOOTH",
"232 73 OFFCURVE",
"159 114 OFFCURVE",
"153 245 CURVE SMOOTH",
"146 428 OFFCURVE",
"210 488 OFFCURVE",
"290 488 CURVE SMOOTH",
"388 488 OFFCURVE",
"405 406 OFFCURVE",
"400 326 CURVE",
"121 326 LINE",
"111 255 LINE",
"496 255 LINE",
"501 280 OFFCURVE",
"501 313 OFFCURVE",
"501 354 CURVE SMOOTH",
"497 494 OFFCURVE",
"407 566 OFFCURVE",
"296 564 CURVE SMOOTH",
"133 562 OFFCURVE",
"47 441 OFFCURVE",
"47 279 CURVE SMOOTH",
"47 99 OFFCURVE",
"136 -8 OFFCURVE",
"294 -8 CURVE SMOOTH"
);
}
);
width = 548;
},
{
anchors = (
{
name = bottom;
position = "{291, 0}";
},
{
name = btm;
position = "{310, -83}";
},
{
name = ogonek;
position = "{402, 25}";
},
{
name = top;
position = "{310, 831}";
}
);
layerId = "ADDB461F-7E69-4B45-B56F-E3E322F9570B";
paths = (
{
closed = 1;
nodes = (
"396 -8 OFFCURVE",
"479 18 OFFCURVE",
"516 48 CURVE",
"491 134 LINE",
"461 118 OFFCURVE",
"387 105 OFFCURVE",
"348 105 CURVE SMOOTH",
"259 105 OFFCURVE",
"202 150 OFFCURVE",
"199 251 CURVE SMOOTH",
"196 410 OFFCURVE",
"239 456 OFFCURVE",
"308 456 CURVE SMOOTH",
"376 456 OFFCURVE",
"397 408 OFFCURVE",
"392 326 CURVE",
"138 326 LINE",
"128 242 LINE",
"528 242 LINE",
"532 267 OFFCURVE",
"534 304 OFFCURVE",
"534 346 CURVE SMOOTH",
"532 508 OFFCURVE",
"428 565 OFFCURVE",
"313 564 CURVE SMOOTH",
"142 563 OFFCURVE",
"46 442 OFFCURVE",
"46 280 CURVE SMOOTH",
"46 100 OFFCURVE",
"139 -8 OFFCURVE",
"309 -8 CURVE SMOOTH"
);
}
);
width = 581;
},
{
anchors = (
{
name = bottom;
position = "{298, 0}";
},
{
name = btm;
position = "{318, -83}";
},
{
name = ogonek;
position = "{402, 25}";
},
{
name = top;
position = "{319, 831}";
}
);
layerId = "23A20576-2241-481A-AD5B-28E85381F753";
paths = (
{
closed = 1;
nodes = (
"418 -8 OFFCURVE",
"502 22 OFFCURVE",
"539 52 CURVE",
"511 148 LINE",
"484 134 OFFCURVE",
"415 120 OFFCURVE",
"361 120 CURVE SMOOTH",
"274 120 OFFCURVE",
"223 158 OFFCURVE",
"221 255 CURVE SMOOTH",
"219 404 OFFCURVE",
"254 448 OFFCURVE",
"317 448 CURVE SMOOTH",
"372 448 OFFCURVE",
"392 407 OFFCURVE",
"387 326 CURVE",
"145 326 LINE",
"135 236 LINE",
"549 236 LINE",
"552 260 OFFCURVE",
"555 298 OFFCURVE",
"555 338 CURVE SMOOTH",
"553 517 OFFCURVE",
"439 564 OFFCURVE",
"321 564 CURVE SMOOTH",
"144 564 OFFCURVE",
"42 443 OFFCURVE",
"42 281 CURVE SMOOTH",
"42 100 OFFCURVE",
"139 -8 OFFCURVE",
"319 -8 CURVE SMOOTH"
);
}
);
width = 596;
}
);
leftKerningGroup = o;
rightKerningGroup = e;
unicode = 0065;
},
{
glyphname = schwa;
lastChange = "2019-01-21 06:08:13 +0000";
layers = (
{
anchors = (
{
name = bottom;
position = "{256.566, -273.078}";
},
{
name = btm;
position = "{258, -83}";
},
{
name = top;
position = "{259, 831}";
}
);
layerId = "8BC678DE-46B6-4C98-A96E-C0ED61786D32";
paths = (
{
closed = 1;
nodes = (
"189 565 OFFCURVE",
"106 544 OFFCURVE",
"70 514 CURVE",
"85 466 LINE",
"114 485 OFFCURVE",
"186 503 OFFCURVE",
"237 503 CURVE SMOOTH",
"340 503 OFFCURVE",
"415 450 OFFCURVE",
"420 307 CURVE SMOOTH",
"425 124 OFFCURVE",
"352 51 OFFCURVE",
"256 51 CURVE SMOOTH",
"155 51 OFFCURVE",
"122 130 OFFCURVE",
"128 232 CURVE",
"444 232 LINE",
"451 287 LINE",
"55 287 LINE",
"51 264 OFFCURVE",
"51 237 OFFCURVE",
"51 202 CURVE SMOOTH",
"54 75 OFFCURVE",
"133 -9 OFFCURVE",
"251 -7 CURVE SMOOTH",
"411 -6 OFFCURVE",
"500 114 OFFCURVE",
"500 281 CURVE SMOOTH",
"500 459 OFFCURVE",
"414 565 OFFCURVE",
"258 565 CURVE SMOOTH"
);
}
);
width = 551;
},
{
anchors = (
{
name = bottom;
position = "{256.496, -273.078}";
},
{
name = btm;
position = "{254, -83}";
},
{
name = top;
position = "{255, 831}";
}
);
layerId = "DB9867C4-88B4-4207-8D32-C8AFE6754240";
paths = (
{
closed = 1;
nodes = (
"187 565 OFFCURVE",
"103 545 OFFCURVE",
"66 515 CURVE",
"87 453 LINE",
"114 470 OFFCURVE",
"188 484 OFFCURVE",
"225 484 CURVE SMOOTH",
"316 484 OFFCURVE",
"389 443 OFFCURVE",
"395 312 CURVE SMOOTH",
"402 129 OFFCURVE",
"338 69 OFFCURVE",
"258 69 CURVE SMOOTH",
"160 69 OFFCURVE",
"143 151 OFFCURVE",
"148 231 CURVE",
"427 231 LINE",
"437 302 LINE",
"52 302 LINE",
"47 277 OFFCURVE",
"47 244 OFFCURVE",
"47 203 CURVE SMOOTH",
"51 63 OFFCURVE",
"141 -9 OFFCURVE",
"252 -7 CURVE SMOOTH",
"415 -5 OFFCURVE",
"501 116 OFFCURVE",
"501 278 CURVE SMOOTH",
"501 458 OFFCURVE",
"412 565 OFFCURVE",
"254 565 CURVE SMOOTH"
);
}
);
width = 548;
},
{
anchors = (
{
name = bottom;
position = "{271.43, -273.566}";
},
{
name = btm;
position = "{272, -83}";
},
{
name = top;
position = "{273, 831}";
}
);
layerId = "ADDB461F-7E69-4B45-B56F-E3E322F9570B";
paths = (
{
closed = 1;
nodes = (
"185 565 OFFCURVE",
"102 539 OFFCURVE",
"65 509 CURVE",
"90 423 LINE",
"120 439 OFFCURVE",
"194 452 OFFCURVE",
"233 452 CURVE SMOOTH",
"322 452 OFFCURVE",
"379 407 OFFCURVE",
"382 306 CURVE SMOOTH",
"385 147 OFFCURVE",
"342 101 OFFCURVE",
"273 101 CURVE SMOOTH",
"205 101 OFFCURVE",
"184 149 OFFCURVE",
"189 231 CURVE",
"443 231 LINE",
"453 315 LINE",
"53 315 LINE",
"49 290 OFFCURVE",
"47 253 OFFCURVE",
"47 211 CURVE SMOOTH",
"49 49 OFFCURVE",
"153 -8 OFFCURVE",
"268 -7 CURVE SMOOTH",
"439 -6 OFFCURVE",
"535 115 OFFCURVE",
"535 277 CURVE SMOOTH",
"535 457 OFFCURVE",
"442 565 OFFCURVE",
"272 565 CURVE SMOOTH"
);
}
);
width = 581;
},
{
anchors = (
{
name = bottom;
position = "{277.152, -273.566}";
},
{
name = btm;
position = "{279, -83}";
},
{
name = top;
position = "{280, 831}";
}
);
layerId = "23A20576-2241-481A-AD5B-28E85381F753";
paths = (
{
closed = 1;
nodes = (
"178 565 OFFCURVE",
"94 535 OFFCURVE",
"57 505 CURVE",
"85 409 LINE",
"112 423 OFFCURVE",
"181 437 OFFCURVE",
"235 437 CURVE SMOOTH",
"322 437 OFFCURVE",
"373 399 OFFCURVE",
"375 302 CURVE SMOOTH",
"377 153 OFFCURVE",
"342 109 OFFCURVE",
"279 109 CURVE SMOOTH",
"224 109 OFFCURVE",
"204 150 OFFCURVE",
"209 231 CURVE",
"451 231 LINE",
"461 321 LINE",
"47 321 LINE",
"44 297 OFFCURVE",
"41 259 OFFCURVE",
"41 219 CURVE SMOOTH",
"43 40 OFFCURVE",
"157 -7 OFFCURVE",
"275 -7 CURVE SMOOTH",
"452 -7 OFFCURVE",
"554 114 OFFCURVE",
"554 276 CURVE SMOOTH",
"554 457 OFFCURVE",
"457 565 OFFCURVE",
"277 565 CURVE SMOOTH"
);
}
);
width = 596;
}
);
leftKerningGroup = schwa;
rightKerningGroup = schwa;
unicode = 0259;
},
{
glyphname = ezh;
lastChange = "2019-02-16 05:39:16 +0000";
layers = (
{
anchors = (
{
name = bottom;
position = "{252, 0}";
},
{
name = top;
position = "{226, 831}";
}
);
layerId = "23A20576-2241-481A-AD5B-28E85381F753";
paths = (
{
closed = 1;
nodes = (
"366 -150 OFFCURVE",
"450 -32 OFFCURVE",
"450 91 CURVE SMOOTH",
"450 176 OFFCURVE",
"394 238 OFFCURVE",
"278 248 CURVE",
"464 524 LINE",
"444 557 LINE",
"45 557 LINE",
"45 426 LINE",
"267 426 LINE",
"209 368 LINE",
"130 238 LINE",
"189 180 LINE",
"249 195 OFFCURVE",
"296 146 OFFCURVE",
"296 89 CURVE SMOOTH",
"296 33 OFFCURVE",
"264 -30 OFFCURVE",
"118 -30 CURVE SMOOTH",
"95 -30 OFFCURVE",
"70 -29 OFFCURVE",
"45 -20 CURVE",
"44 -143 LINE",
"74 -145 OFFCURVE",
"104 -150 OFFCURVE",
"135 -150 CURVE SMOOTH"
);
}
);
width = 504;
},
{
anchors = (
{
name = bottom;
position = "{240, 0}";
},
{
name = top;
position = "{226, 831}";
}
);
layerId = "ADDB461F-7E69-4B45-B56F-E3E322F9570B";
paths = (
{
closed = 1;
nodes = (
"366 -147 OFFCURVE",
"439 -29 OFFCURVE",
"439 96 CURVE SMOOTH",
"439 180 OFFCURVE",
"345 251 OFFCURVE",
"240 251 CURVE",
"422 518 LINE",
"397 557 LINE",
"40 557 LINE",
"40 454 LINE",
"258 454 LINE",
"211 403 LINE",
"107 233 LINE",
"160 180 LINE",
"243 180 OFFCURVE",
"288 144 OFFCURVE",
"288 90 CURVE SMOOTH",
"288 14 OFFCURVE",
"259 -47 OFFCURVE",
"123 -47 CURVE SMOOTH",
"90 -47 OFFCURVE",
"69 -43 OFFCURVE",
"40 -38 CURVE",
"40 -141 LINE",
"73 -142 OFFCURVE",
"109 -147 OFFCURVE",
"144 -147 CURVE SMOOTH"
);
}
);
width = 479;
},
{
anchors = (
{
name = bottom;
position = "{230, 0}";
},
{
name = top;
position = "{220, 831}";
}
);
layerId = "DB9867C4-88B4-4207-8D32-C8AFE6754240";
paths = (
{
closed = 1;
nodes = (
"322 -147 OFFCURVE",
"419 -53 OFFCURVE",
"419 79 CURVE SMOOTH",
"419 183 OFFCURVE",
"334 238 OFFCURVE",
"229 252 CURVE",
"411 516 LINE",
"381 557 LINE",
"43 557 LINE",
"43 480 LINE",
"289 480 LINE",
"238 427 LINE",
"112 230 LINE",
"160 180 LINE",
"243 180 OFFCURVE",
"311 164 OFFCURVE",
"311 67 CURVE SMOOTH",
"311 -13 OFFCURVE",
"245 -72 OFFCURVE",
"127 -72 CURVE SMOOTH",
"94 -72 OFFCURVE",
"72 -69 OFFCURVE",
"43 -64 CURVE",
"44 -143 LINE",
"77 -144 OFFCURVE",
"109 -147 OFFCURVE",
"144 -147 CURVE SMOOTH"
);
}
);
width = 459;
},
{
anchors = (
{
name = bottom;
position = "{227, 0}";
},
{
name = top;
position = "{216, 831}";
}
);
layerId = "8BC678DE-46B6-4C98-A96E-C0ED61786D32";
paths = (
{
closed = 1;
nodes = (
"322 -147 OFFCURVE",
"413 -48 OFFCURVE",
"413 85 CURVE SMOOTH",
"413 189 OFFCURVE",
"324 248 OFFCURVE",
"219 251 CURVE",
"401 526 LINE",
"381 557 LINE",
"45 557 LINE",
"45 499 LINE",
"314 499 LINE",
"275 452 LINE",
"136 241 LINE",
"184 204 LINE",
"264 205 OFFCURVE",
"335 171 OFFCURVE",
"335 74 CURVE SMOOTH",
"335 -25 OFFCURVE",
"266 -89 OFFCURVE",
"130 -89 CURVE SMOOTH",
"97 -89 OFFCURVE",
"74 -89 OFFCURVE",
"45 -84 CURVE",
"46 -143 LINE",
"79 -144 OFFCURVE",
"109 -147 OFFCURVE",
"144 -147 CURVE SMOOTH"
);
}
);
width = 453;
}
);
unicode = 0292;
},
{
glyphname = f;
lastChange = "2019-02-16 05:39:16 +0000";
layers = (
{
anchors = (
{
name = bottom;
position = "{196, 0}";
},
{
name = btm;
position = "{188, -83}";
},
{
name = top;
position = "{189, 1005}";
}
);
layerId = "8BC678DE-46B6-4C98-A96E-C0ED61786D32";
paths = (
{
closed = 1;
nodes = (
"214 0 LINE",
"214 495 LINE",
"362 495 LINE",
"362 557 LINE",
"214 557 LINE",
"214 619 LINE SMOOTH",
"214 709 OFFCURVE",
"254 756 OFFCURVE",
"313 756 CURVE SMOOTH",
"352 756 OFFCURVE",
"373 752 OFFCURVE",
"391 746 CURVE",
"391 811 LINE",
"380 815 OFFCURVE",
"354 821 OFFCURVE",
"324 821 CURVE SMOOTH",
"235 821 OFFCURVE",
"133 767 OFFCURVE",
"133 602 CURVE SMOOTH",
"133 557 LINE",
"37 540 LINE",
"37 495 LINE",
"133 495 LINE",
"133 0 LINE"
);
}
);
width = 391;
},
{
anchors = (
{
name = bottom;
position = "{198, 0}";
},
{
name = btm;
position = "{187, -83}";
},
{
name = top;
position = "{184, 1004}";
}
);
layerId = "DB9867C4-88B4-4207-8D32-C8AFE6754240";
paths = (
{
closed = 1;
nodes = (
"229 0 LINE",
"229 476 LINE",
"366 476 LINE",
"366 557 LINE",
"229 557 LINE",
"229 629 LINE SMOOTH",
"229 700 OFFCURVE",
"262 735 OFFCURVE",
"308 735 CURVE SMOOTH",
"352 735 OFFCURVE",
"372 732 OFFCURVE",
"392 726 CURVE",
"392 811 LINE",
"382 814 OFFCURVE",
"353 821 OFFCURVE",
"323 821 CURVE SMOOTH",
"233 821 OFFCURVE",
"121 771 OFFCURVE",
"121 605 CURVE SMOOTH",
"121 557 LINE",
"37 535 LINE",
"37 476 LINE",
"121 476 LINE",
"121 0 LINE"
);
}
);
width = 396;
},
{
anchors = (
{
name = bottom;
position = "{210, 0}";
},
{
name = btm;
position = "{203, -83}";
},
{
name = top;
position = "{158, 994}";
}
);
layerId = "ADDB461F-7E69-4B45-B56F-E3E322F9570B";
paths = (
{
closed = 1;
nodes = (
"268 0 LINE",
"268 451 LINE",
"398 451 LINE",
"398 557 LINE",
"268 557 LINE",
"268 613 LINE SMOOTH",
"268 681 OFFCURVE",
"300 714 OFFCURVE",
"346 714 CURVE SMOOTH",
"384 714 OFFCURVE",
"407 710 OFFCURVE",
"422 703 CURVE",
"422 811 LINE",
"410 815 OFFCURVE",
"366 822 OFFCURVE",
"324 822 CURVE SMOOTH",
"228 822 OFFCURVE",
"116 773 OFFCURVE",
"116 610 CURVE SMOOTH",
"116 557 LINE",
"40 540 LINE",
"40 451 LINE",
"116 451 LINE",
"116 0 LINE"
);
}
);
width = 419;
},
{
anchors = (
{
name = bottom;
position = "{215, 0}";
},
{
name = btm;
position = "{205, -83}";
},
{
name = top;
position = "{132, 987}";
}
);
layerId = "23A20576-2241-481A-AD5B-28E85381F753";
paths = (
{
closed = 1;
nodes = (
"290 0 LINE",
"290 438 LINE",
"411 438 LINE",
"411 557 LINE",
"290 557 LINE",
"290 607 LINE SMOOTH",
"290 672 OFFCURVE",
"318 699 OFFCURVE",
"360 699 CURVE SMOOTH",
"395 699 OFFCURVE",
"419 693 OFFCURVE",
"432 687 CURVE",
"432 811 LINE",
"419 814 OFFCURVE",
"381 822 OFFCURVE",
"324 822 CURVE SMOOTH",
"222 822 OFFCURVE",
"108 774 OFFCURVE",
"108 614 CURVE SMOOTH",
"108 557 LINE",
"39 543 LINE",
"39 438 LINE",
"108 438 LINE",
"108 0 LINE"
);
}
);
width = 430;
}
);
leftKerningGroup = f;
rightKerningGroup = f;
unicode = 0066;
},
{
glyphname = g;
lastChange = "2019-02-16 05:39:16 +0000";
layers = (
{
anchors = (
{
name = bottom;
position = "{299, -273}";
},
{
name = top;
position = "{278, 830}";
}
);
layerId = "8BC678DE-46B6-4C98-A96E-C0ED61786D32";
paths = (
{
closed = 1;
nodes = (
"441 -253 OFFCURVE",
"561 -184 OFFCURVE",
"561 -74 CURVE SMOOTH",
"561 -4 OFFCURVE",
"529 64 OFFCURVE",
"370 64 CURVE SMOOTH",
"249 64 LINE SMOOTH",
"190 64 OFFCURVE",
"169 79 OFFCURVE",
"169 126 CURVE SMOOTH",
"169 160 OFFCURVE",
"196 193 OFFCURVE",
"218 203 CURVE",
"166 218 LINE",
"124 189 OFFCURVE",
"95 145 OFFCURVE",
"95 106 CURVE SMOOTH",
"94 70 OFFCURVE",
"104 34 OFFCURVE",
"152 16 CURVE SMOOTH",
"158 14 OFFCURVE",
"164 9 OFFCURVE",
"170 8 CURVE SMOOTH",
"192 2 OFFCURVE",
"222 0 OFFCURVE",
"261 0 CURVE SMOOTH",
"336 0 LINE SMOOTH",
"446 0 OFFCURVE",
"483 -27 OFFCURVE",
"483 -91 CURVE SMOOTH",
"483 -163 OFFCURVE",
"391 -196 OFFCURVE",
"295 -196 CURVE SMOOTH",
"189 -196 OFFCURVE",
"139 -163 OFFCURVE",
"139 -85 CURVE SMOOTH",
"139 -27 OFFCURVE",
"179 3 OFFCURVE",
"203 20 CURVE",
"148 28 LINE",
"113 13 OFFCURVE",
"59 -32 OFFCURVE",
"59 -95 CURVE SMOOTH",
"59 -206 OFFCURVE",
"151 -252 OFFCURVE",
"292 -252 CURVE SMOOTH"
);
},
{
closed = 1;
nodes = (
"404 186 OFFCURVE",
"502 254 OFFCURVE",
"502 380 CURVE SMOOTH",
"502 508 OFFCURVE",
"401 567 OFFCURVE",
"285 564 CURVE SMOOTH",
"166 562 OFFCURVE",
"69 502 OFFCURVE",
"69 370 CURVE SMOOTH",
"69 258 OFFCURVE",
"162 186 OFFCURVE",
"282 186 CURVE SMOOTH"
);
},
{
closed = 1;
nodes = (
"196 240 OFFCURVE",
"150 298 OFFCURVE",
"150 374 CURVE SMOOTH",
"150 478 OFFCURVE",
"217 508 OFFCURVE",
"289 509 CURVE SMOOTH",
"371 509 OFFCURVE",
"421 466 OFFCURVE",
"421 377 CURVE SMOOTH",
"421 278 OFFCURVE",
"364 240 OFFCURVE",
"283 240 CURVE SMOOTH"
);
},
{
closed = 1;
nodes = (
"582 490 LINE",
"582 555 LINE",
"529 555 LINE SMOOTH",
"479 555 OFFCURVE",
"424 537 OFFCURVE",
"409 522 CURVE",
"438 490 LINE"
);
}
);
width = 598;
},
{
anchors = (
{
name = bottom;
position = "{297, -273}";
},
{
name = top;
position = "{277, 830}";
}
);
layerId = "DB9867C4-88B4-4207-8D32-C8AFE6754240";
paths = (
{
closed = 1;
nodes = (
"434 -253 OFFCURVE",
"556 -183 OFFCURVE",
"556 -71 CURVE SMOOTH",
"556 6 OFFCURVE",
"521 84 OFFCURVE",
"351 84 CURVE SMOOTH",
"250 84 LINE SMOOTH",
"204 84 OFFCURVE",
"187 96 OFFCURVE",
"187 138 CURVE SMOOTH",
"187 165 OFFCURVE",
"206 191 OFFCURVE",
"230 201 CURVE",
"162 220 LINE",
"117 191 OFFCURVE",
"89 147 OFFCURVE",
"88 109 CURVE SMOOTH",
"88 75 OFFCURVE",
"98 36 OFFCURVE",
"150 17 CURVE SMOOTH",
"157 15 OFFCURVE",
"164 9 OFFCURVE",
"172 7 CURVE SMOOTH",
"196 1 OFFCURVE",
"226 0 OFFCURVE",
"266 0 CURVE SMOOTH",
"316 0 LINE SMOOTH",
"428 0 OFFCURVE",
"454 -34 OFFCURVE",
"454 -94 CURVE SMOOTH",
"454 -150 OFFCURVE",
"376 -179 OFFCURVE",
"290 -179 CURVE SMOOTH",
"195 -179 OFFCURVE",
"158 -144 OFFCURVE",
"158 -76 CURVE SMOOTH",
"158 -17 OFFCURVE",
"194 2 OFFCURVE",
"216 22 CURVE",
"145 32 LINE",
"107 16 OFFCURVE",
"54 -25 OFFCURVE",
"54 -88 CURVE SMOOTH",
"54 -200 OFFCURVE",
"144 -252 OFFCURVE",
"286 -252 CURVE SMOOTH"
);
},
{
closed = 1;
nodes = (
"405 188 OFFCURVE",
"502 255 OFFCURVE",
"502 378 CURVE SMOOTH",
"502 508 OFFCURVE",
"399 567 OFFCURVE",
"280 564 CURVE SMOOTH",
"156 562 OFFCURVE",
"61 502 OFFCURVE",
"61 372 CURVE SMOOTH",
"61 262 OFFCURVE",
"155 188 OFFCURVE",
"278 188 CURVE SMOOTH"
);
},
{
closed = 1;
nodes = (
"200 259 OFFCURVE",
"167 314 OFFCURVE",
"167 377 CURVE SMOOTH",
"167 470 OFFCURVE",
"223 492 OFFCURVE",
"286 492 CURVE SMOOTH",
"360 492 OFFCURVE",
"396 451 OFFCURVE",
"396 375 CURVE SMOOTH",
"396 286 OFFCURVE",
"352 259 OFFCURVE",
"281 259 CURVE SMOOTH"
);
},
{
closed = 1;
nodes = (
"580 475 LINE",
"580 561 LINE",
"525 561 LINE SMOOTH",
"474 561 OFFCURVE",
"422 537 OFFCURVE",
"407 518 CURVE",
"442 475 LINE"
);
}
);
width = 594;
},
{
anchors = (
{
name = bottom;
position = "{319, -273}";
},
{
name = top;
position = "{307, 831}";
}
);
layerId = "ADDB461F-7E69-4B45-B56F-E3E322F9570B";
paths = (
{
closed = 1;
nodes = (
"460 -254 OFFCURVE",
"603 -182 OFFCURVE",
"603 -50 CURVE SMOOTH",
"603 30 OFFCURVE",
"570 119 OFFCURVE",
"388 119 CURVE SMOOTH",
"295 119 LINE SMOOTH",
"249 119 OFFCURVE",
"229 125 OFFCURVE",
"229 158 CURVE SMOOTH",
"229 180 OFFCURVE",
"242 204 OFFCURVE",
"267 212 CURVE",
"180 226 LINE",
"106 198 OFFCURVE",
"85 150 OFFCURVE",
"85 111 CURVE SMOOTH",
"84 74 OFFCURVE",
"101 32 OFFCURVE",
"149 20 CURVE SMOOTH",
"161 17 OFFCURVE",
"167 9 OFFCURVE",
"179 6 CURVE SMOOTH",
"197 2 OFFCURVE",
"221 0 OFFCURVE",
"247 0 CURVE SMOOTH",
"326 0 LINE SMOOTH",
"438 0 OFFCURVE",
"452 -28 OFFCURVE",
"452 -80 CURVE SMOOTH",
"452 -139 OFFCURVE",
"397 -162 OFFCURVE",
"315 -162 CURVE SMOOTH",
"226 -162 OFFCURVE",
"196 -110 OFFCURVE",
"196 -56 CURVE SMOOTH",
"196 -2 OFFCURVE",
"225 6 OFFCURVE",
"242 21 CURVE",
"154 35 LINE",
"93 17 OFFCURVE",
"44 -28 OFFCURVE",
"44 -89 CURVE SMOOTH",
"44 -194 OFFCURVE",
"141 -250 OFFCURVE",
"309 -252 CURVE SMOOTH"
);
},
{
closed = 1;
nodes = (
"455 200 OFFCURVE",
"546 263 OFFCURVE",
"546 383 CURVE SMOOTH",
"546 512 OFFCURVE",
"448 566 OFFCURVE",
"301 564 CURVE SMOOTH",
"155 563 OFFCURVE",
"60 508 OFFCURVE",
"60 378 CURVE SMOOTH",
"60 276 OFFCURVE",
"160 200 OFFCURVE",
"299 200 CURVE SMOOTH"
);
},
{
closed = 1;
nodes = (
"239 293 OFFCURVE",
"207 327 OFFCURVE",
"207 380 CURVE SMOOTH",
"207 451 OFFCURVE",
"251 470 OFFCURVE",
"308 470 CURVE SMOOTH",
"371 470 OFFCURVE",
"402 438 OFFCURVE",
"402 378 CURVE SMOOTH",
"402 309 OFFCURVE",
"357 293 OFFCURVE",
"301 293 CURVE SMOOTH"
);
},
{
closed = 1;
nodes = (
"629 446 LINE",
"629 557 LINE",
"567 557 LINE SMOOTH",
"510 557 OFFCURVE",
"475 525 OFFCURVE",
"463 509 CURVE",
"478 446 LINE"
);
}
);
width = 637;
},
{
anchors = (
{
name = bottom;
position = "{333, -273}";
},
{
name = top;
position = "{308, 830}";
}
);
layerId = "23A20576-2241-481A-AD5B-28E85381F753";
paths = (
{
closed = 1;
nodes = (
"478 -253 OFFCURVE",
"636 -183 OFFCURVE",
"636 -35 CURVE SMOOTH",
"636 54 OFFCURVE",
"589 134 OFFCURVE",
"416 134 CURVE SMOOTH",
"305 134 LINE SMOOTH",
"252 134 OFFCURVE",
"234 143 OFFCURVE",
"234 170 CURVE SMOOTH",
"234 188 OFFCURVE",
"244 211 OFFCURVE",
"273 222 CURVE",
"176 236 LINE",
"96 208 OFFCURVE",
"72 157 OFFCURVE",
"71 118 CURVE SMOOTH",
"71 73 OFFCURVE",
"95 34 OFFCURVE",
"145 24 CURVE SMOOTH",
"163 21 OFFCURVE",
"159 19 OFFCURVE",
"176 15 CURVE SMOOTH",
"191 12 OFFCURVE",
"212 5 OFFCURVE",
"229 5 CURVE SMOOTH",
"350 5 LINE SMOOTH",
"441 5 OFFCURVE",
"456 -29 OFFCURVE",
"456 -72 CURVE SMOOTH",
"456 -131 OFFCURVE",
"402 -154 OFFCURVE",
"329 -154 CURVE SMOOTH",
"235 -154 OFFCURVE",
"214 -101 OFFCURVE",
"214 -51 CURVE SMOOTH",
"214 -5 OFFCURVE",
"242 19 OFFCURVE",
"256 30 CURVE",
"150 46 LINE",
"73 26 OFFCURVE",
"33 -26 OFFCURVE",
"33 -83 CURVE SMOOTH",
"33 -186 OFFCURVE",
"122 -250 OFFCURVE",
"319 -252 CURVE SMOOTH"
);
},
{
closed = 1;
nodes = (
"489 207 OFFCURVE",
"569 275 OFFCURVE",
"569 386 CURVE SMOOTH",
"569 505 OFFCURVE",
"475 564 OFFCURVE",
"308 564 CURVE SMOOTH",
"144 563 OFFCURVE",
"51 504 OFFCURVE",
"51 383 CURVE SMOOTH",
"51 272 OFFCURVE",
"149 207 OFFCURVE",
"308 207 CURVE SMOOTH"
);
},
{
closed = 1;
nodes = (
"252 301 OFFCURVE",
"224 333 OFFCURVE",
"224 385 CURVE SMOOTH",
"224 451 OFFCURVE",
"259 471 OFFCURVE",
"311 471 CURVE SMOOTH",
"367 471 OFFCURVE",
"395 442 OFFCURVE",
"395 384 CURVE SMOOTH",
"395 318 OFFCURVE",
"360 301 OFFCURVE",
"309 301 CURVE SMOOTH"
);
},
{
closed = 1;
nodes = (
"653 432 LINE",
"653 557 LINE",
"591 557 LINE SMOOTH",
"534 557 OFFCURVE",
"494 525 OFFCURVE",
"482 508 CURVE",
"500 432 LINE"
);
}
);
width = 665;
}
);
leftKerningGroup = g;
rightKerningGroup = g;
unicode = 0067;
},
{
glyphname = h;
lastChange = "2019-02-16 05:39:16 +0000";
layers = (
{
anchors = (
{
name = bottom;
position = "{320, 0}";
},
{
name = btm;
position = "{328, -83}";
},
{
name = center;
position = "{320, 492}";
},
{
name = top;
position = "{135, 869}";
}
);
layerId = "8BC678DE-46B6-4C98-A96E-C0ED61786D32";
paths = (
{
closed = 1;
nodes = (
"176 0 LINE",
"176 429 LINE",
"220 463 OFFCURVE",
"288 495 OFFCURVE",
"343 497 CURVE SMOOTH",
"438 500 OFFCURVE",
"467 457 OFFCURVE",
"467 336 CURVE SMOOTH",
"467 0 LINE",
"548 0 LINE",
"548 331 LINE SMOOTH",
"549 504 OFFCURVE",
"499 567 OFFCURVE",
"376 565 CURVE SMOOTH",
"293 563 OFFCURVE",
"207 518 OFFCURVE",
"167 485 CURVE",
"171 479 LINE",
"176 565 LINE",
"176 813 LINE",
"94 813 LINE",
"94 0 LINE"
);
}
);
width = 639;
},
{
anchors = (
{
name = bottom;
position = "{315, 0}";
},
{
name = btm;
position = "{328, -83}";
},
{
name = center;
position = "{315, 492}";
},
{
name = top;
position = "{140, 869}";
}
);
layerId = "DB9867C4-88B4-4207-8D32-C8AFE6754240";
paths = (
{
closed = 1;
nodes = (
"193 0 LINE",
"193 424 LINE",
"238 457 OFFCURVE",
"294 474 OFFCURVE",
"331 475 CURVE SMOOTH",
"416 479 OFFCURVE",
"439 438 OFFCURVE",
"439 347 CURVE SMOOTH",
"439 0 LINE",
"546 0 LINE",
"546 339 LINE SMOOTH",
"546 502 OFFCURVE",
"496 568 OFFCURVE",
"375 565 CURVE SMOOTH",
"302 563 OFFCURVE",
"223 529 OFFCURVE",
"182 497 CURVE",
"188 484 LINE",
"193 581 LINE",
"193 813 LINE",
"86 813 LINE",
"86 0 LINE"
);
}
);
width = 629;
},
{
anchors = (
{
name = bottom;
position = "{330, 0}";
},
{
name = btm;
position = "{330, -83}";
},
{
name = center;
position = "{330, 492}";
},
{
name = top;
position = "{159, 869}";
}
);
layerId = "ADDB461F-7E69-4B45-B56F-E3E322F9570B";
paths = (
{
closed = 1;
nodes = (
"234 0 LINE",
"234 395 LINE",
"268 425 OFFCURVE",
"316 437 OFFCURVE",
"344 437 CURVE SMOOTH",
"407 439 OFFCURVE",
"428 407 OFFCURVE",
"428 316 CURVE SMOOTH",
"428 0 LINE",
"581 0 LINE",
"581 347 LINE SMOOTH",
"581 509 OFFCURVE",
"519 570 OFFCURVE",
"396 566 CURVE SMOOTH",
"332 564 OFFCURVE",
"258 527 OFFCURVE",
"221 494 CURVE",
"225 480 LINE",
"234 598 LINE",
"234 812 LINE",
"82 812 LINE",
"82 0 LINE"
);
}
);
width = 660;
},
{
anchors = (
{
name = bottom;
position = "{337, 0}";
},
{
name = btm;
position = "{338, -83}";
},
{
name = center;
position = "{337, 492}";
},
{
name = top;
position = "{167, 869}";
}
);
layerId = "23A20576-2241-481A-AD5B-28E85381F753";
paths = (
{
closed = 1;
nodes = (
"259 0 LINE",
"259 387 LINE",
"286 414 OFFCURVE",
"325 423 OFFCURVE",
"348 423 CURVE SMOOTH",
"396 424 OFFCURVE",
"419 403 OFFCURVE",
"419 318 CURVE SMOOTH",
"419 0 LINE",
"601 0 LINE",
"601 349 LINE SMOOTH",
"601 498 OFFCURVE",
"545 568 OFFCURVE",
"424 565 CURVE SMOOTH",
"349 564 OFFCURVE",
"279 525 OFFCURVE",
"244 493 CURVE",
"249 478 LINE",
"259 603 LINE",
"259 812 LINE",
"78 812 LINE",
"78 0 LINE"
);
}
);
width = 674;
}
);
leftKerningGroup = h;
rightKerningGroup = n;
unicode = 0068;
},
{
glyphname = hbar;
lastChange = "2019-01-21 06:08:13 +0000";
layers = (
{
components = (
{
name = h;
}
);
layerId = "8BC678DE-46B6-4C98-A96E-C0ED61786D32";
paths = (
{
closed = 1;
nodes = (
"308 639 LINE",
"308 688 LINE",
"21 688 LINE",
"21 639 LINE"
);
}
);
width = 639;
},
{
components = (
{
name = h;
}
);
layerId = "DB9867C4-88B4-4207-8D32-C8AFE6754240";
paths = (
{
closed = 1;
nodes = (
"307 627 LINE",
"307 691 LINE",
"18 691 LINE",
"18 627 LINE"
);
}
);
width = 629;
},
{
components = (
{
name = h;
}
);
layerId = "ADDB461F-7E69-4B45-B56F-E3E322F9570B";
paths = (
{
closed = 1;
nodes = (
"343 631 LINE",
"343 719 LINE",
"18 719 LINE",
"18 631 LINE"
);
}
);
width = 660;
},
{
components = (
{
name = h;
}
);
layerId = "23A20576-2241-481A-AD5B-28E85381F753";
paths = (
{
closed = 1;
nodes = (
"363 633 LINE",
"363 732 LINE",
"15 732 LINE",
"15 633 LINE"
);
}
);
width = 674;
}
);
leftKerningGroup = h;
rightKerningGroup = n;
unicode = 0127;
},
{
glyphname = idotless;
lastChange = "2019-02-16 05:39:16 +0000";
layers = (
{
anchors = (
{
name = bottom;
position = "{144, 0}";
},
{
name = btm;
position = "{143, -83}";
},
{
name = ogonek;
position = "{220, 25}";
},
{
name = top;
position = "{143, 830}";
}
);
layerId = "8BC678DE-46B6-4C98-A96E-C0ED61786D32";
paths = (
{
closed = 1;
nodes = (
"184 0 LINE",
"184 556 LINE",
"103 556 LINE",
"103 0 LINE"
);
}
);
width = 287;
},
{
anchors = (
{
name = bottom;
position = "{148, 0}";
},
{
name = btm;
position = "{148, -83}";
},
{
name = ogonek;
position = "{220, 25}";
},
{
name = top;
position = "{148, 830}";
}
);
layerId = "DB9867C4-88B4-4207-8D32-C8AFE6754240";
paths = (
{
closed = 1;
nodes = (
"202 0 LINE",
"202 556 LINE",
"94 556 LINE",
"94 0 LINE"
);
}
);
width = 296;
},
{
anchors = (
{
name = bottom;
position = "{156, 0}";
},
{
name = btm;
position = "{157, -83}";
},
{
name = ogonek;
position = "{235, 25}";
},
{
name = top;
position = "{156, 830}";
}
);
layerId = "ADDB461F-7E69-4B45-B56F-E3E322F9570B";
paths = (
{
closed = 1;
nodes = (
"232 0 LINE",
"232 557 LINE",
"80 557 LINE",
"80 0 LINE"
);
}
);
width = 312;
},
{
anchors = (
{
name = bottom;
position = "{169, 0}";
},
{
name = btm;
position = "{168, -83}";
},
{
name = ogonek;
position = "{240, 25}";
},
{
name = top;
position = "{168, 830}";
}
);
layerId = "23A20576-2241-481A-AD5B-28E85381F753";
paths = (
{
closed = 1;
nodes = (
"259 0 LINE",
"259 557 LINE",
"78 557 LINE",
"78 0 LINE"
);
}
);
width = 337;
}
);
leftKerningGroup = i;
rightKerningGroup = i;
unicode = 0131;
},
{
glyphname = jdotless;
lastChange = "2019-02-16 05:39:16 +0000";
layers = (
{
anchors = (
{
name = bottom;
position = "{137, -273}";
},
{
name = top;
position = "{150, 830}";
}
);
layerId = "8BC678DE-46B6-4C98-A96E-C0ED61786D32";
paths = (
{
closed = 1;
nodes = (
"-39 -245 OFFCURVE",
"1 -248 OFFCURVE",
"19 -248 CURVE SMOOTH",
"129 -248 OFFCURVE",
"184 -170 OFFCURVE",
"184 11 CURVE SMOOTH",
"184 556 LINE",
"103 556 LINE",
"103 -20 LINE SMOOTH",
"103 -139 OFFCURVE",
"76 -190 OFFCURVE",
"10 -190 CURVE SMOOTH",
"-9 -190 OFFCURVE",
"-36 -185 OFFCURVE",
"-46 -181 CURVE",
"-46 -241 LINE"
);
}
);
width = 274;
},
{
anchors = (
{
name = bottom;
position = "{140, -273}";
},
{
name = top;
position = "{150, 830}";
}
);
layerId = "DB9867C4-88B4-4207-8D32-C8AFE6754240";
paths = (
{
closed = 1;
nodes = (
"-31 -246 OFFCURVE",
"14 -248 OFFCURVE",
"29 -248 CURVE SMOOTH",
"140 -248 OFFCURVE",
"202 -174 OFFCURVE",
"202 18 CURVE SMOOTH",
"202 556 LINE",
"94 556 LINE",
"94 -23 LINE SMOOTH",
"94 -121 OFFCURVE",
"77 -172 OFFCURVE",
"19 -172 CURVE SMOOTH",
"2 -172 OFFCURVE",
"-28 -167 OFFCURVE",
"-39 -162 CURVE",
"-39 -241 LINE"
);
}
);
width = 280;
},
{
anchors = (
{
name = bottom;
position = "{157, -273}";
},
{
name = top;
position = "{161, 831}";
}
);
layerId = "ADDB461F-7E69-4B45-B56F-E3E322F9570B";
paths = (
{
closed = 1;
nodes = (
"-39 -241 OFFCURVE",
"16 -248 OFFCURVE",
"35 -248 CURVE SMOOTH",
"161 -248 OFFCURVE",
"237 -167 OFFCURVE",
"237 40 CURVE SMOOTH",
"237 557 LINE",
"85 557 LINE",
"85 0 LINE SMOOTH",
"85 -111 OFFCURVE",
"65 -148 OFFCURVE",
"6 -148 CURVE SMOOTH",
"-10 -148 OFFCURVE",
"-42 -142 OFFCURVE",
"-51 -138 CURVE",
"-51 -236 LINE"
);
}
);
width = 314;
},
{
anchors = (
{
name = bottom;
position = "{166, -273}";
},
{
name = top;
position = "{167, 831}";
}
);
layerId = "23A20576-2241-481A-AD5B-28E85381F753";
paths = (
{
closed = 1;
nodes = (
"-36 -240 OFFCURVE",
"12 -248 OFFCURVE",
"45 -248 CURVE SMOOTH",
"177 -248 OFFCURVE",
"259 -178 OFFCURVE",
"259 40 CURVE SMOOTH",
"259 557 LINE",
"78 557 LINE",
"78 1 LINE SMOOTH",
"78 -101 OFFCURVE",
"59 -131 OFFCURVE",
"6 -131 CURVE SMOOTH",
"-10 -131 OFFCURVE",
"-43 -125 OFFCURVE",
"-51 -121 CURVE",
"-51 -235 LINE"
);
}
);
width = 331;
}
);
leftKerningGroup = j;
rightKerningGroup = i;
unicode = 0237;
},
{
glyphname = k;
lastChange = "2019-02-16 05:39:16 +0000";
layers = (
{
anchors = (
{
name = bottom;
position = "{285, 0}";
},
{
name = btm;
position = "{297, -83}";
},
{
name = top;
position = "{328, 830}";
}
);
layerId = "8BC678DE-46B6-4C98-A96E-C0ED61786D32";
paths = (
{
closed = 1;
nodes = (
"433 556 LINE",
"148 262 LINE",
"170 248 LINE",
"173 346 LINE",
"173 811 LINE",
"92 811 LINE",
"92 273 LINE",
"92 0 LINE",
"173 0 LINE",
"173 109 LINE",
"171 208 LINE",
"162 187 LINE",
"530 556 LINE"
);
},
{
closed = 1;
nodes = (
"460 0 LINE",
"554 0 LINE",
"307 346 LINE",
"251 294 LINE"
);
}
);
width = 569;
},
{
anchors = (
{
name = bottom;
position = "{284, 0}";
},
{
name = btm;
position = "{297, -83}";
},
{
name = top;
position = "{324, 830}";
}
);
layerId = "DB9867C4-88B4-4207-8D32-C8AFE6754240";
paths = (
{
closed = 1;
nodes = (
"410 557 LINE",
"157 279 LINE",
"186 260 LINE",
"189 367 LINE",
"189 811 LINE",
"82 811 LINE",
"82 331 LINE",
"82 0 LINE",
"189 0 LINE",
"189 109 LINE",
"187 207 LINE",
"176 181 LINE",
"536 557 LINE"
);
},
{
closed = 1;
nodes = (
"440 0 LINE",
"562 0 LINE",
"319 347 LINE",
"246 279 LINE"
);
}
);
width = 568;
},
{
anchors = (
{
name = bottom;
position = "{302, 0}";
},
{
name = btm;
position = "{318, -83}";
},
{
name = top;
position = "{383, 830}";
}
);
layerId = "ADDB461F-7E69-4B45-B56F-E3E322F9570B";
paths = (
{
closed = 1;
nodes = (
"417 557 LINE",
"205 309 LINE",
"228 290 LINE",
"234 477 LINE",
"234 811 LINE",
"82 811 LINE",
"82 331 LINE",
"82 0 LINE",
"234 0 LINE",
"234 104 LINE",
"231 192 LINE",
"226 160 LINE",
"590 557 LINE"
);
},
{
closed = 1;
nodes = (
"436 0 LINE",
"609 0 LINE",
"380 357 LINE",
"279 252 LINE"
);
}
);
width = 604;
},
{
anchors = (
{
name = bottom;
position = "{314, 0}";
},
{
name = btm;
position = "{328, -83}";
},
{
name = top;
position = "{416, 830}";
}
);
layerId = "23A20576-2241-481A-AD5B-28E85381F753";
paths = (
{
closed = 1;
nodes = (
"419 557 LINE",
"230 324 LINE",
"251 299 LINE",
"259 504 LINE",
"259 811 LINE",
"78 811 LINE",
"78 331 LINE",
"78 0 LINE",
"259 0 LINE",
"259 92 LINE",
"257 189 LINE",
"252 152 LINE",
"625 557 LINE"
);
},
{
closed = 1;
nodes = (
"437 0 LINE",
"638 0 LINE",
"417 358 LINE",
"299 233 LINE"
);
}
);
width = 628;
}
);
leftKerningGroup = h;
rightKerningGroup = k;
unicode = 006B;
},
{
glyphname = kgreenlandic;
lastChange = "2019-02-16 05:39:16 +0000";
layers = (
{
anchors = (
{
name = bottom;
position = "{286, 0}";
},
{
name = top;
position = "{286, 557}";
}
);
layerId = "8BC678DE-46B6-4C98-A96E-C0ED61786D32";
paths = (
{
closed = 1;
nodes = (
"447 556 LINE",
"154 240 LINE",
"175 227 LINE",
"178 313 LINE",
"178 557 LINE",
"96 557 LINE",
"97 0 LINE",
"179 0 LINE",
"179 98 LINE",
"176 187 LINE",
"167 166 LINE",
"541 556 LINE"
);
},
{
closed = 1;
nodes = (
"466 0 LINE",
"560 0 LINE",
"316 332 LINE",
"261 281 LINE"
);
}
);
width = 572;
},
{
anchors = (
{
name = bottom;
position = "{286, 0}";
},
{
name = top;
position = "{286, 557}";
}
);
layerId = "DB9867C4-88B4-4207-8D32-C8AFE6754240";
paths = (
{
closed = 1;
nodes = (
"429 557 LINE",
"166 249 LINE",
"192 231 LINE",
"196 322 LINE",
"196 557 LINE",
"88 557 LINE",
"90 0 LINE",
"197 0 LINE",
"197 93 LINE",
"194 178 LINE",
"184 152 LINE",
"551 557 LINE"
);
},
{
closed = 1;
nodes = (
"448 0 LINE",
"570 0 LINE",
"332 329 LINE",
"258 261 LINE"
);
}
);
width = 571;
},
{
anchors = (
{
name = bottom;
position = "{303, 0}";
},
{
name = top;
position = "{303, 557}";
}
);
layerId = "ADDB461F-7E69-4B45-B56F-E3E322F9570B";
paths = (
{
closed = 1;
nodes = (
"427 557 LINE",
"209 273 LINE",
"232 259 LINE",
"237 380 LINE",
"237 557 LINE",
"85 557 LINE",
"85 0 LINE",
"237 0 LINE",
"237 78 LINE",
"236 162 LINE",
"228 129 LINE",
"598 557 LINE"
);
},
{
closed = 1;
nodes = (
"440 0 LINE",
"614 0 LINE",
"387 341 LINE",
"286 236 LINE"
);
}
);
width = 606;
},
{
anchors = (
{
name = bottom;
position = "{313, 0}";
},
{
name = top;
position = "{313, 557}";
}
);
layerId = "23A20576-2241-481A-AD5B-28E85381F753";
paths = (
{
closed = 1;
nodes = (
"422 557 LINE",
"234 301 LINE",
"255 290 LINE",
"261 405 LINE",
"261 557 LINE",
"80 557 LINE",
"80 0 LINE",
"261 0 LINE",
"261 79 LINE",
"261 161 LINE",
"253 124 LINE",
"623 557 LINE"
);
},
{
closed = 1;
nodes = (
"432 0 LINE",
"637 0 LINE",
"418 350 LINE",
"299 218 LINE"
);
}
);
width = 626;
}
);
leftKerningGroup = h;
rightKerningGroup = k;
unicode = 0138;
},
{
glyphname = l;
lastChange = "2019-02-16 05:39:16 +0000";
layers = (
{
anchors = (
{
name = bottom;
position = "{145, 0}";
},
{
name = btm;
position = "{138, -83}";
},
{
name = center;
position = "{145, 492}";
},
{
name = top;
position = "{146, 871}";
},
{
name = topright;
position = "{270, 983}";
}
);
layerId = "8BC678DE-46B6-4C98-A96E-C0ED61786D32";
paths = (
{
closed = 1;
nodes = (
"186 0 LINE",
"186 813 LINE",
"104 813 LINE",
"104 0 LINE"
);
}
);
width = 290;
},
{
anchors = (
{
name = bottom;
position = "{150, 0}";
},
{
name = btm;
position = "{141, -83}";
},
{
name = center;
position = "{150, 492}";
},
{
name = top;
position = "{151, 878}";
},
{
name = topright;
position = "{279, 983}";
}
);
layerId = "DB9867C4-88B4-4207-8D32-C8AFE6754240";
paths = (
{
closed = 1;
nodes = (
"204 0 LINE",
"204 813 LINE",
"96 813 LINE",
"96 0 LINE"
);
}
);
width = 299;
},
{
anchors = (
{
name = bottom;
position = "{156, 0}";
},
{
name = btm;
position = "{155, -83}";
},
{
name = center;
position = "{156, 492}";
},
{
name = top;
position = "{156, 891}";
},
{
name = topright;
position = "{292, 983}";
}
);
layerId = "ADDB461F-7E69-4B45-B56F-E3E322F9570B";
paths = (
{
closed = 1;
nodes = (
"232 0 LINE",
"232 812 LINE",
"80 812 LINE",
"80 0 LINE"
);
}
);
width = 312;
},
{
anchors = (
{
name = bottom;
position = "{169, 0}";
},
{
name = btm;
position = "{165, -83}";
},
{
name = center;
position = "{169, 492}";
},
{
name = top;
position = "{168, 904}";
},
{
name = topright;
position = "{317, 983}";
}
);
layerId = "23A20576-2241-481A-AD5B-28E85381F753";
paths = (
{
closed = 1;
nodes = (
"259 0 LINE",
"259 812 LINE",
"78 812 LINE",
"78 0 LINE"
);
}
);
width = 337;
}
);
leftKerningGroup = l;
rightKerningGroup = l;
unicode = 006C;
},
{
glyphname = lslash;
lastChange = "2019-01-21 06:08:13 +0000";
layers = (
{
components = (
{
name = l;
}
);
layerId = "8BC678DE-46B6-4C98-A96E-C0ED61786D32";
paths = (
{
closed = 1;
nodes = (
"280 500 LINE",
"280 561 LINE",
"7 452 LINE",
"7 396 LINE"
);
}
);
width = 290;
},
{
components = (
{
name = l;
}
);
layerId = "DB9867C4-88B4-4207-8D32-C8AFE6754240";
paths = (
{
closed = 1;
nodes = (
"291 483 LINE",
"291 562 LINE",
"15 451 LINE",
"15 377 LINE"
);
}
);
width = 299;
},
{
components = (
{
name = l;
}
);
layerId = "ADDB461F-7E69-4B45-B56F-E3E322F9570B";
paths = (
{
closed = 1;
nodes = (
"328 464 LINE",
"328 565 LINE",
"9 442 LINE",
"9 347 LINE"
);
}
);
width = 328;
},
{
components = (
{
name = l;
}
);
layerId = "23A20576-2241-481A-AD5B-28E85381F753";
paths = (
{
closed = 1;
nodes = (
"346 449 LINE",
"346 564 LINE",
"11 437 LINE",
"11 327 LINE"
);
}
);
width = 340;
}
);
leftKerningGroup = lslash;
rightKerningGroup = lslash;
unicode = 0142;
},
{
glyphname = m;
lastChange = "2019-02-16 05:39:16 +0000";
layers = (
{
anchors = (
{
name = bottom;
position = "{483, 0}";
},
{
name = btm;
position = "{488, -83}";
},
{
name = top;
position = "{490, 830}";
}
);
layerId = "8BC678DE-46B6-4C98-A96E-C0ED61786D32";
paths = (
{
closed = 1;
nodes = (
"176 0 LINE",
"176 429 LINE",
"220 465 OFFCURVE",
"290 494 OFFCURVE",
"339 496 CURVE SMOOTH",
"431 500 OFFCURVE",
"449 451 OFFCURVE",
"449 340 CURVE SMOOTH",
"449 0 LINE",
"530 0 LINE",
"530 346 LINE SMOOTH",
"530 517 OFFCURVE",
"484 567 OFFCURVE",
"372 565 CURVE SMOOTH",
"295 563 OFFCURVE",
"208 518 OFFCURVE",
"167 485 CURVE",
"167 556 LINE",
"94 556 LINE",
"94 0 LINE"
);
},
{
closed = 1;
nodes = (
"564 465 OFFCURVE",
"628 496 OFFCURVE",
"681 497 CURVE SMOOTH",
"779 500 OFFCURVE",
"794 443 OFFCURVE",
"794 339 CURVE SMOOTH",
"794 0 LINE",
"875 0 LINE",
"875 343 LINE SMOOTH",
"875 509 OFFCURVE",
"830 566 OFFCURVE",
"712 565 CURVE SMOOTH",
"629 564 OFFCURVE",
"545 519 OFFCURVE",
"504 486 CURVE",
"522 436 LINE"
);
}
);
width = 965;
},
{
anchors = (
{
name = bottom;
position = "{482, 0}";
},
{
name = btm;
position = "{489, -83}";
},
{
name = top;
position = "{486, 830}";
}
);
layerId = "DB9867C4-88B4-4207-8D32-C8AFE6754240";
paths = (
{
closed = 1;
nodes = (
"193 0 LINE",
"193 424 LINE",
"238 457 OFFCURVE",
"294 474 OFFCURVE",
"330 475 CURVE SMOOTH",
"415 479 OFFCURVE",
"432 438 OFFCURVE",
"432 347 CURVE SMOOTH",
"432 0 LINE",
"539 0 LINE",
"539 349 LINE SMOOTH",
"539 512 OFFCURVE",
"494 568 OFFCURVE",
"374 565 CURVE SMOOTH",
"301 563 OFFCURVE",
"224 525 OFFCURVE",
"182 497 CURVE",
"182 556 LINE",
"86 556 LINE",
"86 0 LINE"
);
},
{
closed = 1;
nodes = (
"576 455 OFFCURVE",
"632 474 OFFCURVE",
"671 475 CURVE SMOOTH",
"757 479 OFFCURVE",
"772 438 OFFCURVE",
"772 347 CURVE SMOOTH",
"772 0 LINE",
"880 0 LINE",
"880 349 LINE SMOOTH",
"880 512 OFFCURVE",
"832 567 OFFCURVE",
"712 565 CURVE SMOOTH",
"635 563 OFFCURVE",
"551 525 OFFCURVE",
"510 491 CURVE",
"533 424 LINE"
);
}
);
width = 963;
},
{
anchors = (
{
name = bottom;
position = "{500, 0}";
},
{
name = btm;
position = "{501, -83}";
},
{
name = top;
position = "{500, 830}";
}
);
layerId = "ADDB461F-7E69-4B45-B56F-E3E322F9570B";
paths = (
{
closed = 1;
nodes = (
"237 0 LINE",
"237 395 LINE",
"271 425 OFFCURVE",
"320 437 OFFCURVE",
"348 438 CURVE SMOOTH",
"411 439 OFFCURVE",
"428 407 OFFCURVE",
"428 316 CURVE SMOOTH",
"428 0 LINE",
"580 0 LINE",
"580 345 LINE SMOOTH",
"580 508 OFFCURVE",
"525 570 OFFCURVE",
"407 566 CURVE SMOOTH",
"339 564 OFFCURVE",
"264 525 OFFCURVE",
"226 497 CURVE",
"223 557 LINE",
"85 557 LINE",
"85 0 LINE"
);
},
{
closed = 1;
nodes = (
"603 417 OFFCURVE",
"648 437 OFFCURVE",
"687 438 CURVE SMOOTH",
"753 439 OFFCURVE",
"768 408 OFFCURVE",
"768 317 CURVE SMOOTH",
"768 0 LINE",
"920 0 LINE",
"920 350 LINE SMOOTH",
"920 513 OFFCURVE",
"854 567 OFFCURVE",
"739 566 CURVE SMOOTH",
"653 566 OFFCURVE",
"573 519 OFFCURVE",
"543 493 CURVE",
"575 394 LINE"
);
}
);
width = 999;
},
{
anchors = (
{
name = bottom;
position = "{501, 0}";
},
{
name = btm;
position = "{501, -83}";
},
{
name = top;
position = "{501, 830}";
}
);
layerId = "23A20576-2241-481A-AD5B-28E85381F753";
paths = (
{
closed = 1;
nodes = (
"256 0 LINE",
"256 387 LINE",
"281 411 OFFCURVE",
"320 423 OFFCURVE",
"346 423 CURVE SMOOTH",
"398 424 OFFCURVE",
"415 399 OFFCURVE",
"415 318 CURVE SMOOTH",
"415 0 LINE",
"595 0 LINE",
"595 352 LINE SMOOTH",
"595 512 OFFCURVE",
"538 568 OFFCURVE",
"427 565 CURVE SMOOTH",
"354 564 OFFCURVE",
"283 528 OFFCURVE",
"245 497 CURVE",
"241 557 LINE",
"76 557 LINE",
"76 0 LINE"
);
},
{
closed = 1;
nodes = (
"606 400 OFFCURVE",
"642 423 OFFCURVE",
"680 423 CURVE SMOOTH",
"733 424 OFFCURVE",
"750 400 OFFCURVE",
"750 319 CURVE SMOOTH",
"750 0 LINE",
"931 0 LINE",
"931 351 LINE SMOOTH",
"931 514 OFFCURVE",
"864 566 OFFCURVE",
"752 565 CURVE SMOOTH",
"659 566 OFFCURVE",
"584 518 OFFCURVE",
"558 494 CURVE",
"588 383 LINE"
);
}
);
width = 1001;
}
);
leftKerningGroup = n;
leftMetricsKey = n;
rightKerningGroup = n;
rightMetricsKey = n;
unicode = 006D;
},
{
glyphname = n;
lastChange = "2019-02-16 05:39:16 +0000";
layers = (
{
anchors = (
{
name = bottom;
position = "{315, 0}";
},
{
name = btm;
position = "{317, -83}";
},
{
name = top;
position = "{321, 830}";
}
);
layerId = "8BC678DE-46B6-4C98-A96E-C0ED61786D32";
paths = (
{
closed = 1;
nodes = (
"176 0 LINE",
"176 429 LINE",
"218 462 OFFCURVE",
"286 496 OFFCURVE",
"338 497 CURVE SMOOTH",
"434 501 OFFCURVE",
"457 455 OFFCURVE",
"457 345 CURVE SMOOTH",
"457 0 LINE",
"539 0 LINE",
"539 344 LINE SMOOTH",
"539 508 OFFCURVE",
"493 567 OFFCURVE",
"372 565 CURVE SMOOTH",
"291 563 OFFCURVE",
"207 515 OFFCURVE",
"167 485 CURVE",
"167 556 LINE",
"94 556 LINE",
"94 0 LINE"
);
}
);
width = 629;
},
{
anchors = (
{
name = bottom;
position = "{313, 0}";
},
{
name = btm;
position = "{319, -83}";
},
{
name = top;
position = "{317, 830}";
}
);
layerId = "DB9867C4-88B4-4207-8D32-C8AFE6754240";
paths = (
{
closed = 1;
nodes = (
"193 0 LINE",
"193 424 LINE",
"238 457 OFFCURVE",
"293 475 OFFCURVE",
"330 476 CURVE SMOOTH",
"417 481 OFFCURVE",
"434 440 OFFCURVE",
"434 347 CURVE SMOOTH",
"434 0 LINE",
"542 0 LINE",
"542 347 LINE SMOOTH",
"542 510 OFFCURVE",
"496 568 OFFCURVE",
"376 565 CURVE SMOOTH",
"303 563 OFFCURVE",
"224 525 OFFCURVE",
"182 497 CURVE",
"182 556 LINE",
"86 556 LINE",
"86 0 LINE"
);
}
);
width = 625;
},
{
anchors = (
{
name = bottom;
position = "{330, 0}";
},
{
name = btm;
position = "{331, -83}";
},
{
name = top;
position = "{338, 830}";
}
);
layerId = "ADDB461F-7E69-4B45-B56F-E3E322F9570B";
paths = (
{
closed = 1;
nodes = (
"237 0 LINE",
"237 395 LINE",
"271 425 OFFCURVE",
"318 437 OFFCURVE",
"347 438 CURVE SMOOTH",
"411 439 OFFCURVE",
"429 408 OFFCURVE",
"429 316 CURVE SMOOTH",
"429 0 LINE",
"581 0 LINE",
"581 349 LINE SMOOTH",
"581 512 OFFCURVE",
"525 570 OFFCURVE",
"407 566 CURVE SMOOTH",
"339 564 OFFCURVE",
"264 525 OFFCURVE",
"226 497 CURVE",
"223 557 LINE",
"85 557 LINE",
"85 0 LINE"
);
}
);
width = 660;
},
{
anchors = (
{
name = bottom;
position = "{334, 0}";
},
{
name = btm;
position = "{326, -83}";
},
{
name = top;
position = "{341, 830}";
}
);
layerId = "23A20576-2241-481A-AD5B-28E85381F753";
paths = (
{
closed = 1;
nodes = (
"256 0 LINE",
"256 387 LINE",
"281 411 OFFCURVE",
"319 423 OFFCURVE",
"345 423 CURVE SMOOTH",
"398 425 OFFCURVE",
"416 399 OFFCURVE",
"416 318 CURVE SMOOTH",
"416 0 LINE",
"597 0 LINE",
"597 351 LINE SMOOTH",
"597 511 OFFCURVE",
"540 568 OFFCURVE",
"427 565 CURVE SMOOTH",
"359 564 OFFCURVE",
"287 532 OFFCURVE",
"245 497 CURVE",
"241 557 LINE",
"76 557 LINE",
"76 0 LINE"
);
}
);
width = 667;
}
);
leftKerningGroup = n;
rightKerningGroup = n;
unicode = 006E;
},
{
glyphname = eng;
lastChange = "2019-01-21 06:08:13 +0000";
layers = (
{
layerId = "8BC678DE-46B6-4C98-A96E-C0ED61786D32";
paths = (
{
closed = 1;
nodes = (
"176 0 LINE",
"176 429 LINE",
"219 462 OFFCURVE",
"292 495 OFFCURVE",
"345 497 CURVE SMOOTH",
"430 500 OFFCURVE",
"460 464 OFFCURVE",
"460 344 CURVE SMOOTH",
"460 -18 LINE SMOOTH",
"460 -144 OFFCURVE",
"436 -189 OFFCURVE",
"370 -190 CURVE SMOOTH",
"355 -190 OFFCURVE",
"327 -188 OFFCURVE",
"317 -184 CURVE",
"317 -241 LINE",
"325 -244 OFFCURVE",
"368 -248 OFFCURVE",
"386 -248 CURVE SMOOTH",
"491 -248 OFFCURVE",
"541 -158 OFFCURVE",
"541 -7 CURVE SMOOTH",
"541 346 LINE SMOOTH",
"541 510 OFFCURVE",
"497 567 OFFCURVE",
"377 565 CURVE",
"294 563 OFFCURVE",
"208 515 OFFCURVE",
"167 485 CURVE",
"167 556 LINE",
"94 556 LINE",
"94 0 LINE"
);
}
);
width = 632;
},
{
layerId = "DB9867C4-88B4-4207-8D32-C8AFE6754240";
paths = (
{
closed = 1;
nodes = (
"193 0 LINE",
"193 424 LINE",
"238 457 OFFCURVE",
"297 474 OFFCURVE",
"333 475 CURVE SMOOTH",
"417 479 OFFCURVE",
"434 438 OFFCURVE",
"434 347 CURVE SMOOTH",
"434 -22 LINE SMOOTH",
"434 -138 OFFCURVE",
"421 -172 OFFCURVE",
"364 -172 CURVE SMOOTH",
"353 -172 OFFCURVE",
"322 -170 OFFCURVE",
"312 -167 CURVE",
"312 -241 LINE",
"320 -245 OFFCURVE",
"368 -248 OFFCURVE",
"387 -248 CURVE SMOOTH",
"489 -248 OFFCURVE",
"542 -163 OFFCURVE",
"542 -8 CURVE SMOOTH",
"542 349 LINE SMOOTH",
"541 512 OFFCURVE",
"496 568 OFFCURVE",
"376 565 CURVE",
"303 563 OFFCURVE",
"223 525 OFFCURVE",
"182 497 CURVE",
"181 556 LINE",
"86 556 LINE",
"86 0 LINE"
);
}
);
width = 625;
},
{
layerId = "ADDB461F-7E69-4B45-B56F-E3E322F9570B";
paths = (
{
closed = 1;
nodes = (
"237 0 LINE",
"237 397 LINE",
"271 427 OFFCURVE",
"320 441 OFFCURVE",
"348 442 CURVE SMOOTH",
"411 444 OFFCURVE",
"429 412 OFFCURVE",
"429 321 CURVE SMOOTH",
"429 -22 LINE SMOOTH",
"429 -134 OFFCURVE",
"410 -150 OFFCURVE",
"366 -150 CURVE SMOOTH",
"354 -150 OFFCURVE",
"323 -148 OFFCURVE",
"313 -145 CURVE",
"313 -241 LINE",
"332 -245 OFFCURVE",
"377 -248 OFFCURVE",
"410 -248 CURVE SMOOTH",
"505 -248 OFFCURVE",
"581 -184 OFFCURVE",
"581 -15 CURVE SMOOTH",
"581 350 LINE SMOOTH",
"581 513 OFFCURVE",
"525 570 OFFCURVE",
"407 566 CURVE",
"339 564 OFFCURVE",
"264 525 OFFCURVE",
"226 497 CURVE",
"223 556 LINE",
"85 556 LINE",
"85 0 LINE"
);
}
);
width = 660;
},
{
layerId = "23A20576-2241-481A-AD5B-28E85381F753";
paths = (
{
closed = 1;
nodes = (
"263 0 LINE",
"263 384 LINE",
"290 411 OFFCURVE",
"332 422 OFFCURVE",
"354 422 CURVE SMOOTH",
"404 423 OFFCURVE",
"418 398 OFFCURVE",
"418 317 CURVE SMOOTH",
"418 -13 LINE SMOOTH",
"418 -115 OFFCURVE",
"401 -133 OFFCURVE",
"358 -133 CURVE SMOOTH",
"341 -133 OFFCURVE",
"314 -129 OFFCURVE",
"304 -125 CURVE",
"304 -238 LINE",
"328 -244 OFFCURVE",
"364 -248 OFFCURVE",
"415 -248 CURVE SMOOTH",
"529 -248 OFFCURVE",
"602 -170 OFFCURVE",
"602 -9 CURVE SMOOTH",
"602 351 LINE SMOOTH",
"601 514 OFFCURVE",
"542 568 OFFCURVE",
"426 565 CURVE",
"357 564 OFFCURVE",
"287 526 OFFCURVE",
"251 497 CURVE",
"247 556 LINE",
"80 556 LINE",
"80 0 LINE"
);
}
);
width = 675;
}
);
leftKerningGroup = n;
rightKerningGroup = n;
unicode = 014B;
},
{
glyphname = o;
lastChange = "2019-02-16 05:39:16 +0000";
layers = (
{
anchors = (
{
name = bottom;
position = "{299, 0}";
},
{
name = btm;
position = "{297, -83}";
},
{
name = center;
position = "{299, 279}";
},
{
name = ogonek;
position = "{340, 25}";
},
{
name = top;
position = "{300, 830}";
},
{
name = topright;
position = "{577, 557}";
}
);
layerId = "8BC678DE-46B6-4C98-A96E-C0ED61786D32";
paths = (
{
closed = 1;
nodes = (
"438 -8 OFFCURVE",
"543 93 OFFCURVE",
"546 271 CURVE SMOOTH",
"548 428 OFFCURVE",
"478 564 OFFCURVE",
"304 564 CURVE SMOOTH",
"163 564 OFFCURVE",
"54 466 OFFCURVE",
"51 289 CURVE SMOOTH",
"49 131 OFFCURVE",
"117 -8 OFFCURVE",
"294 -8 CURVE SMOOTH"
);
},
{
closed = 1;
nodes = (
"183 52 OFFCURVE",
"134 161 OFFCURVE",
"134 288 CURVE SMOOTH",
"135 427 OFFCURVE",
"198 507 OFFCURVE",
"303 505 CURVE SMOOTH",
"414 504 OFFCURVE",
"464 402 OFFCURVE",
"463 274 CURVE SMOOTH",
"463 135 OFFCURVE",
"402 49 OFFCURVE",
"296 50 CURVE SMOOTH"
);
}
);
width = 597;
},
{
anchors = (
{
name = bottom;
position = "{296, 0}";
},
{
name = btm;
position = "{293, -83}";
},
{
name = center;
position = "{296, 279}";
},
{
name = ogonek;
position = "{320, 25}";
},
{
name = top;
position = "{301, 830}";
},
{
name = topright;
position = "{572, 557}";
}
);
layerId = "DB9867C4-88B4-4207-8D32-C8AFE6754240";
paths = (
{
closed = 1;
nodes = (
"435 -8 OFFCURVE",
"542 88 OFFCURVE",
"545 267 CURVE SMOOTH",
"547 425 OFFCURVE",
"479 564 OFFCURVE",
"301 564 CURVE SMOOTH",
"158 564 OFFCURVE",
"49 469 OFFCURVE",
"47 290 CURVE SMOOTH",
"45 131 OFFCURVE",
"113 -8 OFFCURVE",
"291 -8 CURVE SMOOTH"
);
},
{
closed = 1;
nodes = (
"199 70 OFFCURVE",
"156 169 OFFCURVE",
"156 289 CURVE SMOOTH",
"156 417 OFFCURVE",
"205 489 OFFCURVE",
"298 487 CURVE SMOOTH",
"394 486 OFFCURVE",
"437 391 OFFCURVE",
"437 271 CURVE SMOOTH",
"437 143 OFFCURVE",
"388 66 OFFCURVE",
"294 68 CURVE SMOOTH"
);
}
);
width = 592;
},
{
anchors = (
{
name = bottom;
position = "{316, 0}";
},
{
name = btm;
position = "{313, -83}";
},
{
name = center;
position = "{316, 279}";
},
{
name = ogonek;
position = "{338, 25}";
},
{
name = top;
position = "{320, 830}";
},
{
name = topright;
position = "{612, 557}";
}
);
layerId = "ADDB461F-7E69-4B45-B56F-E3E322F9570B";
paths = (
{
closed = 1;
nodes = (
"469 -8 OFFCURVE",
"584 88 OFFCURVE",
"587 267 CURVE SMOOTH",
"589 425 OFFCURVE",
"518 564 OFFCURVE",
"321 564 CURVE SMOOTH",
"163 564 OFFCURVE",
"48 469 OFFCURVE",
"45 290 CURVE SMOOTH",
"43 131 OFFCURVE",
"115 -8 OFFCURVE",
"311 -8 CURVE SMOOTH"
);
},
{
closed = 1;
nodes = (
"235 101 OFFCURVE",
"203 189 OFFCURVE",
"203 286 CURVE SMOOTH",
"203 394 OFFCURVE",
"237 457 OFFCURVE",
"318 456 CURVE SMOOTH",
"398 455 OFFCURVE",
"429 369 OFFCURVE",
"429 274 CURVE SMOOTH",
"429 162 OFFCURVE",
"395 99 OFFCURVE",
"314 100 CURVE SMOOTH"
);
}
);
width = 632;
},
{
anchors = (
{
name = bottom;
position = "{321, 0}";
},
{
name = btm;
position = "{312, -83}";
},
{
name = center;
position = "{321, 279}";
},
{
name = ogonek;
position = "{336, 25}";
},
{
name = top;
position = "{324, 830}";
},
{
name = topright;
position = "{621, 557}";
}
);
layerId = "23A20576-2241-481A-AD5B-28E85381F753";
paths = (
{
closed = 1;
nodes = (
"483 -8 OFFCURVE",
"601 88 OFFCURVE",
"603 267 CURVE SMOOTH",
"606 427 OFFCURVE",
"532 564 OFFCURVE",
"326 564 CURVE SMOOTH",
"159 564 OFFCURVE",
"41 468 OFFCURVE",
"38 290 CURVE SMOOTH",
"36 130 OFFCURVE",
"110 -8 OFFCURVE",
"316 -8 CURVE SMOOTH"
);
},
{
closed = 1;
nodes = (
"249 117 OFFCURVE",
"226 192 OFFCURVE",
"226 284 CURVE SMOOTH",
"226 385 OFFCURVE",
"250 439 OFFCURVE",
"323 439 CURVE SMOOTH",
"393 439 OFFCURVE",
"415 365 OFFCURVE",
"415 275 CURVE SMOOTH",
"415 169 OFFCURVE",
"391 117 OFFCURVE",
"320 117 CURVE SMOOTH"
);
}
);
width = 641;
}
);
leftKerningGroup = o;
rightKerningGroup = o;
unicode = 006F;
},
{
glyphname = oslash;
lastChange = "2019-01-21 06:08:13 +0000";
layers = (
{
anchors = (
{
name = top;
position = "{322, 830}";
}
);
layerId = "8BC678DE-46B6-4C98-A96E-C0ED61786D32";
paths = (
{
closed = 1;
nodes = (
"199 -95 LINE",
"446 639 LINE",
"399 652 LINE",
"152 -82 LINE"
);
},
{
closed = 1;
nodes = (
"438 -8 OFFCURVE",
"545 93 OFFCURVE",
"548 271 CURVE SMOOTH",
"549 428 OFFCURVE",
"479 564 OFFCURVE",
"305 564 CURVE SMOOTH",
"162 564 OFFCURVE",
"53 466 OFFCURVE",
"50 289 CURVE",
"48 131 OFFCURVE",
"117 -8 OFFCURVE",
"294 -8 CURVE SMOOTH"
);
},
{
closed = 1;
nodes = (
"182 52 OFFCURVE",
"133 161 OFFCURVE",
"133 288 CURVE SMOOTH",
"134 427 OFFCURVE",
"197 507 OFFCURVE",
"303 505 CURVE",
"415 504 OFFCURVE",
"465 402 OFFCURVE",
"465 274 CURVE SMOOTH",
"464 135 OFFCURVE",
"403 49 OFFCURVE",
"296 50 CURVE SMOOTH"
);
}
);
width = 598;
},
{
anchors = (
{
name = top;
position = "{322, 830}";
}
);
layerId = "DB9867C4-88B4-4207-8D32-C8AFE6754240";
paths = (
{
closed = 1;
nodes = (
"202 -98 LINE",
"452 638 LINE",
"391 655 LINE",
"141 -80 LINE"
);
},
{
closed = 1;
nodes = (
"435 -8 OFFCURVE",
"542 88 OFFCURVE",
"545 267 CURVE SMOOTH",
"547 425 OFFCURVE",
"479 564 OFFCURVE",
"301 564 CURVE SMOOTH",
"158 564 OFFCURVE",
"49 469 OFFCURVE",
"47 290 CURVE",
"45 131 OFFCURVE",
"113 -8 OFFCURVE",
"291 -8 CURVE SMOOTH"
);
},
{
closed = 1;
nodes = (
"199 70 OFFCURVE",
"156 169 OFFCURVE",
"156 289 CURVE SMOOTH",
"156 417 OFFCURVE",
"205 489 OFFCURVE",
"298 487 CURVE",
"394 486 OFFCURVE",
"437 391 OFFCURVE",
"437 271 CURVE SMOOTH",
"437 143 OFFCURVE",
"388 66 OFFCURVE",
"294 68 CURVE SMOOTH"
);
}
);
width = 592;
},
{
anchors = (
{
name = top;
position = "{322, 830}";
}
);
layerId = "ADDB461F-7E69-4B45-B56F-E3E322F9570B";
paths = (
{
closed = 1;
nodes = (
"213 -107 LINE",
"482 652 LINE",
"421 667 LINE",
"152 -92 LINE"
);
},
{
closed = 1;
nodes = (
"471 -8 OFFCURVE",
"586 88 OFFCURVE",
"589 267 CURVE SMOOTH",
"591 425 OFFCURVE",
"520 564 OFFCURVE",
"323 564 CURVE SMOOTH",
"165 564 OFFCURVE",
"50 469 OFFCURVE",
"47 290 CURVE",
"45 131 OFFCURVE",
"117 -8 OFFCURVE",
"313 -8 CURVE SMOOTH"
);
},
{
closed = 1;
nodes = (
"237 101 OFFCURVE",
"205 189 OFFCURVE",
"205 286 CURVE SMOOTH",
"205 394 OFFCURVE",
"239 457 OFFCURVE",
"320 456 CURVE",
"400 455 OFFCURVE",
"431 369 OFFCURVE",
"431 274 CURVE SMOOTH",
"431 162 OFFCURVE",
"397 99 OFFCURVE",
"316 100 CURVE SMOOTH"
);
}
);
width = 636;
},
{
anchors = (
{
name = top;
position = "{322, 830}";
}
);
layerId = "23A20576-2241-481A-AD5B-28E85381F753";
paths = (
{
closed = 1;
nodes = (
"217 -114 LINE",
"499 662 LINE",
"434 676 LINE",
"153 -102 LINE"
);
},
{
closed = 1;
nodes = (
"487 -8 OFFCURVE",
"605 88 OFFCURVE",
"607 267 CURVE SMOOTH",
"610 427 OFFCURVE",
"536 564 OFFCURVE",
"330 564 CURVE SMOOTH",
"163 564 OFFCURVE",
"45 468 OFFCURVE",
"42 290 CURVE",
"40 130 OFFCURVE",
"114 -8 OFFCURVE",
"320 -8 CURVE SMOOTH"
);
},
{
closed = 1;
nodes = (
"253 117 OFFCURVE",
"224 192 OFFCURVE",
"224 284 CURVE SMOOTH",
"224 385 OFFCURVE",
"254 439 OFFCURVE",
"327 439 CURVE",
"397 439 OFFCURVE",
"426 365 OFFCURVE",
"426 275 CURVE SMOOTH",
"426 169 OFFCURVE",
"395 117 OFFCURVE",
"324 117 CURVE SMOOTH"
);
}
);
width = 652;
}
);
leftKerningGroup = o;
rightKerningGroup = o;
unicode = 00F8;
},
{
glyphname = oe;
lastChange = "2019-02-16 05:39:16 +0000";
layers = (
{
anchors = (
{
name = bottom;
position = "{483, 0}";
},
{
name = btm;
position = "{494, -83}";
},
{
name = top;
position = "{494, 830}";
}
);
layerId = "8BC678DE-46B6-4C98-A96E-C0ED61786D32";
paths = (
{
closed = 1;
nodes = (
"777 -8 OFFCURVE",
"860 13 OFFCURVE",
"897 43 CURVE",
"881 91 LINE",
"852 72 OFFCURVE",
"779 54 OFFCURVE",
"729 54 CURVE SMOOTH",
"626 54 OFFCURVE",
"551 107 OFFCURVE",
"546 250 CURVE",
"542 433 OFFCURVE",
"614 506 OFFCURVE",
"710 506 CURVE SMOOTH",
"811 506 OFFCURVE",
"844 427 OFFCURVE",
"838 325 CURVE",
"523 325 LINE",
"516 270 LINE",
"911 270 LINE",
"915 293 OFFCURVE",
"915 320 OFFCURVE",
"915 355 CURVE SMOOTH",
"912 482 OFFCURVE",
"833 566 OFFCURVE",
"715 564 CURVE SMOOTH",
"556 563 OFFCURVE",
"466 443 OFFCURVE",
"466 276 CURVE SMOOTH",
"466 98 OFFCURVE",
"552 -8 OFFCURVE",
"708 -8 CURVE SMOOTH"
);
},
{
closed = 1;
nodes = (
"183 52 OFFCURVE",
"134 161 OFFCURVE",
"134 288 CURVE SMOOTH",
"135 427 OFFCURVE",
"199 507 OFFCURVE",
"304 505 CURVE",
"415 504 OFFCURVE",
"467 402 OFFCURVE",
"466 274 CURVE SMOOTH",
"466 135 OFFCURVE",
"403 49 OFFCURVE",
"296 50 CURVE SMOOTH"
);
},
{
closed = 1;
nodes = (
"438 -8 OFFCURVE",
"543 93 OFFCURVE",
"546 271 CURVE SMOOTH",
"547 428 OFFCURVE",
"479 564 OFFCURVE",
"306 564 CURVE SMOOTH",
"164 564 OFFCURVE",
"54 466 OFFCURVE",
"51 289 CURVE SMOOTH",
"49 131 OFFCURVE",
"117 -8 OFFCURVE",
"294 -8 CURVE SMOOTH"
);
}
);
width = 966;
},
{
anchors = (
{
name = bottom;
position = "{469, 0}";
},
{
name = btm;
position = "{491, -83}";
},
{
name = top;
position = "{491, 830}";
}
);
layerId = "DB9867C4-88B4-4207-8D32-C8AFE6754240";
paths = (
{
closed = 1;
nodes = (
"750 -8 OFFCURVE",
"835 12 OFFCURVE",
"872 42 CURVE",
"852 104 LINE",
"824 87 OFFCURVE",
"748 74 OFFCURVE",
"710 74 CURVE SMOOTH",
"620 74 OFFCURVE",
"548 114 OFFCURVE",
"542 245 CURVE",
"536 428 OFFCURVE",
"599 488 OFFCURVE",
"679 488 CURVE SMOOTH",
"776 488 OFFCURVE",
"794 406 OFFCURVE",
"789 326 CURVE",
"511 326 LINE",
"501 255 LINE",
"885 255 LINE",
"890 280 OFFCURVE",
"890 313 OFFCURVE",
"890 354 CURVE SMOOTH",
"886 494 OFFCURVE",
"796 566 OFFCURVE",
"685 564 CURVE SMOOTH",
"522 562 OFFCURVE",
"437 441 OFFCURVE",
"437 279 CURVE SMOOTH",
"437 99 OFFCURVE",
"525 -8 OFFCURVE",
"683 -8 CURVE SMOOTH"
);
},
{
closed = 1;
nodes = (
"199 70 OFFCURVE",
"156 169 OFFCURVE",
"156 289 CURVE SMOOTH",
"156 417 OFFCURVE",
"206 489 OFFCURVE",
"298 487 CURVE SMOOTH",
"394 486 OFFCURVE",
"437 391 OFFCURVE",
"437 271 CURVE SMOOTH",
"437 143 OFFCURVE",
"387 66 OFFCURVE",
"292 68 CURVE SMOOTH"
);
},
{
closed = 1;
nodes = (
"432 -8 OFFCURVE",
"539 88 OFFCURVE",
"542 267 CURVE SMOOTH",
"543 425 OFFCURVE",
"478 564 OFFCURVE",
"301 564 CURVE",
"158 564 OFFCURVE",
"50 469 OFFCURVE",
"47 290 CURVE SMOOTH",
"45 131 OFFCURVE",
"112 -8 OFFCURVE",
"290 -8 CURVE SMOOTH"
);
}
);
width = 938;
},
{
anchors = (
{
name = bottom;
position = "{479, 0}";
},
{
name = btm;
position = "{512, -83}";
},
{
name = top;
position = "{512, 830}";
}
);
layerId = "ADDB461F-7E69-4B45-B56F-E3E322F9570B";
paths = (
{
closed = 1;
nodes = (
"772 -8 OFFCURVE",
"856 18 OFFCURVE",
"893 48 CURVE",
"868 134 LINE",
"838 118 OFFCURVE",
"764 105 OFFCURVE",
"725 105 CURVE SMOOTH",
"636 105 OFFCURVE",
"579 150 OFFCURVE",
"576 251 CURVE",
"573 410 OFFCURVE",
"616 456 OFFCURVE",
"685 456 CURVE SMOOTH",
"753 456 OFFCURVE",
"774 408 OFFCURVE",
"769 326 CURVE",
"515 326 LINE",
"505 242 LINE",
"905 242 LINE",
"909 267 OFFCURVE",
"911 304 OFFCURVE",
"911 346 CURVE SMOOTH",
"911 508 OFFCURVE",
"805 565 OFFCURVE",
"689 564 CURVE SMOOTH",
"519 563 OFFCURVE",
"427 442 OFFCURVE",
"427 280 CURVE SMOOTH",
"427 100 OFFCURVE",
"516 -8 OFFCURVE",
"686 -8 CURVE SMOOTH"
);
},
{
closed = 1;
nodes = (
"234 101 OFFCURVE",
"205 189 OFFCURVE",
"205 286 CURVE SMOOTH",
"205 394 OFFCURVE",
"236 457 OFFCURVE",
"317 456 CURVE",
"397 455 OFFCURVE",
"426 369 OFFCURVE",
"426 274 CURVE SMOOTH",
"426 162 OFFCURVE",
"394 99 OFFCURVE",
"313 100 CURVE SMOOTH"
);
},
{
closed = 1;
nodes = (
"468 -8 OFFCURVE",
"572 88 OFFCURVE",
"575 267 CURVE SMOOTH",
"577 425 OFFCURVE",
"517 564 OFFCURVE",
"320 564 CURVE SMOOTH",
"162 564 OFFCURVE",
"49 469 OFFCURVE",
"47 290 CURVE SMOOTH",
"44 131 OFFCURVE",
"114 -8 OFFCURVE",
"310 -8 CURVE SMOOTH"
);
}
);
width = 958;
},
{
anchors = (
{
name = bottom;
position = "{487, 0}";
},
{
name = btm;
position = "{521, -83}";
},
{
name = top;
position = "{521, 830}";
}
);
layerId = "23A20576-2241-481A-AD5B-28E85381F753";
paths = (
{
closed = 1;
nodes = (
"797 -8 OFFCURVE",
"879 22 OFFCURVE",
"916 52 CURVE",
"889 150 LINE",
"862 136 OFFCURVE",
"793 122 OFFCURVE",
"741 122 CURVE SMOOTH",
"653 122 OFFCURVE",
"603 158 OFFCURVE",
"601 255 CURVE",
"600 404 OFFCURVE",
"634 448 OFFCURVE",
"696 448 CURVE SMOOTH",
"751 448 OFFCURVE",
"771 407 OFFCURVE",
"766 326 CURVE",
"525 326 LINE",
"516 238 LINE",
"927 238 LINE",
"930 262 OFFCURVE",
"932 298 OFFCURVE",
"932 338 CURVE SMOOTH",
"932 517 OFFCURVE",
"818 564 OFFCURVE",
"700 564 CURVE SMOOTH",
"524 564 OFFCURVE",
"426 443 OFFCURVE",
"426 281 CURVE SMOOTH",
"426 100 OFFCURVE",
"520 -8 OFFCURVE",
"698 -8 CURVE SMOOTH"
);
},
{
closed = 1;
nodes = (
"253 117 OFFCURVE",
"231 192 OFFCURVE",
"231 284 CURVE SMOOTH",
"231 385 OFFCURVE",
"253 439 OFFCURVE",
"326 439 CURVE",
"396 439 OFFCURVE",
"417 365 OFFCURVE",
"417 275 CURVE SMOOTH",
"417 169 OFFCURVE",
"395 117 OFFCURVE",
"323 117 CURVE SMOOTH"
);
},
{
closed = 1;
nodes = (
"486 -8 OFFCURVE",
"599 88 OFFCURVE",
"601 267 CURVE SMOOTH",
"604 427 OFFCURVE",
"535 564 OFFCURVE",
"330 564 CURVE SMOOTH",
"162 564 OFFCURVE",
"44 468 OFFCURVE",
"42 290 CURVE SMOOTH",
"40 130 OFFCURVE",
"113 -8 OFFCURVE",
"319 -8 CURVE SMOOTH"
);
}
);
width = 973;
}
);
leftKerningGroup = o;
rightKerningGroup = e;
unicode = 0153;
},
